<?xml version="1.0" encoding="utf-8"?>
<!-- Generator: Adobe Illustrator 24.0.1, SVG Export Plug-In . SVG Version: 6.00 Build 0)  -->
<svg version="1.1" id="Layer_1" xmlns="http://www.w3.org/2000/svg" xmlns:xlink="http://www.w3.org/1999/xlink" x="0px" y="0px"
	 viewBox="0 0 850 685" style="enable-background:new 0 0 850 685;" xml:space="preserve">
<style type="text/css">
	.st0{fill:#223249;}
	.st1{fill:#FFFFFF;}
</style>
<g>
	<g>
		<g>
			<path class="st0" d="M544.17,549.83c-4.84,0-9.84-0.35-15.03-1.06c-41.68-5.67-83.92-15.38-124.77-24.77
				c-16.27-3.74-33.1-7.61-49.56-11.14c-36.62-7.86-68.75-15.53-98.25-23.46c-3.76-1.01-7.87-2.03-12.23-3.11
				c-24.67-6.12-55.38-13.73-67.83-30.52c-7.7-10.39-5.6-29.98-5.41-31.66c0.03-3.66,0.92-114.96,5.11-199.36
				c4.41-88.78,15.49-169.29,25.76-187.26c11.64-20.38,37.47-23.75,58.22-26.47c1.71-0.22,3.4-0.44,5.04-0.67
				c28.17-3.86,56.88-6.56,85.33-8.03c47.6-2.45,95.75-1.51,143.1,2.77c41.02,3.72,84.23,9.24,121.91,31.85
				c19.42,11.65,36.08,26.94,52.2,41.72c2.52,2.32,5.05,4.63,7.59,6.94c22.14,20.12,36.23,38.21,45.67,58.66
				c13.27,28.72,18.76,63.05,15.87,99.28c-4.81,60.4-31.6,111.75-57.52,161.41c-3.43,6.57-6.85,13.31-10.15,19.83
				c-11.62,22.92-23.64,46.62-38.69,68.06c-11.09,15.79-24.75,33.42-42.05,44.45C575.34,545.69,560.73,549.83,544.17,549.83z
				 M177.71,224.83l1.5,0.07c-4.24,85.32-5.1,198.18-5.11,199.31c0,0.06,0,0.11-0.01,0.17c-0.02,0.2-2.33,19.94,4.83,29.6
				c11.8,15.92,41.93,23.39,66.14,29.39c4.38,1.08,8.51,2.11,12.29,3.13c29.45,7.92,61.54,15.58,98.1,23.43
				c16.48,3.54,33.32,7.41,49.6,11.15c40.78,9.38,82.95,19.07,124.5,24.72c45.92,6.24,70.91-15.32,98.54-54.68
				c14.93-21.26,26.9-44.86,38.47-67.69c3.31-6.53,6.73-13.27,10.17-19.86c25.78-49.39,52.43-100.47,57.19-160.26
				c2.84-35.71-2.55-69.53-15.61-97.78c-9.27-20.07-23.14-37.87-44.97-57.7c-2.54-2.31-5.07-4.63-7.6-6.95
				c-16-14.68-32.55-29.86-51.71-41.36c-37.14-22.28-79.96-27.75-120.64-31.43c-47.22-4.28-95.22-5.21-142.68-2.77
				c-28.36,1.46-56.99,4.15-85.08,8c-1.65,0.23-3.34,0.45-5.06,0.67c-20.09,2.63-45.1,5.89-56,24.98
				c-9.9,17.33-21.04,99-25.37,185.92L177.71,224.83z M172.6,424.2L172.6,424.2L172.6,424.2z"/>
		</g>
		<g>
			<path class="st1" d="M216.05,370.52L216.05,370.52c0.03,0.01,32.24,10.06,130.36,30.67c84.82,17.82,129.99,24.48,155.92,28.12
				c2.53,0.36,7.36-1.26,7.36-5.06c0-7.44,10.53-145.75,13.09-166.19s12.59-123.36,12.59-131.03s-3.33-8.08-10.04-9.56
				c-7.49-1.65-107.36-12.78-143.14-17.89c-35.79-5.11-147.85-18.2-147.85-18.2s-8.56-1.9-10.63,0.31
				c-2.47,2.64-9.82,53.9-15.05,143.78c-1.04,17.86-3.8,79.42-4.28,128.87c-0.05,5.11,1.72,9.33,4.28,11.89
				S216.05,370.52,216.05,370.52z"/>
			<path class="st0" d="M503.04,430.86c-0.33,0-0.63-0.02-0.92-0.06c-19.91-2.79-66.55-9.33-156.02-28.13
				c-95.73-20.12-129.1-30.28-130.47-30.7c-0.02-0.01-0.06-0.02-0.09-0.03c-0.21-0.08-5.17-1.88-7.93-4.64
				c-3.05-3.05-4.77-7.77-4.72-12.96c0.49-50.57,3.31-112.21,4.28-128.95c5.12-88.04,12.39-141.45,15.45-144.72
				c2.44-2.6,9.68-1.27,11.97-0.76c3.46,0.4,112.8,13.2,147.81,18.2c18.36,2.62,53.54,6.83,84.58,10.53
				c29.49,3.52,54.95,6.56,58.67,7.38l0.76,0.17c6.29,1.37,10.45,2.28,10.45,10.86c0,7.81-9.97,110.14-12.6,131.21
				c-2.41,19.26-13.08,157.93-13.08,166.01c0,1.71-0.72,3.24-2.1,4.43C507.38,430.17,504.93,430.86,503.04,430.86z M216.53,369.1
				c1.6,0.49,34.95,10.62,130.19,30.63c89.37,18.78,135.94,25.31,155.82,28.1c1.23,0.17,3.33-0.32,4.59-1.41
				c0.72-0.62,1.06-1.33,1.06-2.17c0-8.1,10.69-147.09,13.1-166.38c2.48-19.83,12.58-123.29,12.58-130.84
				c0-6.16-1.88-6.57-8.09-7.93l-0.77-0.17c-3.57-0.79-28.97-3.82-58.38-7.33c-31.06-3.71-66.26-7.91-84.65-10.54
				C346.63,96.01,235.3,83,234.18,82.87c-0.05-0.01-0.1-0.01-0.15-0.03c-3.66-0.81-8.34-1.06-9.21-0.13
				c-1.94,2.98-9.24,49.96-14.65,142.85c-0.97,16.71-3.79,78.29-4.28,128.8c-0.04,4.39,1.36,8.33,3.84,10.81
				C211.93,367.37,216.13,368.95,216.53,369.1z"/>
		</g>
		<g>
			<path class="st0" d="M540.43,487.11c-4.71,0-9.09-0.3-11.35-0.49c-11.61-0.97-69.78-11.47-85.78-14.77
				c-17.89-3.68-160.04-33.35-175.53-37.1c-16.02-3.88-85.78-22.39-95.98-28.21c-0.72-0.41-0.97-1.33-0.56-2.05
				c0.41-0.72,1.33-0.97,2.05-0.56c9.77,5.58,79.82,24.17,95.2,27.9c15.45,3.75,157.55,33.4,175.43,37.08
				c15.96,3.29,73.9,13.76,85.43,14.72c11.18,0.93,23.77,0.56,26.19-1.95c0.27-0.28,0.27-0.48,0.25-0.65
				c-0.48-3.82,4.64-118.45,5.22-131.5c0.19-2.3,19.04-224.21,20.46-236.92c0.37-3.36,0.59-6.82,0.8-10.17
				c0.89-14.25,1.81-29,15.33-38.9c1.3-0.96,2.69-1.88,4.03-2.78c5.08-3.41,10.34-6.93,12.25-12.65c0.54-1.63-0.78-6.81-1.89-9.96
				c-0.28-0.78,0.13-1.64,0.92-1.91c0.79-0.28,1.64,0.13,1.91,0.92c0.51,1.43,2.97,8.73,1.91,11.91
				c-2.23,6.69-7.92,10.5-13.42,14.19c-1.38,0.92-2.67,1.79-3.93,2.71c-12.39,9.08-13.23,22.48-14.11,36.67
				c-0.21,3.38-0.43,6.88-0.81,10.32c-1.41,12.67-20.25,234.55-20.44,236.79c-1.58,35.21-5.6,127.5-5.24,130.94
				c0.14,1.14-0.23,2.21-1.07,3.09C555.09,486.44,547.4,487.11,540.43,487.11z"/>
		</g>
		<g>
			<path class="st0" d="M547.74,549.39c-0.83,0-1.5-0.67-1.5-1.5c0-0.83,0.67-1.5,1.49-1.5l0,0c0.04,0,3.56-0.06,5.44-2.7
				c2.1-2.94,2.1-15.53,2.1-23.86c0-9.42,0.47-38.73,0.48-39.02c0.01-0.82,0.68-1.48,1.5-1.48c0.06,0,7.17-0.14,14.67-7.2
				c8.06-7.58,104-128.02,115.34-144.79c10.66-15.76,30.58-52.07,35.04-62.98c4.24-10.36,10.88-28.4,11.8-33.92
				c0.14-0.82,0.91-1.37,1.73-1.23c0.82,0.14,1.37,0.91,1.23,1.73c-0.97,5.8-7.58,23.8-11.98,34.56
				c-4.51,11.02-24.6,47.65-35.34,63.52c-11.38,16.82-107.68,137.67-115.77,145.29c-6.39,6.01-12.51,7.51-15.24,7.89
				c-0.09,5.89-0.45,29.39-0.45,37.62c0,12.4-0.2,22.15-2.66,25.6C552.82,549.35,547.95,549.39,547.74,549.39z"/>
		</g>
		<g>
			<path class="st0" d="M409.35,492.8c-0.1,0-0.2-0.01-0.3-0.03c-32.08-6.48-136.92-27.75-139.34-29.19
				c-0.28-0.17-0.54-0.32-0.77-0.45c-1.95-1.14-2.7-1.67-4.08-4.44c-1.11-2.23-1.26-2.51-1.16-3.79c0.02-0.26,0.05-0.62,0.05-1.16
				v-19.97c0-0.83,0.67-1.5,1.5-1.5s1.5,0.67,1.5,1.5v19.97c0,0.65-0.03,1.07-0.06,1.38c-0.04,0.46-0.04,0.46,0.85,2.22
				c1.05,2.11,1.3,2.25,2.91,3.19c0.22,0.13,0.46,0.27,0.72,0.43c4.37,1.61,101.03,21.3,138.29,28.83c0.45-0.03,2.01-0.19,3.26-1.12
				c1.3-0.98,1.3-1.27,1.3-4.03v-19.5c0-0.83,0.67-1.5,1.5-1.5s1.5,0.67,1.5,1.5v19.5c0,2.94,0,4.55-2.5,6.43
				C412.26,492.78,409.47,492.8,409.35,492.8z M271.24,461c0.01,0,0.01,0.01,0.02,0.01C271.26,461,271.25,461,271.24,461z"/>
		</g>
		<g>
			<path class="st0" d="M443.59,497.96c0,4.86-2.67,9.51-7.13,9.51s-8.08-3.94-8.08-8.8c0-4.86,3.65-9.33,8.08-8.8
				C440.92,490.41,443.59,493.1,443.59,497.96z"/>
		</g>
		<g>
			<path class="st0" d="M332.43,459.3l11.35,2.22c0,0,3.75-0.07,3.71,3.44c-0.03,2.39-2.82,2.83-2.82,2.83l-15.26-2.87
				c0,0-2.6-1.06-1.79-3.86C328.54,457.88,332.43,459.3,332.43,459.3z"/>
		</g>
		<g>
			<path class="st0" d="M481.97,486.77c11.91,1.8,28.6,3.79,36.64,11.38c5.4,5.1,8.19,11.95,7.87,19.4
				c-0.19,4.45-1.25,9.29-4.37,12.65c-3.68,3.95-8.45,3.7-13.47,3.09c-9.84-1.21-17.63-2.8-27.68-4.69
				c-6.62-1.25-15.56-4-18.55-7.44c-4.29-4.95-5.5-12.06-5.5-18.46c0-7.2,3.38-13.31,10.48-15.46
				C472.16,485.8,477.07,486.03,481.97,486.77z"/>
		</g>
		<g>
			<path class="st0" d="M198.53,422.04c5.19,0.98,10.53,2.98,15.3,4.67c5.61,1.98,11.01,4.81,14.56,9.56
				c3.7,4.95,5.34,10.98,5.49,17c0.48,20.31-17.29,13.93-17.29,13.93c-5.55-2.05-11.21-3.85-16.73-6
				c-5.46-2.13-9.61-5.17-12.36-10.21c-2.86-5.25-4.01-11.26-3.76-17.14c0.28-6.41,3.39-12.94,11.07-12.32
				C196.04,421.63,197.28,421.8,198.53,422.04z"/>
		</g>
		<g>
			<path class="st0" d="M570.89,564.94c-0.07,0-0.14,0-0.21,0c-23.32-0.02-73.26-8.01-96.27-14.3c-2.51-0.69-5.08-1.42-7.71-2.16
				c-22.43-6.35-47.85-13.54-69.62-5.39c-0.78,0.29-1.64-0.1-1.93-0.88s0.1-1.64,0.88-1.93c22.69-8.5,48.61-1.16,71.48,5.31
				c2.62,0.74,5.19,1.47,7.69,2.15c22.84,6.25,72.37,14.18,95.48,14.2c0.07,0,0.14,0,0.2,0c45.91,0,61.47-10.15,99.02-34.62
				l3.09-2.01c4.44-2.89,8.88-6,13.18-9c10.25-7.17,20.85-14.59,32.49-19.83c15.56-7,33.27-7.58,50.39-8.13
				c24.55-0.79,47.73-1.54,65.46-19.48c8.94-9.04,12.7-16,10.89-20.14c-3.38-7.71-25.3-6.92-39.81-6.41
				c-5.7,0.21-10.62,0.38-13.83,0.09c-7.25-0.67-14.6-1.71-21.71-2.73c-17.19-2.45-34.97-4.98-52.42-2.26
				c-5.45,0.85-10.67,2.77-15.95,5.93c0.02,0.78,0.05,1.55,0.07,2.32c0.15,6.05-0.07,15-3.71,22.92
				c-2.22,4.83-15.24,16.76-22.16,15.24c-1.99-0.43-4.36-2.06-4.37-7.35c-0.02-8.74,5.89-15.94,11.68-21.83
				c3.98-4.06,9.17-8.91,15.45-12.9c-1.04-27.65-5.56-45.81-12.81-51.34c-0.66-0.5-0.79-1.44-0.28-2.1c0.5-0.66,1.44-0.79,2.1-0.28
				c9.78,7.45,13.03,31.28,13.93,51.98c4.68-2.61,9.9-4.66,15.62-5.55c17.89-2.79,35.89-0.23,53.3,2.26
				c7.07,1.01,14.39,2.05,21.56,2.71c3.02,0.28,7.86,0.1,13.45-0.1c17.14-0.61,38.46-1.37,42.66,8.2
				c2.42,5.51-1.35,13.18-11.5,23.45c-18.57,18.79-43.44,19.59-67.5,20.37c-16.83,0.54-34.24,1.11-49.25,7.87
				c-11.38,5.12-21.86,12.46-32,19.55c-4.31,3.02-8.78,6.14-13.26,9.06l-3.09,2.01C633.47,554.64,617.67,564.93,570.89,564.94z
				 M698.73,445.23c-4.33,2.96-8.75,6.76-13.42,11.52c-5.36,5.46-10.83,12.07-10.82,19.72c0.01,3.99,1.51,4.31,2.01,4.42
				c4.81,1.05,16.87-9.38,18.8-13.56c3.38-7.35,3.58-15.85,3.44-21.6C698.74,445.57,698.74,445.4,698.73,445.23z"/>
		</g>
		<g>
			<path class="st0" d="M569.99,684c-4.04,0-8.13-0.23-12.24-0.7c-12-1.38-22.7-4.74-30.93-9.74c-9.38-5.69-15.91-15.09-17.05-24.53
				c-0.94-7.8,1.73-15.09,7.73-21.09c19.76-19.76,57.8-22.9,83.57-15.82c11.82,3.24,21.27,9.66,26.61,18.06
				c6.96,10.93,6.15,24.75-1.97,33.61C614.01,676.55,592.96,684,569.99,684z M573.88,611.65c-20.1,0-41.32,5.48-54.26,18.42
				c-5.32,5.32-7.7,11.75-6.87,18.61c1.03,8.55,7.02,17.1,15.62,22.33c7.87,4.77,18.14,8,29.72,9.32l0,0
				c26.6,3.05,52.27-4.24,65.41-18.56c7.2-7.86,7.88-20.18,1.65-29.97c-4.94-7.77-13.78-13.73-24.88-16.77
				C592.36,612.84,583.24,611.65,573.88,611.65z"/>
		</g>
		<g>
			<path class="st0" d="M605.67,669.82c-4.85,0-9.86-0.86-14.77-2.62c-10.3-3.67-20.16-10.97-28.53-21.09
				c-5.88-7.12-11.17-7.78-20.8-6.58c-7.51,0.94-16.24,6.57-23.26,11.09c-1.64,1.06-3.21,2.07-4.68,2.97
				c-0.7,0.43-1.63,0.21-2.06-0.49c-0.43-0.71-0.21-1.63,0.49-2.06c1.45-0.89,3-1.89,4.62-2.93c7.27-4.69,16.33-10.52,24.51-11.54
				c10.55-1.32,16.75-0.51,23.49,7.64c8.02,9.71,17.43,16.69,27.22,20.18c11.22,4,23.44,2.93,31.88-2.8
				c0.69-0.46,1.62-0.29,2.08,0.4c0.46,0.69,0.29,1.62-0.4,2.08C619.86,667.87,612.95,669.82,605.67,669.82z"/>
		</g>
		<g>
			<path class="st0" d="M619.4,668.52c-36.51,0-48.06-13.74-49.06-21.01c-0.85-6.13,1.23-11.56,3.13-15.04
				c5.04-9.26,14.94-15.57,27.16-17.31c3.39-0.48,6.73-0.49,6.87-0.49c0.83,0,1.5,0.67,1.5,1.5s-0.67,1.5-1.5,1.5
				c-0.03,0-3.27,0.01-6.45,0.46c-11.28,1.61-20.37,7.36-24.95,15.78c-2.37,4.36-3.36,9.04-2.79,13.2
				c0.71,5.12,10.37,18.42,46.09,18.42c0.83,0,1.5,0.67,1.5,1.5S620.23,668.52,619.4,668.52z"/>
		</g>
		<g>
			<path class="st0" d="M37.7,528.09c-0.62,0-1.2-0.39-1.42-1c-0.27-0.78,0.14-1.64,0.92-1.91c1.18-0.41,3.45-1.44,5.46-2.35
				c1.66-0.75,3.22-1.46,4.21-1.84c0.77-0.3,1.64,0.08,1.94,0.85c0.3,0.77-0.08,1.64-0.85,1.94c-0.91,0.36-2.44,1.05-4.06,1.78
				c-2.16,0.98-4.4,1.99-5.7,2.45C38.04,528.07,37.87,528.09,37.7,528.09z"/>
		</g>
		<g>
			<path class="st0" d="M419.93,666.39c-0.02,0-0.04,0-0.07,0c-5.77-0.01-268.61-70.91-298.56-78.99
				c-4.27-1.06-105.41-26.27-113.61-31.57c-9.14-5.91-6.57-12.59-4.87-17.02c2.34-6.09,13.84-9.22,18.68-10.28
				c0.81-0.18,1.61,0.33,1.79,1.14c0.18,0.81-0.33,1.61-1.14,1.79c-6.69,1.47-15.03,4.55-16.52,8.42c-1.67,4.34-3.4,8.83,3.69,13.42
				c6.23,4.03,76.46,22.16,112.73,31.19c100.46,27.12,291.94,78.49,297.84,78.9c0.02,0,0.04,0,0.06,0
				c11.52,0,21.96-5.57,32.05-10.95l1.41-0.75c16.75-8.91,33.49-18.37,49.77-28.11l0.85-0.51c9.44-5.64,23.7-14.15,23.7-25.71
				c0-4.23-5.34-10.06-10.11-12.45c-0.61-0.3-1.24-0.6-1.86-0.9c-3.34-1.58-6.49-3.08-7.03-5.65c-0.27-1.28,0.17-2.58,1.29-3.86
				c0.83-0.95,1.59-1.69,2.27-2.27l-176.5-42.84l-182-40.39c-1.45-0.09-3.72,0.1-4.38,0.71c-0.09,0.08-0.09,0.11-0.09,0.17
				c0,2.79-0.39,5.57-5.09,6.24c-3.5,0.49-18.22-4.32-21.13-5.29c-0.15-0.05-0.28-0.12-0.41-0.21c-0.18-0.13-4.55-3.2-8.86-0.85
				c-1.97,1.07-3.93,2.15-5.89,3.24c-0.73,0.4-1.64,0.14-2.04-0.58s-0.14-1.64,0.58-2.04c1.97-1.09,3.94-2.18,5.91-3.25
				c5.44-2.96,10.73,0.17,11.85,0.92c6.97,2.32,17.52,5.4,19.56,5.1c2.31-0.33,2.52-0.84,2.52-3.27c0-0.92,0.36-1.74,1.05-2.38
				c1.91-1.77,5.96-1.55,6.75-1.5c0.07,0,0.14,0.02,0.21,0.03l182.14,40.42l180.26,43.76c0.78,0.19,1.37,0.96,1.22,1.74
				c-0.14,0.77-0.75,1.3-1.52,1.22c-0.28,0.07-1.75,0.54-4.15,3.29c-0.32,0.37-0.69,0.89-0.61,1.28c0.23,1.11,3.2,2.52,5.38,3.55
				c0.64,0.3,1.28,0.61,1.91,0.92c4.93,2.47,11.77,9.1,11.77,15.13c0,13.25-15.14,22.3-25.16,28.28l-0.85,0.51
				c-16.32,9.77-33.11,19.25-49.9,28.19l-1.41,0.75C443,660.64,432.23,666.39,419.93,666.39z M516.4,573.18L516.4,573.18
				L516.4,573.18z"/>
		</g>
		<g>
			<path class="st0" d="M88.23,503.8c-0.53,0-1.04-0.28-1.31-0.77c-0.4-0.72-0.15-1.64,0.58-2.04c0.64-0.36,2.69-1.44,4.76-2.54
				c2.12-1.12,4.31-2.28,4.96-2.64c0.72-0.41,1.64-0.15,2.04,0.57c0.41,0.72,0.15,1.64-0.57,2.04c-0.68,0.38-2.79,1.5-5.02,2.68
				c-2.04,1.08-4.06,2.15-4.7,2.5C88.73,503.74,88.48,503.8,88.23,503.8z"/>
		</g>
		<g>
			<path class="st0" d="M71.71,512.38c-0.54,0-1.05-0.29-1.32-0.79c-0.39-0.73-0.11-1.64,0.62-2.03c0.19-0.1,2.17-1.12,4.23-2.19
				c2.26-1.17,4.62-2.39,4.83-2.5c0.73-0.39,1.64-0.12,2.03,0.61c0.39,0.73,0.12,1.64-0.61,2.03c-0.21,0.11-2.6,1.35-4.88,2.53
				c-2.05,1.06-4,2.07-4.2,2.17C72.19,512.33,71.95,512.38,71.71,512.38z"/>
		</g>
		<g>
			<path class="st0" d="M54.71,520.48c-0.57,0-1.11-0.32-1.36-0.87c-0.35-0.75-0.02-1.64,0.74-1.99c0.87-0.4,2.78-1.25,4.95-2.21
				c3.57-1.58,8.02-3.56,9.43-4.25c0.74-0.37,1.64-0.06,2.01,0.68c0.37,0.74,0.06,1.64-0.68,2.01c-1.46,0.72-5.75,2.62-9.54,4.3
				c-2.16,0.96-4.05,1.8-4.91,2.19C55.13,520.44,54.92,520.48,54.71,520.48z"/>
		</g>
		<g>
			<path class="st0" d="M534.14,602.8c-2.38,0-3.51-0.73-3.74-0.91c-0.66-0.5-0.8-1.44-0.3-2.1c0.5-0.67,1.44-0.8,2.1-0.3
				c0,0,0,0,0,0c0.01,0,1.04,0.55,3.49,0.19c1.26-0.18,1.31-0.29,1.16-2.31c-0.04-0.47-0.07-0.95-0.07-1.43
				c0-0.92,0.42-1.49,0.78-1.81c1.12-1.02,2.93-0.84,5.22-0.63c2.18,0.21,4.89,0.47,6.03-0.57c0.47-0.43,0.7-1.14,0.7-2.17
				c0-1.07-0.01-2.18-0.35-3.07c-0.61-1.57-3.42-2.15-5.69-2.62c-0.82-0.17-1.6-0.33-2.28-0.53c-3.08-0.92-4.32-1.54-4.17-3.92
				c0.03-0.46,0.06-0.97-0.15-1.76c-1.18-1.27-10.39-3.43-23.46-4.73c-0.82-0.08-1.43-0.82-1.34-1.64c0.08-0.82,0.81-1.44,1.64-1.34
				c0.06,0.01,6.06,0.61,12.1,1.62c12.05,2.01,13.5,3.72,13.92,5.17c0.38,1.34,0.32,2.27,0.29,2.88c0,0.04-0.01,0.09-0.01,0.13
				c0.26,0.13,0.82,0.35,2.05,0.72c0.55,0.16,1.26,0.31,2.02,0.47c2.82,0.58,6.68,1.37,7.88,4.47c0.55,1.41,0.55,2.86,0.56,4.15
				c0,1.9-0.56,3.38-1.68,4.4c-2.12,1.93-5.56,1.6-8.34,1.34c-0.85-0.08-2.07-0.2-2.7-0.14c0.01,0.27,0.03,0.54,0.05,0.8
				c0.14,1.84,0.37,4.92-3.73,5.51C535.38,602.76,534.72,602.8,534.14,602.8z M536.9,578.91L536.9,578.91L536.9,578.91z"/>
		</g>
		<g>
			<path class="st0" d="M716.53,679.72c-21.06,0-43.04-3.65-62.8-6.93c-11.56-1.92-22.49-3.73-32.31-4.72
				c-0.82-0.08-1.43-0.82-1.34-1.64c0.08-0.82,0.82-1.45,1.64-1.34c9.92,0.99,20.89,2.81,32.5,4.74
				c44.68,7.42,95.33,15.82,125.87-14.21c9.66-9.5,13.49-23.6,9.53-35.1c-3.22-9.35-11.94-16.4-22.76-18.38
				c-8.99-1.65-16.63,0.68-25.67,3.88c-11.1,3.94-19.81,6.25-28.23,7.5c-12.3,1.83-29.71,2.26-42.72-6.05
				c-3.51-2.24-4.83-5.43-3.53-8.54c0.87-2.08,2.66-3.79,4.94-5.23c-10.61-0.51-21.33-0.85-31.95-0.91
				c-11.33-0.06-22.86,0.22-34.01,0.5c-14.78,0.36-30.05,0.74-45.1,0.32c-14.71-0.41-14.89-1.46-15.11-2.79
				c-0.14-0.86,0.38-1.67,1.31-2.02c0.77-0.29,1.64,0.1,1.93,0.88c0.01,0.02,0.02,0.05,0.02,0.07c1.27,0.26,4.38,0.65,11.93,0.86
				c14.97,0.42,30.21,0.04,44.94-0.32c11.18-0.27,22.73-0.56,34.1-0.5c12.49,0.07,25.11,0.53,37.53,1.19
				c3.42-1.33,7.14-2.35,10.35-3.23c1.95-0.53,3.63-1,4.92-1.43c9.76-3.33,17.87-5.52,25.52-6.89c6.26-1.12,15.27-1.96,21.13,3.66
				c2.93,2.81,4.21,7.47,0.98,10.92c-3.86,4.13-10.42,3.63-14.76,3.29c-15.01-1.16-31.15-2.4-47.64-3.29
				c-3.89,1.57-7.22,3.54-8.27,6.07c-0.91,2.18,0.79,3.85,2.37,4.86c12.24,7.81,28.87,7.36,40.67,5.61
				c8.22-1.22,16.75-3.49,27.66-7.36c9.47-3.36,17.49-5.79,27.21-4.01c11.89,2.18,21.49,9.98,25.06,20.35
				c4.33,12.57,0.2,27.92-10.26,38.22C765.05,674.62,741.43,679.72,716.53,679.72z M685.49,591.47c13.88,0.84,27.41,1.88,40.13,2.86
				c3.99,0.31,9.46,0.73,12.34-2.35c1.99-2.13,0.95-4.97-0.87-6.71c-3.71-3.56-9.6-4.47-18.52-2.87c-7.5,1.34-15.47,3.5-25.08,6.78
				c-1.37,0.47-3.09,0.94-5.09,1.49C687.48,590.91,686.5,591.18,685.49,591.47z"/>
		</g>
		<g>
			<path class="st0" d="M105.16,552.18l108.34,26.24c0,0,5.34,1.46,9.23-0.49c3.89-1.94,8.75-3.89-1.94-6.8
				s-108.83-26.24-108.83-26.24s-6.07,1.21-7.53,2.19C102.97,548.05,102.97,551.21,105.16,552.18z"/>
		</g>
		<g>
			<ellipse class="st0" cx="200.12" cy="545.66" rx="7.76" ry="4.09"/>
		</g>
		<g>
			<ellipse class="st0" cx="180.7" cy="540.73" rx="7.76" ry="4.09"/>
		</g>
		<g>
			<ellipse class="st0" cx="240.93" cy="555.17" rx="7.76" ry="4.09"/>
		</g>
		<g>
			<ellipse class="st0" cx="220.1" cy="550.11" rx="7.76" ry="4.09"/>
		</g>
		<g>
			<ellipse class="st0" cx="280.28" cy="564.89" rx="7.76" ry="4.09"/>
		</g>
		<g>
			<ellipse class="st0" cx="260.87" cy="559.95" rx="7.76" ry="4.09"/>
		</g>
		<g>
			<ellipse class="st0" cx="321.09" cy="574.4" rx="7.76" ry="4.09"/>
		</g>
		<g>
			<ellipse class="st0" cx="300.27" cy="569.34" rx="7.76" ry="4.09"/>
		</g>
		<g>
			<ellipse class="st0" cx="118.99" cy="525.84" rx="7.76" ry="4.09"/>
		</g>
		<g>
			<ellipse class="st0" cx="99.58" cy="520.91" rx="7.76" ry="4.09"/>
		</g>
		<g>
			<ellipse class="st0" cx="93.1" cy="532.26" rx="6.53" ry="3"/>
		</g>
		<g>
			<ellipse class="st0" cx="159.8" cy="535.35" rx="7.76" ry="4.09"/>
		</g>
		<g>
			<ellipse class="st0" cx="138.98" cy="530.29" rx="7.76" ry="4.09"/>
		</g>
		<g>
			<ellipse class="st0" cx="133.08" cy="516.61" rx="7.76" ry="4.09"/>
		</g>
		<g>
			<ellipse class="st0" cx="113.67" cy="511.68" rx="7.76" ry="4.09"/>
		</g>
		<g>
			<ellipse class="st0" cx="173.89" cy="526.12" rx="7.76" ry="4.09"/>
		</g>
		<g>
			<ellipse class="st0" cx="153.07" cy="521.06" rx="7.76" ry="4.09"/>
		</g>
		<g>
			<ellipse class="st0" cx="213.74" cy="536.22" rx="7.76" ry="4.09"/>
		</g>
		<g>
			<ellipse class="st0" cx="194.33" cy="531.29" rx="7.76" ry="4.09"/>
		</g>
		<g>
			<ellipse class="st0" cx="254.55" cy="545.73" rx="7.76" ry="4.09"/>
		</g>
		<g>
			<ellipse class="st0" cx="233.73" cy="540.67" rx="7.76" ry="4.09"/>
		</g>
		<g>
			<ellipse class="st0" cx="294.38" cy="555.48" rx="7.76" ry="4.09"/>
		</g>
		<g>
			<ellipse class="st0" cx="274.97" cy="550.55" rx="7.76" ry="4.09"/>
		</g>
		<g>
			<ellipse class="st0" cx="335.19" cy="564.99" rx="7.76" ry="4.09"/>
		</g>
		<g>
			<ellipse class="st0" cx="314.37" cy="559.93" rx="7.76" ry="4.09"/>
		</g>
		<g>
			<ellipse class="st0" cx="295.35" cy="542.36" rx="7.76" ry="4.09"/>
		</g>
		<g>
			<ellipse class="st0" cx="275.94" cy="537.43" rx="7.76" ry="4.09"/>
		</g>
		<g>
			<ellipse class="st0" cx="336.16" cy="551.87" rx="7.76" ry="4.09"/>
		</g>
		<g>
			<ellipse class="st0" cx="315.34" cy="546.81" rx="7.76" ry="4.09"/>
		</g>
		<g>
			<ellipse class="st0" cx="216.16" cy="522.44" rx="7.76" ry="4.09"/>
		</g>
		<g>
			<ellipse class="st0" cx="196.75" cy="517.51" rx="7.76" ry="4.09"/>
		</g>
		<g>
			<ellipse class="st0" cx="256" cy="531.47" rx="7.76" ry="4.09"/>
		</g>
		<g>
			<ellipse class="st0" cx="236.15" cy="526.89" rx="7.76" ry="4.09"/>
		</g>
		<g>
			<ellipse class="st0" cx="137.4" cy="503.31" rx="7.76" ry="4.09"/>
		</g>
		<g>
			<ellipse class="st0" cx="119.44" cy="498.38" rx="7.76" ry="4.09"/>
		</g>
		<g>
			<ellipse class="st0" cx="176.75" cy="512.34" rx="7.76" ry="4.09"/>
		</g>
		<g>
			<ellipse class="st0" cx="157.38" cy="507.76" rx="7.76" ry="4.09"/>
		</g>
		<g>
			<path class="st0" d="M39.81,521.57c0,0,33.52,10.2,36.44,9.23c2.92-0.97,9.23-3.4,6.8-5.34c-2.43-1.94-35.47-10.2-37.41-9.72
				S34.95,518.17,39.81,521.57z"/>
		</g>
		<g>
			<path class="st0" d="M58.27,512.34c0.01,0.02,20.89,5.83,23.32,6.32c2.43,0.49,9.32-3.11,7.28-3.89
				c-6.31-2.43-10.2-3.4-18.64-6.05c-2.55-0.8-6.61-1-9.18-0.02C60.78,508.8,57.06,509.91,58.27,512.34z"/>
		</g>
		<g>
			<path class="st0" d="M681.13,395.66c0,0-3.89-3.89,0-17.98s7.77-14.58,9.72-12.63c1.94,1.94,0.97,12.63,0.97,12.63"/>
		</g>
		<g>
			<ellipse class="st0" cx="210.34" cy="560.56" rx="6.53" ry="3"/>
		</g>
		<g>
			<ellipse class="st0" cx="131.8" cy="541.19" rx="6.53" ry="3"/>
		</g>
		<g>
			<ellipse class="st0" cx="149.93" cy="545.44" rx="6.53" ry="3"/>
		</g>
		<g>
			<ellipse class="st0" cx="168.97" cy="550.9" rx="6.53" ry="3"/>
		</g>
		<g>
			<ellipse class="st0" cx="189.04" cy="555.4" rx="6.53" ry="3"/>
		</g>
		<g>
			<ellipse class="st0" cx="230.18" cy="565.72" rx="6.53" ry="3"/>
		</g>
		<g>
			<ellipse class="st0" cx="111.55" cy="537.18" rx="6.53" ry="3"/>
		</g>
		<g>
			<ellipse class="st0" cx="250.1" cy="571.31" rx="6.53" ry="3"/>
		</g>
		<g>
			<ellipse class="st0" cx="270.42" cy="576.29" rx="6.53" ry="3"/>
		</g>
		<g>
			<path class="st0" d="M228.8,581.33c-0.47,1.4-0.97,2.19,1.94,2.92c2.92,0.73,17.73,4.13,19.68,4.62c1.94,0.49,6.07-1.7,7.29-2.43
				c1.21-0.73,4.62-3.16,3.4-4.13c-1.21-0.97-21.86-5.83-24.05-5.83C234.88,576.47,229.53,579.15,228.8,581.33z"/>
		</g>
		<g>
			<path class="st0" d="M93.01,548.29c-2.1,0.77-20.41-4.86-21.38-4.86c-0.97,0-0.24-2.43,0.73-3.16c0.97-0.73,6.56-3.16,8.5-2.92
				s17.73,4.13,18.46,5.59C100.05,544.41,95.68,547.32,93.01,548.29z"/>
		</g>
		<g>
			<path class="st0" d="M62.4,541.01c-1.57,0.7-17.49-2.92-18.71-3.64s0-3.16,0.97-3.4c4.57-1.14,7.49-3.23,12.31-2.1
				c3.56,0.83,7.37,1.46,10.77,2.82c2.43,0.97,0.24,3.16-1.7,4.37S64.59,540.04,62.4,541.01z"/>
		</g>
		<g>
			<path class="st0" d="M31.04,533.72c-4.15-1.02-8.48-1.46-12.5-3.01c-1.87-0.73-4.15-1.18-2.72-3.11
				c0.95-1.28,3.73-2.14,5.17-2.55c4.48-1.25,8.42-1.48,12.89-0.16c1.59,0.47,7.13,1.41,7.75,3.07
				C42.95,531.51,33.22,534.26,31.04,533.72z"/>
		</g>
		<g>
			<path class="st0" d="M86.45,500.44c0,0,14.58,3.16,16.03,4.13s0,3.4-2.43,4.37c-2.43,0.97-4.37,2.19-6.56,2.19
				s-16.28-4.37-17.98-5.34c-1.7-0.97,3.16-2.92,5.1-3.64S84.75,500.68,86.45,500.44z"/>
		</g>
		<g>
			<path class="st0" d="M93.25,496.79c2.5,2.19,8.57,2.66,11.19,0.8c1-0.71,5.97-4.63,3.63-5.9c-2.67-1.46-4.62-1.21-6.32-0.73
				C100.05,491.45,91.31,495.09,93.25,496.79z"/>
		</g>
		<g>
			<path class="st0" d="M287.86,576.42c1.2-0.15,18.11,3.72,20.04,4.17c1.93,0.45,35,7.4,35.92,8.79c1.03,1.55-7.2,4.44-9.62,4.36
				c-2.43-0.08-55.02-12.16-55.02-12.16s-0.68-1.39,0.3-1.75C280.47,579.49,286.64,576.57,287.86,576.42z"/>
		</g>
		<g>
			<path class="st0" d="M330.59,580.12c0.78,1.05,20.16,6.07,20.16,6.07s4.62,0.97,6.07,0.73c1.46-0.24,8.5-3.4,8.5-4.37
				s-22.83-5.83-25.02-6.56s-6.56,1.46-7.53,1.94C331.8,578.42,329.86,579.15,330.59,580.12z"/>
		</g>
		<g>
			<path class="st0" d="M349.05,573.07l20.41,4.86c0,0,1.46,0.24,2.92,0.24c1.46,0,9.23-4.37,9.23-4.37s1.46-1.21,0.24-1.94
				c-1.21-0.73-26.24-6.56-26.24-6.56s-1.7-0.49-3.16,0c-1.46,0.49-6.56,4.37-6.8,5.1s0.49,1.7,1.46,1.94
				C348.08,572.59,349.05,573.07,349.05,573.07z"/>
		</g>
		<g>
			<path class="st0" d="M349.54,558.74c0,0.88,1.21,1.7,2.19,1.94c0.97,0.24,33.77,7.29,33.77,7.29s1.7,0.49,2.92,0.24
				c1.21-0.24,8.02-5.34,8.02-5.34s0-0.73-1.7-1.46c-1.7-0.73-34.98-8.02-34.98-8.02s-1.21-0.73-2.92,0
				C355.12,554.12,349.54,558.01,349.54,558.74z"/>
		</g>
		<g>
			<path class="st0" d="M259.09,591.21c0.49,0.84,11.01,2.93,11.98,2.93c0.97,0,6.4-2.41,5.67-3.25c-0.73-0.84-9.55-3.01-11.5-2.59
				C263.3,588.72,258.6,590.37,259.09,591.21z"/>
		</g>
		<g>
			<path class="st0" d="M277.9,595.66c0.52,0.97,14.06,3.88,15.52,3.81c1.46-0.07,8.42-2.17,6.9-3.15
				c-1.52-0.98-13.12-3.68-14.84-3.81S277.35,594.63,277.9,595.66z"/>
		</g>
		<g>
			<path class="st0" d="M303.62,601.25c0.78,0.55,9.48,2.58,11.17,2.43c1.69-0.15,8.05-1.95,6.96-2.92
				c-1.09-0.96-7.7-2.12-10.16-2.33S302.56,600.5,303.62,601.25z"/>
		</g>
		<g>
			<path class="st0" d="M290.47,590.36c0.4,0.88,11.59,3.18,12.7,3.12c1.1-0.06,5.44-1.61,4.29-2.5c-1.15-0.89-9.17-2.55-10.46-2.67
				C295.7,588.19,290.05,589.43,290.47,590.36z"/>
		</g>
		<g>
			<path class="st0" d="M393.45,556.48c2.74,0.69,6.87,1.65,9.77,1.29c1.28-0.16,6.62-3.53,5.07-4.69
				c-1.3-0.98-11.81-2.94-13.04-2.86c-1.23,0.08-7.19,3.42-6.13,4.41C390.18,555.63,393.45,556.48,393.45,556.48z"/>
		</g>
		<g>
			<path class="st0" d="M371.72,551.49c2.74,0.69,6.87,1.65,9.77,1.29c1.28-0.16,6.62-3.53,5.07-4.69
				c-1.3-0.98-11.81-2.94-13.04-2.86c-1.23,0.08-7.19,3.42-6.13,4.41C368.45,550.64,371.72,551.49,371.72,551.49z"/>
		</g>
		<g>
			<path class="st0" d="M350.83,546.38c2.74,0.69,6.87,1.65,9.77,1.29c1.28-0.16,6.62-3.53,5.07-4.69
				c-1.3-0.98-11.81-2.94-13.04-2.86c-1.23,0.08-7.19,3.42-6.13,4.41C347.56,545.54,350.83,546.38,350.83,546.38z"/>
		</g>
		<g>
			<path class="st0" d="M328.72,541.04c2.74,0.69,6.87,1.65,9.77,1.29c1.28-0.16,6.62-3.53,5.07-4.69
				c-1.3-0.98-11.81-2.94-13.04-2.86c-1.23,0.08-7.19,3.42-6.13,4.41C325.45,540.19,328.72,541.04,328.72,541.04z"/>
		</g>
		<g>
			<path class="st0" d="M298.12,534.48c2.74,0.69,6.87,1.65,9.77,1.29c1.28-0.16,6.62-3.53,5.07-4.69
				c-1.3-0.98-11.81-2.94-13.04-2.86c-1.23,0.08-7.19,3.42-6.13,4.41C294.85,533.63,298.12,534.48,298.12,534.48z"/>
		</g>
		<g>
			<path class="st0" d="M278.2,529.87c2.74,0.69,6.87,1.65,9.77,1.29c1.28-0.16,6.62-3.53,5.07-4.69
				c-1.3-0.98-11.81-2.94-13.04-2.86c-1.23,0.08-7.19,3.42-6.13,4.41C274.93,529.02,278.2,529.87,278.2,529.87z"/>
		</g>
		<g>
			<path class="st0" d="M257.55,524.76c2.74,0.69,6.87,1.65,9.77,1.29c1.28-0.16,6.62-3.53,5.07-4.69
				c-1.3-0.98-11.81-2.94-13.04-2.86c-1.23,0.08-7.19,3.42-6.13,4.41C254.28,523.92,257.55,524.76,257.55,524.76z"/>
		</g>
		<g>
			<path class="st0" d="M236.41,519.91c2.74,0.69,6.87,1.65,9.77,1.29c1.28-0.16,6.62-3.53,5.07-4.69
				c-1.3-0.98-11.81-2.94-13.04-2.86c-1.23,0.08-7.19,3.42-6.13,4.41S236.41,519.91,236.41,519.91z"/>
		</g>
		<g>
			<path class="st0" d="M207.26,512.86c2.74,0.69,6.87,1.65,9.77,1.29c1.28-0.16,6.62-3.53,5.07-4.69
				c-1.3-0.98-11.81-2.94-13.04-2.86c-1.23,0.08-7.19,3.42-6.13,4.41C203.99,512.01,207.26,512.86,207.26,512.86z"/>
		</g>
		<g>
			<path class="st0" d="M187.59,508.25c2.74,0.69,6.87,1.65,9.77,1.29c1.28-0.16,6.62-3.53,5.07-4.69
				c-1.3-0.98-11.81-2.94-13.04-2.86s-7.19,3.42-6.13,4.41C184.32,507.4,187.59,508.25,187.59,508.25z"/>
		</g>
		<g>
			<path class="st0" d="M168.4,504.12c2.74,0.69,6.87,1.65,9.77,1.29c1.28-0.16,6.62-3.53,5.07-4.69
				c-1.3-0.98-11.81-2.94-13.04-2.86s-7.19,3.42-6.13,4.41S168.4,504.12,168.4,504.12z"/>
		</g>
		<g>
			<path class="st0" d="M148.72,499.26c2.74,0.69,6.87,1.65,9.77,1.29c1.28-0.16,6.62-3.53,5.07-4.69
				c-1.3-0.98-11.81-2.94-13.04-2.86c-1.23,0.08-7.19,3.42-6.13,4.41C145.45,498.41,148.72,499.26,148.72,499.26z"/>
		</g>
		<g>
			<path class="st0" d="M112.04,490.51c2.74,0.69,6.87,1.65,9.77,1.29c1.28-0.16,6.62-3.53,5.07-4.69
				c-1.3-0.98-11.81-2.94-13.04-2.86s-7.19,3.42-6.13,4.41C108.77,489.67,112.04,490.51,112.04,490.51z"/>
		</g>
		<g>
			<path class="st0" d="M426.87,564.12c2.74,0.69,6.87,1.65,9.77,1.29c1.28-0.16,6.62-3.53,5.07-4.69
				c-1.3-0.98-11.81-2.94-13.04-2.86c-1.23,0.08-7.19,3.42-6.13,4.41C423.6,563.27,426.87,564.12,426.87,564.12z"/>
		</g>
		<g>
			<path class="st0" d="M448,568.98c2.74,0.69,6.87,1.65,9.77,1.29c1.28-0.16,6.62-3.53,5.07-4.69c-1.3-0.98-11.81-2.94-13.04-2.86
				c-1.23,0.08-7.19,3.42-6.13,4.41S448,568.98,448,568.98z"/>
		</g>
		<g>
			<path class="st0" d="M470.11,574.81c2.74,0.69,6.87,1.65,9.77,1.29c1.28-0.16,6.62-3.53,5.07-4.69
				c-1.3-0.98-11.81-2.94-13.04-2.86c-1.23,0.08-7.19,3.42-6.13,4.41C466.84,573.96,470.11,574.81,470.11,574.81z"/>
		</g>
		<g>
			<path class="st0" d="M493.18,580.15c2.74,0.69,6.87,1.65,9.77,1.29c1.28-0.16,6.62-3.53,5.07-4.69
				c-1.3-0.98-11.81-2.94-13.04-2.86s-7.19,3.42-6.13,4.41C489.91,579.3,493.18,580.15,493.18,580.15z"/>
		</g>
		<g>
			<path class="st0" d="M413.5,573.59c2.74,0.69,6.87,1.65,9.77,1.29c1.28-0.16,6.62-3.53,5.07-4.69
				c-1.3-0.98-11.81-2.94-13.04-2.86c-1.23,0.08-7.19,3.42-6.13,4.41S413.5,573.59,413.5,573.59z"/>
		</g>
		<g>
			<path class="st0" d="M435.61,578.69c2.74,0.69,6.87,1.65,9.77,1.29c1.28-0.16,6.62-3.53,5.07-4.69
				c-1.3-0.98-11.81-2.94-13.04-2.86c-1.23,0.08-7.19,3.42-6.13,4.41C432.34,577.85,435.61,578.69,435.61,578.69z"/>
		</g>
		<g>
			<path class="st0" d="M456.99,583.8c2.74,0.69,6.87,1.65,9.77,1.29c1.28-0.16,6.62-3.53,5.07-4.69
				c-1.3-0.98-11.81-2.94-13.04-2.86c-1.23,0.08-7.19,3.42-6.13,4.41C453.72,582.95,456.99,583.8,456.99,583.8z"/>
		</g>
		<g>
			<path class="st0" d="M481.04,589.14c2.74,0.69,6.87,1.65,9.77,1.29c1.28-0.16,6.62-3.53,5.07-4.69
				c-1.3-0.98-11.81-2.94-13.04-2.86c-1.23,0.08-7.19,3.42-6.13,4.41C477.77,588.29,481.04,589.14,481.04,589.14z"/>
		</g>
		<g>
			<ellipse class="st0" cx="402.85" cy="581.56" rx="7.76" ry="4.09"/>
		</g>
		<g>
			<ellipse class="st0" cx="447.19" cy="592.28" rx="7.76" ry="4.09"/>
		</g>
		<g>
			<ellipse class="st0" cx="423.94" cy="586.74" rx="7.76" ry="4.09"/>
		</g>
		<g>
			<ellipse class="st0" cx="385.97" cy="591.53" rx="7.76" ry="4.09"/>
		</g>
		<g>
			<ellipse class="st0" cx="430.31" cy="602.26" rx="7.76" ry="4.09"/>
		</g>
		<g>
			<ellipse class="st0" cx="407.06" cy="596.71" rx="7.76" ry="4.09"/>
		</g>
		<g>
			<ellipse class="st0" cx="369.39" cy="599.9" rx="7.76" ry="4.09"/>
		</g>
		<g>
			<ellipse class="st0" cx="413.73" cy="610.62" rx="7.76" ry="4.09"/>
		</g>
		<g>
			<ellipse class="st0" cx="390.48" cy="605.08" rx="7.76" ry="4.09"/>
		</g>
		<g>
			<path class="st0" d="M463.15,600.93c3,0.78,7.51,1.87,10.69,1.47c1.4-0.18,7.23-3.95,5.54-5.26c-1.43-1.1-12.92-3.33-14.27-3.24
				s-7.85,3.83-6.69,4.95S463.15,600.93,463.15,600.93z"/>
		</g>
		<g>
			<path class="st0" d="M447.73,611.04c3,0.78,7.51,1.87,10.69,1.47c1.4-0.18,7.23-3.95,5.54-5.26c-1.43-1.1-12.92-3.33-14.27-3.24
				s-7.85,3.83-6.69,4.95C444.16,610.08,447.73,611.04,447.73,611.04z"/>
		</g>
		<g>
			<path class="st0" d="M338.6,608.78l33.28,8.02c0,0,1.21,0,3.16-0.24c1.94-0.24,9.96-3.89,9.96-3.89s1.46-1.7-0.73-2.43
				c-2.19-0.73-31.82-7.29-31.82-7.29s-3.89-0.73-5.1,0c-1.21,0.73-8.26,3.4-8.75,4.13C338.12,607.81,337.88,607.57,338.6,608.78z"
				/>
		</g>
		<g>
			<path class="st0" d="M383.06,619.96l9.47,2.19c0,0,2.94,1.04,5.83-0.24c2.19-0.97,9.72-3.64,9.72-3.64s0.49-1.46-2.67-2.43
				c-3.16-0.97-10.45-2.43-10.45-2.43s-3.4,0.24-5.34,1.21C387.67,615.58,379.66,618.26,383.06,619.96z"/>
		</g>
		<g>
			<path class="st0" d="M408.81,627c0,0,7.22,2.41,7.29,2.43c4.03,1.34,8.89-0.64,12.62-2.08c6.06-2.32,12.13-4.63,18.16-7.03
				c0.68-0.27,4.23-1.21,4.44-2.07c0.24-0.97-2.67-1.7-4.86-2.43c-2.19-0.73-7.8-2.82-9.96-2.43c-2.67,0.49-10.27,3.36-14.87,5.05
				c-3.36,1.23-5.6,1.68-8.93,2.97c-2.13,0.83-7.77,2.19-7.54,3.81C405.86,626.33,407.57,626.59,408.81,627z"/>
		</g>
	</g>
	<g>
		<path class="st0" d="M245.66,226.29l-0.15,2.35l-3.14-0.45l-0.65-1.95c-0.88,1.31-2.26,1.85-3.97,1.6
			c-2.58-0.37-4.21-2.24-4.03-5.19c0.4-6.34,8.27-1.14,8.48-4.53l0.01-0.09c0.09-1.4-0.59-2.9-2.45-3.17
			c-1.66-0.24-2.67,0.73-3.29,2.37l-1.71-1.4c1.21-2.93,3.29-3.62,5.21-3.34c2.81,0.41,4.57,2.77,4.37,5.97l-0.48,7.58
			L245.66,226.29z M241.93,222.64l0.12-1.93c-2.12,1-6.01-0.77-6.2,2.34c-0.12,1.87,1.2,2.28,2.14,2.42
			C240.9,225.88,241.85,223.91,241.93,222.64z"/>
		<path class="st0" d="M260.54,221.65l-0.6,9.06l-2.12-0.31l0.55-8.37l0.04-0.7c0.05-0.82,0.24-3.77-2.52-4.17
			c-3.12-0.45-3.56,3.33-3.7,5.61l-0.43,6.75l-2.04-0.29l0.94-14.9l1.3,0.19l0.83,2.01c0.96-1.4,2.26-1.88,3.64-1.68
			C259.14,215.24,260.77,218.01,260.54,221.65z"/>
		<path class="st0" d="M292.39,233.04l-0.15,2.35l-3.14-0.45l-0.65-1.95c-0.88,1.31-2.25,1.85-3.97,1.6
			c-2.58-0.37-4.21-2.24-4.03-5.19c0.4-6.34,8.27-1.14,8.48-4.53l0.01-0.09c0.09-1.4-0.59-2.9-2.45-3.17
			c-1.66-0.24-2.67,0.73-3.29,2.37l-1.71-1.4c1.21-2.93,3.29-3.62,5.21-3.34c2.81,0.41,4.57,2.77,4.37,5.97l-0.48,7.58
			L292.39,233.04z M288.65,229.39l0.12-1.93c-2.13,1.01-6.01-0.77-6.2,2.34c-0.12,1.87,1.2,2.28,2.14,2.42
			C287.62,232.63,288.57,230.66,288.65,229.39z"/>
		<path class="st0" d="M308.4,226.45l-1.88,0.78c-0.49-2.02-0.98-2.89-2.33-3.09c-2.83-0.41-3.52,3.04-3.68,5.64l-0.27,4.34
			l2.48,0.36l-0.15,2.38l-6.87-0.99l0.15-2.38l2.27,0.33l0.64-10.15l-2.02-0.29l0.15-2.38l3.32,0.48l0.87,2.11
			c0.8-1.23,1.91-2.03,3.46-1.8C306.28,222.05,307.71,223.41,308.4,226.45z"/>
		<path class="st0" d="M323.02,236.02c-0.91,2.52-2.4,3.78-4.73,3.44c-2.81-0.41-4.31-2.77-4.08-6.38l0.45-7.1l-3.22-0.46l0.15-2.38
			l3.22,0.46l0.34-5.33l2.12,0.31l-0.34,5.33l6.21,0.9l-0.15,2.38l-6.21-0.9l-0.42,6.69c-0.08,1.24-0.24,3.77,2.11,4.11
			c1.66,0.24,2.22-0.93,2.83-2.44L323.02,236.02z"/>
		<path class="st0" d="M338.51,239.66l-0.15,2.38l-11.29-1.63l0.15-2.38l4.57,0.66l0.64-10.15l-4.06-0.59l0.15-2.38l6.18,0.89
			L333.94,239L338.51,239.66z M335.18,222.9l-2.96-0.43l0.23-3.68l2.96,0.43L335.18,222.9z"/>
		<path class="st0" d="M345.12,238.09c0.53,1.84,1.15,3.01,3.55,3.36c1.35,0.2,2.55,0.02,2.66-1.76c0.1-1.62-0.89-1.89-2.67-2.59
			c-2.21-0.86-4.44-1.92-4.24-5.06c0.19-2.95,2.27-4.15,4.72-3.8c2.58,0.37,4.16,2.23,4.72,4.78l-1.86,0.88
			c-0.42-1.6-1-2.99-3.07-3.29c-1.33-0.19-2.31,0.21-2.4,1.73c-0.07,1.14,0.42,1.56,2.3,2.32c2.19,0.86,4.83,1.79,4.61,5.34
			c-0.2,3.2-2.4,4.2-5.21,3.79c-2.66-0.38-4.39-2.27-4.98-4.81L345.12,238.09z"/>
		<path class="st0" d="M369.75,242.77c-0.91,2.53-2.4,3.78-4.73,3.45c-2.81-0.41-4.31-2.77-4.08-6.38l0.45-7.1l-3.22-0.46l0.15-2.38
			l3.22,0.46l0.34-5.33l2.12,0.31l-0.34,5.33l6.21,0.9l-0.15,2.38l-6.21-0.9l-0.42,6.69c-0.08,1.24-0.24,3.77,2.11,4.11
			c1.66,0.24,2.22-0.93,2.83-2.44L369.75,242.77z"/>
		<path class="st0" d="M380.13,231.34l-1.21-2c1.17-0.92,1.73-2.12,1.82-3.54l-1.46-0.21l0.17-2.63l2.96,0.43
			C383.17,226.82,382.48,230.11,380.13,231.34z"/>
		<path class="st0" d="M391.85,244.84c0.53,1.84,1.15,3.01,3.55,3.36c1.35,0.2,2.55,0.02,2.66-1.76c0.1-1.62-0.89-1.89-2.67-2.59
			c-2.21-0.86-4.44-1.92-4.24-5.06c0.19-2.95,2.27-4.15,4.72-3.8c2.58,0.37,4.16,2.23,4.72,4.78l-1.86,0.88
			c-0.42-1.6-1-2.99-3.07-3.29c-1.33-0.19-2.31,0.21-2.4,1.73c-0.07,1.14,0.42,1.56,2.3,2.32c2.19,0.86,4.83,1.79,4.61,5.34
			c-0.2,3.2-2.4,4.2-5.21,3.79c-2.66-0.38-4.39-2.27-4.98-4.82L391.85,244.84z"/>
		<path class="st0" d="M431.64,255.39c-0.33,5.17-2.74,7.09-6.29,6.58c-2.58-0.37-4.24-1.8-4.95-4.91l1.84-0.92
			c0.49,2.05,1.27,3.16,3.29,3.45c3.65,0.53,3.85-2.67,4-4.57l0.13-1.61c-0.87,1.12-2.13,1.84-3.91,1.58
			c-3.96-0.57-5.25-5.04-5.03-8.56c0.22-3.52,2.05-7.54,6.01-6.97c1.74,0.25,2.86,1.25,3.58,2.56l0.97-1.59l1.28,0.18L431.64,255.39
			z M430.27,247.77c0.21-3.3-1.27-5.59-3.52-5.92c-2.27-0.33-3.71,1.58-3.92,4.87c-0.21,3.3,0.99,5.58,3.23,5.91
			C428.31,252.96,430.06,251.06,430.27,247.77z"/>
		<path class="st0" d="M447.79,242.81l-0.94,14.9l-1.3-0.19l-0.83-2.01c-0.96,1.4-2.28,1.88-3.69,1.67
			c-3.11-0.45-4.24-3.84-4.05-6.79l0.6-9.06l2.09,0.3l-0.57,9.07c-0.11,1.74,0.27,3.85,2.52,4.17c3.12,0.45,3.56-3.36,3.7-5.61
			l0.43-6.75L447.79,242.81z"/>
		<path class="st0" d="M463.11,257.66l-0.15,2.38l-11.29-1.63l0.15-2.38l4.57,0.66l0.64-10.15l-4.06-0.59l0.15-2.38l6.18,0.89
			L458.54,257L463.11,257.66z M459.79,240.9l-2.96-0.43l0.23-3.68l2.96,0.43L459.79,240.9z"/>
		<path class="st0" d="M479.99,240.1l-1.4,22.19l-1.3-0.19l-0.76-1.87c-0.87,1.12-2.12,1.77-3.86,1.52c-3.93-0.57-5.22-5.01-5-8.56
			c0.22-3.52,2.05-7.54,5.98-6.97c1.84,0.27,3.01,1.36,3.72,2.78l0.5-9.21L479.99,240.1z M477.23,254.42
			c0.2-3.17-1.3-5.47-3.55-5.79c-2.25-0.32-3.68,1.58-3.89,4.88c-0.21,3.3,0.96,5.58,3.21,5.9
			C475.25,259.73,477.01,257.91,477.23,254.42z"/>
		<path class="st0" d="M494.71,257.11l-0.07,0.7l-9.37-1.39c-0.01,2.94,1.21,4.94,3.66,5.29c1.71,0.25,2.87-0.48,3.5-2.34l1.72,1.4
			c-0.91,2.14-2.53,3.73-5.44,3.31c-4.37-0.63-5.77-4.9-5.54-8.67c0.24-3.74,2.1-7.5,6.39-6.88
			C493.75,249.13,495.12,253.13,494.71,257.11z M485.52,254.12l7.07,1.05c0.01-2.62-1.22-3.98-3.13-4.26
			C487.34,250.6,486.02,251.85,485.52,254.12z"/>
		<path class="st0" d="M243.13,256.66c-0.91,2.52-2.4,3.78-4.73,3.44c-2.81-0.41-4.31-2.77-4.08-6.38l0.45-7.1l-3.22-0.46l0.15-2.38
			l3.22,0.46l0.34-5.33l2.12,0.31l-0.34,5.33l6.21,0.9l-0.15,2.38l-6.21-0.9l-0.42,6.69c-0.08,1.24-0.24,3.77,2.11,4.11
			c1.66,0.24,2.22-0.93,2.83-2.44L243.13,256.66z"/>
		<path class="st0" d="M247.61,253.43c0.23-3.65,2.14-7.37,6.17-6.79c4.03,0.58,5.45,4.79,5.21,8.43c-0.25,3.96-2.16,7.69-6.2,7.1
			C248.77,261.6,247.36,257.39,247.61,253.43z M256.88,254.77c0.2-3.17-0.95-5.42-3.25-5.75c-2.3-0.33-3.71,1.54-3.91,4.71
			c-0.22,3.49,0.93,5.73,3.23,6.07C255.25,260.13,256.66,258.26,256.88,254.77z"/>
		<path class="st0" d="M287.95,261.75l1.77,1.41c-0.94,2.17-2.39,4.01-5.35,3.58c-4.06-0.59-5.64-4.88-5.41-8.62
			c0.24-3.74,2.33-7.5,6.39-6.92c2.94,0.42,4.19,2.65,4.81,5.05l-1.91,0.88c-0.42-1.92-1.21-3.28-3.05-3.54
			c-2.25-0.32-3.91,1.55-4.12,4.84c-0.21,3.3,1.19,5.61,3.44,5.94C286.35,264.63,287.3,263.52,287.95,261.75z"/>
		<path class="st0" d="M294.33,260.18c0.23-3.65,2.14-7.37,6.18-6.79c4.03,0.58,5.44,4.79,5.21,8.43c-0.25,3.96-2.16,7.69-6.19,7.1
			C295.49,268.35,294.08,264.14,294.33,260.18z M303.61,261.52c0.2-3.17-0.95-5.42-3.25-5.75c-2.3-0.33-3.71,1.54-3.91,4.72
			c-0.22,3.49,0.93,5.73,3.23,6.06C301.98,266.88,303.39,265.01,303.61,261.52z"/>
		<path class="st0" d="M322.41,263.31l-0.54,8.62l-2.12-0.31l0.54-8.62c0.11-1.71,0.27-4.31-1.24-4.53
			c-1.17-0.17-2.17,1.32-2.45,5.79l-0.43,6.75l-2.07-0.3l0.49-8.63c0.13-2.12,0.14-4.33-1.23-4.53c-1.17-0.17-2.17,1.32-2.45,5.79
			l-0.43,6.85l-2.04-0.3l0.94-14.9l1.3,0.19l0.6,1.46c0.55-0.91,1.38-1.5,2.56-1.33c1.51,0.22,2.25,1.48,2.62,2.94
			c0.62-1.35,1.62-2.33,3.12-2.11C322.93,256.63,322.53,261.37,322.41,263.31z"/>
		<path class="st0" d="M336.87,266.48c-0.22,3.52-2.05,7.54-5.98,6.97c-1.84-0.27-3.01-1.36-3.72-2.78l-0.5,9.21l-2.12-0.31
			l1.4-22.19l1.3,0.19l0.76,1.87c0.87-1.12,2.12-1.77,3.86-1.52C335.8,258.49,337.09,262.93,336.87,266.48z M334.75,266.18
			c0.21-3.3-0.96-5.58-3.21-5.9c-2.25-0.33-4.01,1.5-4.23,4.99c-0.2,3.17,1.3,5.47,3.55,5.79
			C333.1,271.38,334.54,269.48,334.75,266.18z"/>
		<path class="st0" d="M352.32,261.2l-0.94,14.9l-1.3-0.19l-0.83-2.01c-0.96,1.4-2.28,1.88-3.69,1.67
			c-3.12-0.45-4.24-3.84-4.05-6.79l0.6-9.06l2.09,0.3l-0.57,9.07c-0.11,1.74,0.27,3.85,2.52,4.17c3.12,0.45,3.56-3.36,3.7-5.61
			l0.43-6.75L352.32,261.2z"/>
		<path class="st0" d="M367.73,274.65c-0.91,2.52-2.4,3.78-4.73,3.44c-2.81-0.41-4.31-2.77-4.08-6.38l0.45-7.1l-3.22-0.46l0.15-2.38
			l3.22,0.46l0.34-5.33l2.12,0.31l-0.34,5.33l6.21,0.9l-0.15,2.38l-6.21-0.9l-0.42,6.69c-0.08,1.24-0.24,3.77,2.11,4.11
			c1.66,0.24,2.22-0.93,2.83-2.44L367.73,274.65z"/>
		<path class="st0" d="M383.83,278.42l-0.15,2.35l-3.14-0.45l-0.65-1.95c-0.88,1.31-2.25,1.85-3.97,1.6
			c-2.58-0.37-4.21-2.24-4.03-5.19c0.4-6.34,8.27-1.14,8.48-4.53l0.01-0.09c0.09-1.4-0.59-2.9-2.46-3.17
			c-1.66-0.24-2.67,0.73-3.29,2.37l-1.71-1.4c1.21-2.93,3.29-3.62,5.21-3.34c2.81,0.41,4.57,2.77,4.37,5.97l-0.48,7.58
			L383.83,278.42z M380.09,274.78l0.12-1.93c-2.13,1-6.01-0.77-6.2,2.33c-0.12,1.87,1.2,2.29,2.14,2.42
			C379.06,278.02,380.01,276.04,380.09,274.78z"/>
		<path class="st0" d="M398.89,279.15c-0.91,2.52-2.4,3.78-4.73,3.44c-2.81-0.41-4.31-2.77-4.08-6.38l0.45-7.1l-3.22-0.46l0.15-2.38
			l3.22,0.46l0.34-5.33l2.12,0.31l-0.34,5.33l6.21,0.9l-0.15,2.38l-6.21-0.9l-0.42,6.69c-0.08,1.24-0.24,3.77,2.11,4.11
			c1.66,0.24,2.22-0.93,2.83-2.44L398.89,279.15z"/>
		<path class="st0" d="M414.37,282.8l-0.15,2.38l-11.29-1.63l0.15-2.38l4.57,0.66l0.64-10.15l-4.06-0.59l0.15-2.38l6.18,0.89
			l-0.77,12.53L414.37,282.8z M411.05,266.03l-2.96-0.43l0.23-3.68l2.96,0.43L411.05,266.03z"/>
		<path class="st0" d="M418.94,278.18c0.23-3.65,2.14-7.37,6.18-6.79c4.03,0.58,5.44,4.79,5.21,8.43c-0.25,3.96-2.16,7.69-6.19,7.1
			C420.1,286.34,418.69,282.14,418.94,278.18z M428.21,279.52c0.2-3.17-0.95-5.42-3.25-5.75c-2.3-0.33-3.71,1.54-3.91,4.72
			c-0.22,3.49,0.93,5.73,3.23,6.06C426.58,284.88,427.99,283.01,428.21,279.52z"/>
		<path class="st0" d="M445.44,280.53l-0.6,9.06l-2.12-0.31l0.55-8.37l0.04-0.7c0.05-0.82,0.24-3.77-2.52-4.17
			c-3.12-0.45-3.56,3.33-3.7,5.61l-0.43,6.75l-2.04-0.3l0.94-14.9l1.3,0.19l0.83,2.01c0.96-1.4,2.26-1.88,3.64-1.68
			C444.04,274.13,445.67,276.89,445.44,280.53z"/>
	</g>
</g>
</svg>
