<?xml version="1.0" encoding="utf-8"?>
<!-- Generator: Adobe Illustrator 24.0.1, SVG Export Plug-In . SVG Version: 6.00 Build 0)  -->
<svg version="1.1" id="Layer_1" xmlns="http://www.w3.org/2000/svg" xmlns:xlink="http://www.w3.org/1999/xlink" x="0px" y="0px"
	 viewBox="0 0 929 520" style="enable-background:new 0 0 929 520;" xml:space="preserve">
<style type="text/css">
	.st0{fill:#223249;}
</style>
<g>
	<g>
		<path class="st0" d="M806,431.25H123c-0.83,0-1.5-0.67-1.5-1.5v-384c0-0.83,0.67-1.5,1.5-1.5h683c0.83,0,1.5,0.67,1.5,1.5v384
			C807.5,430.58,806.83,431.25,806,431.25z M124.5,428.25h680v-381h-680V428.25z"/>
	</g>
	<g>
		<path class="st0" d="M847.5,471.28h-766c-0.83,0-1.5-0.67-1.5-1.5V12.75c0-6.34,5.16-11.5,11.5-11.5h746
			c6.34,0,11.5,5.16,11.5,11.5v457.03C849,470.61,848.33,471.28,847.5,471.28z M83,468.28h763V12.75c0-4.69-3.81-8.5-8.5-8.5h-746
			c-4.69,0-8.5,3.81-8.5,8.5V468.28z"/>
	</g>
	<g>
		<path class="st0" d="M926.5,507.25H2.5c-0.83,0-1.5-0.67-1.5-1.5v-36c0-0.83,0.67-1.5,1.5-1.5h924c0.83,0,1.5,0.67,1.5,1.5v36
			C928,506.58,927.33,507.25,926.5,507.25z M4,504.25h921v-33H4V504.25z"/>
	</g>
	<g>
		<path class="st0" d="M898.59,518.75h-868c-5.7,0-26.43-10.47-28.77-11.66c-0.74-0.38-1.03-1.28-0.66-2.02s1.28-1.03,2.02-0.66
			c8.95,4.56,23.64,11.34,27.41,11.34h868c3.77,0,18.34-6.78,27.22-11.33c0.74-0.38,1.64-0.09,2.02,0.65
			c0.38,0.74,0.09,1.64-0.65,2.02C924.86,508.28,904.29,518.75,898.59,518.75z"/>
	</g>
	<g>
		<path class="st0" d="M564.5,482.25h-200c-6.34,0-11.5-5.16-11.5-11.5v-1c0-0.83,0.67-1.5,1.5-1.5h220c0.83,0,1.5,0.67,1.5,1.5v1
			C576,477.09,570.84,482.25,564.5,482.25z M356.01,471.25c0.26,4.46,3.97,8,8.49,8h200c4.52,0,8.23-3.54,8.49-8H356.01z"/>
	</g>
</g>
</svg>
