<?xml version="1.0" encoding="utf-8"?>
<!-- Generator: Adobe Illustrator 24.0.1, SVG Export Plug-In . SVG Version: 6.00 Build 0)  -->
<svg version="1.1" id="Layer_1" xmlns="http://www.w3.org/2000/svg" xmlns:xlink="http://www.w3.org/1999/xlink" x="0px" y="0px"
	 viewBox="0 0 651 577" style="enable-background:new 0 0 651 577;" xml:space="preserve">
<style type="text/css">
	.st0{fill:#223249;}
</style>
<g>
	<g>
		<path class="st0" d="M575.49,501.51h-500c-0.83,0-1.5-0.67-1.5-1.5v-400c0-0.83,0.67-1.5,1.5-1.5h500c0.83,0,1.5,0.67,1.5,1.5v400
			C576.99,500.83,576.32,501.51,575.49,501.51z M76.99,498.51h497v-397h-497V498.51z"/>
	</g>
	<g>
		<g>
			<path class="st0" d="M597.45,523.15h-1.5c-0.83,0-1.5-0.67-1.5-1.5s0.67-1.5,1.5-1.5c0-0.83,0.67-1.5,1.5-1.5s1.5,0.67,1.5,1.5
				v1.5C598.95,522.47,598.28,523.15,597.45,523.15z"/>
		</g>
		<g>
			<path class="st0" d="M588.9,523.15h-3.02c-0.83,0-1.5-0.67-1.5-1.5s0.67-1.5,1.5-1.5h3.02c0.83,0,1.5,0.67,1.5,1.5
				S589.73,523.15,588.9,523.15z M578.82,523.15h-3.02c-0.83,0-1.5-0.67-1.5-1.5s0.67-1.5,1.5-1.5h3.02c0.83,0,1.5,0.67,1.5,1.5
				S579.65,523.15,578.82,523.15z M568.75,523.15h-3.02c-0.83,0-1.5-0.67-1.5-1.5s0.67-1.5,1.5-1.5h3.02c0.83,0,1.5,0.67,1.5,1.5
				S569.58,523.15,568.75,523.15z M558.68,523.15h-3.02c-0.83,0-1.5-0.67-1.5-1.5s0.67-1.5,1.5-1.5h3.02c0.83,0,1.5,0.67,1.5,1.5
				S559.51,523.15,558.68,523.15z M548.61,523.15h-3.02c-0.83,0-1.5-0.67-1.5-1.5s0.67-1.5,1.5-1.5h3.02c0.83,0,1.5,0.67,1.5,1.5
				S549.43,523.15,548.61,523.15z M538.53,523.15h-3.02c-0.83,0-1.5-0.67-1.5-1.5s0.67-1.5,1.5-1.5h3.02c0.83,0,1.5,0.67,1.5,1.5
				S539.36,523.15,538.53,523.15z M528.46,523.15h-3.02c-0.83,0-1.5-0.67-1.5-1.5s0.67-1.5,1.5-1.5h3.02c0.83,0,1.5,0.67,1.5,1.5
				S529.29,523.15,528.46,523.15z M518.39,523.15h-3.02c-0.83,0-1.5-0.67-1.5-1.5s0.67-1.5,1.5-1.5h3.02c0.83,0,1.5,0.67,1.5,1.5
				S519.22,523.15,518.39,523.15z M508.31,523.15h-3.02c-0.83,0-1.5-0.67-1.5-1.5s0.67-1.5,1.5-1.5h3.02c0.83,0,1.5,0.67,1.5,1.5
				S509.14,523.15,508.31,523.15z M498.24,523.15h-3.02c-0.83,0-1.5-0.67-1.5-1.5s0.67-1.5,1.5-1.5h3.02c0.83,0,1.5,0.67,1.5,1.5
				S499.07,523.15,498.24,523.15z M488.17,523.15h-3.02c-0.83,0-1.5-0.67-1.5-1.5s0.67-1.5,1.5-1.5h3.02c0.83,0,1.5,0.67,1.5,1.5
				S489,523.15,488.17,523.15z M478.1,523.15h-3.02c-0.83,0-1.5-0.67-1.5-1.5s0.67-1.5,1.5-1.5h3.02c0.83,0,1.5,0.67,1.5,1.5
				S478.92,523.15,478.1,523.15z M468.02,523.15H465c-0.83,0-1.5-0.67-1.5-1.5s0.67-1.5,1.5-1.5h3.02c0.83,0,1.5,0.67,1.5,1.5
				S468.85,523.15,468.02,523.15z M457.95,523.15h-3.02c-0.83,0-1.5-0.67-1.5-1.5s0.67-1.5,1.5-1.5h3.02c0.83,0,1.5,0.67,1.5,1.5
				S458.78,523.15,457.95,523.15z M447.88,523.15h-3.02c-0.83,0-1.5-0.67-1.5-1.5s0.67-1.5,1.5-1.5h3.02c0.83,0,1.5,0.67,1.5,1.5
				S448.71,523.15,447.88,523.15z M437.8,523.15h-3.02c-0.83,0-1.5-0.67-1.5-1.5s0.67-1.5,1.5-1.5h3.02c0.83,0,1.5,0.67,1.5,1.5
				S438.63,523.15,437.8,523.15z M427.73,523.15h-3.02c-0.83,0-1.5-0.67-1.5-1.5s0.67-1.5,1.5-1.5h3.02c0.83,0,1.5,0.67,1.5,1.5
				S428.56,523.15,427.73,523.15z M417.66,523.15h-3.02c-0.83,0-1.5-0.67-1.5-1.5s0.67-1.5,1.5-1.5h3.02c0.83,0,1.5,0.67,1.5,1.5
				S418.49,523.15,417.66,523.15z M407.59,523.15h-3.02c-0.83,0-1.5-0.67-1.5-1.5s0.67-1.5,1.5-1.5h3.02c0.83,0,1.5,0.67,1.5,1.5
				S408.41,523.15,407.59,523.15z M397.51,523.15h-3.02c-0.83,0-1.5-0.67-1.5-1.5s0.67-1.5,1.5-1.5h3.02c0.83,0,1.5,0.67,1.5,1.5
				S398.34,523.15,397.51,523.15z M387.44,523.15h-3.02c-0.83,0-1.5-0.67-1.5-1.5s0.67-1.5,1.5-1.5h3.02c0.83,0,1.5,0.67,1.5,1.5
				S388.27,523.15,387.44,523.15z M377.37,523.15h-3.02c-0.83,0-1.5-0.67-1.5-1.5s0.67-1.5,1.5-1.5h3.02c0.83,0,1.5,0.67,1.5,1.5
				S378.19,523.15,377.37,523.15z M367.29,523.15h-3.02c-0.83,0-1.5-0.67-1.5-1.5s0.67-1.5,1.5-1.5h3.02c0.83,0,1.5,0.67,1.5,1.5
				S368.12,523.15,367.29,523.15z M357.22,523.15h-3.02c-0.83,0-1.5-0.67-1.5-1.5s0.67-1.5,1.5-1.5h3.02c0.83,0,1.5,0.67,1.5,1.5
				S358.05,523.15,357.22,523.15z M347.15,523.15h-3.02c-0.83,0-1.5-0.67-1.5-1.5s0.67-1.5,1.5-1.5h3.02c0.83,0,1.5,0.67,1.5,1.5
				S347.98,523.15,347.15,523.15z M337.08,523.15h-3.02c-0.83,0-1.5-0.67-1.5-1.5s0.67-1.5,1.5-1.5h3.02c0.83,0,1.5,0.67,1.5,1.5
				S337.9,523.15,337.08,523.15z M327,523.15h-3.02c-0.83,0-1.5-0.67-1.5-1.5s0.67-1.5,1.5-1.5H327c0.83,0,1.5,0.67,1.5,1.5
				S327.83,523.15,327,523.15z M316.93,523.15h-3.02c-0.83,0-1.5-0.67-1.5-1.5s0.67-1.5,1.5-1.5h3.02c0.83,0,1.5,0.67,1.5,1.5
				S317.76,523.15,316.93,523.15z M306.86,523.15h-3.02c-0.83,0-1.5-0.67-1.5-1.5s0.67-1.5,1.5-1.5h3.02c0.83,0,1.5,0.67,1.5,1.5
				S307.68,523.15,306.86,523.15z M296.78,523.15h-3.02c-0.83,0-1.5-0.67-1.5-1.5s0.67-1.5,1.5-1.5h3.02c0.83,0,1.5,0.67,1.5,1.5
				S297.61,523.15,296.78,523.15z M286.71,523.15h-3.02c-0.83,0-1.5-0.67-1.5-1.5s0.67-1.5,1.5-1.5h3.02c0.83,0,1.5,0.67,1.5,1.5
				S287.54,523.15,286.71,523.15z M276.64,523.15h-3.02c-0.83,0-1.5-0.67-1.5-1.5s0.67-1.5,1.5-1.5h3.02c0.83,0,1.5,0.67,1.5,1.5
				S277.47,523.15,276.64,523.15z M266.57,523.15h-3.02c-0.83,0-1.5-0.67-1.5-1.5s0.67-1.5,1.5-1.5h3.02c0.83,0,1.5,0.67,1.5,1.5
				S267.39,523.15,266.57,523.15z M256.49,523.15h-3.02c-0.83,0-1.5-0.67-1.5-1.5s0.67-1.5,1.5-1.5h3.02c0.83,0,1.5,0.67,1.5,1.5
				S257.32,523.15,256.49,523.15z M246.42,523.15h-3.02c-0.83,0-1.5-0.67-1.5-1.5s0.67-1.5,1.5-1.5h3.02c0.83,0,1.5,0.67,1.5,1.5
				S247.25,523.15,246.42,523.15z M236.35,523.15h-3.02c-0.83,0-1.5-0.67-1.5-1.5s0.67-1.5,1.5-1.5h3.02c0.83,0,1.5,0.67,1.5,1.5
				S237.18,523.15,236.35,523.15z M226.27,523.15h-3.02c-0.83,0-1.5-0.67-1.5-1.5s0.67-1.5,1.5-1.5h3.02c0.83,0,1.5,0.67,1.5,1.5
				S227.1,523.15,226.27,523.15z M216.2,523.15h-3.02c-0.83,0-1.5-0.67-1.5-1.5s0.67-1.5,1.5-1.5h3.02c0.83,0,1.5,0.67,1.5,1.5
				S217.03,523.15,216.2,523.15z M206.13,523.15h-3.02c-0.83,0-1.5-0.67-1.5-1.5s0.67-1.5,1.5-1.5h3.02c0.83,0,1.5,0.67,1.5,1.5
				S206.96,523.15,206.13,523.15z M196.06,523.15h-3.02c-0.83,0-1.5-0.67-1.5-1.5s0.67-1.5,1.5-1.5h3.02c0.83,0,1.5,0.67,1.5,1.5
				S196.88,523.15,196.06,523.15z M185.98,523.15h-3.02c-0.83,0-1.5-0.67-1.5-1.5s0.67-1.5,1.5-1.5h3.02c0.83,0,1.5,0.67,1.5,1.5
				S186.81,523.15,185.98,523.15z M175.91,523.15h-3.02c-0.83,0-1.5-0.67-1.5-1.5s0.67-1.5,1.5-1.5h3.02c0.83,0,1.5,0.67,1.5,1.5
				S176.74,523.15,175.91,523.15z M165.84,523.15h-3.02c-0.83,0-1.5-0.67-1.5-1.5s0.67-1.5,1.5-1.5h3.02c0.83,0,1.5,0.67,1.5,1.5
				S166.67,523.15,165.84,523.15z M155.76,523.15h-3.02c-0.83,0-1.5-0.67-1.5-1.5s0.67-1.5,1.5-1.5h3.02c0.83,0,1.5,0.67,1.5,1.5
				S156.59,523.15,155.76,523.15z M145.69,523.15h-3.02c-0.83,0-1.5-0.67-1.5-1.5s0.67-1.5,1.5-1.5h3.02c0.83,0,1.5,0.67,1.5,1.5
				S146.52,523.15,145.69,523.15z M135.62,523.15h-3.02c-0.83,0-1.5-0.67-1.5-1.5s0.67-1.5,1.5-1.5h3.02c0.83,0,1.5,0.67,1.5,1.5
				S136.45,523.15,135.62,523.15z M125.55,523.15h-3.02c-0.83,0-1.5-0.67-1.5-1.5s0.67-1.5,1.5-1.5h3.02c0.83,0,1.5,0.67,1.5,1.5
				S126.37,523.15,125.55,523.15z M115.47,523.15h-3.02c-0.83,0-1.5-0.67-1.5-1.5s0.67-1.5,1.5-1.5h3.02c0.83,0,1.5,0.67,1.5,1.5
				S116.3,523.15,115.47,523.15z M105.4,523.15h-3.02c-0.83,0-1.5-0.67-1.5-1.5s0.67-1.5,1.5-1.5h3.02c0.83,0,1.5,0.67,1.5,1.5
				S106.23,523.15,105.4,523.15z M95.33,523.15H92.3c-0.83,0-1.5-0.67-1.5-1.5s0.67-1.5,1.5-1.5h3.02c0.83,0,1.5,0.67,1.5,1.5
				S96.16,523.15,95.33,523.15z M85.25,523.15h-3.02c-0.83,0-1.5-0.67-1.5-1.5s0.67-1.5,1.5-1.5h3.02c0.83,0,1.5,0.67,1.5,1.5
				S86.08,523.15,85.25,523.15z M75.18,523.15h-3.02c-0.83,0-1.5-0.67-1.5-1.5s0.67-1.5,1.5-1.5h3.02c0.83,0,1.5,0.67,1.5,1.5
				S76.01,523.15,75.18,523.15z M65.11,523.15h-3.02c-0.83,0-1.5-0.67-1.5-1.5s0.67-1.5,1.5-1.5h3.02c0.83,0,1.5,0.67,1.5,1.5
				S65.94,523.15,65.11,523.15z"/>
		</g>
		<g>
			<path class="st0" d="M55.04,523.15h-1.5c-0.83,0-1.5-0.67-1.5-1.5v-1.5c0-0.83,0.67-1.5,1.5-1.5s1.5,0.67,1.5,1.5
				c0.83,0,1.5,0.67,1.5,1.5S55.86,523.15,55.04,523.15z"/>
		</g>
		<g>
			<path class="st0" d="M53.54,514.59c-0.83,0-1.5-0.67-1.5-1.5v-3.02c0-0.83,0.67-1.5,1.5-1.5s1.5,0.67,1.5,1.5v3.02
				C55.04,513.92,54.36,514.59,53.54,514.59z M53.54,504.52c-0.83,0-1.5-0.67-1.5-1.5V500c0-0.83,0.67-1.5,1.5-1.5s1.5,0.67,1.5,1.5
				v3.02C55.04,503.85,54.36,504.52,53.54,504.52z M53.54,494.44c-0.83,0-1.5-0.67-1.5-1.5v-3.02c0-0.83,0.67-1.5,1.5-1.5
				s1.5,0.67,1.5,1.5v3.02C55.04,493.77,54.36,494.44,53.54,494.44z M53.54,484.37c-0.83,0-1.5-0.67-1.5-1.5v-3.02
				c0-0.83,0.67-1.5,1.5-1.5s1.5,0.67,1.5,1.5v3.02C55.04,483.7,54.36,484.37,53.54,484.37z M53.54,474.29c-0.83,0-1.5-0.67-1.5-1.5
				v-3.02c0-0.83,0.67-1.5,1.5-1.5s1.5,0.67,1.5,1.5v3.02C55.04,473.62,54.36,474.29,53.54,474.29z M53.54,464.22
				c-0.83,0-1.5-0.67-1.5-1.5v-3.02c0-0.83,0.67-1.5,1.5-1.5s1.5,0.67,1.5,1.5v3.02C55.04,463.55,54.36,464.22,53.54,464.22z
				 M53.54,454.14c-0.83,0-1.5-0.67-1.5-1.5v-3.02c0-0.83,0.67-1.5,1.5-1.5s1.5,0.67,1.5,1.5v3.02
				C55.04,453.47,54.36,454.14,53.54,454.14z M53.54,444.07c-0.83,0-1.5-0.67-1.5-1.5v-3.02c0-0.83,0.67-1.5,1.5-1.5
				s1.5,0.67,1.5,1.5v3.02C55.04,443.4,54.36,444.07,53.54,444.07z M53.54,433.99c-0.83,0-1.5-0.67-1.5-1.5v-3.02
				c0-0.83,0.67-1.5,1.5-1.5s1.5,0.67,1.5,1.5v3.02C55.04,433.32,54.36,433.99,53.54,433.99z M53.54,423.92
				c-0.83,0-1.5-0.67-1.5-1.5v-3.02c0-0.83,0.67-1.5,1.5-1.5s1.5,0.67,1.5,1.5v3.02C55.04,423.25,54.36,423.92,53.54,423.92z
				 M53.54,413.84c-0.83,0-1.5-0.67-1.5-1.5v-3.02c0-0.83,0.67-1.5,1.5-1.5s1.5,0.67,1.5,1.5v3.02
				C55.04,413.17,54.36,413.84,53.54,413.84z M53.54,403.77c-0.83,0-1.5-0.67-1.5-1.5v-3.02c0-0.83,0.67-1.5,1.5-1.5
				s1.5,0.67,1.5,1.5v3.02C55.04,403.09,54.36,403.77,53.54,403.77z M53.54,393.69c-0.83,0-1.5-0.67-1.5-1.5v-3.02
				c0-0.83,0.67-1.5,1.5-1.5s1.5,0.67,1.5,1.5v3.02C55.04,393.02,54.36,393.69,53.54,393.69z M53.54,383.62
				c-0.83,0-1.5-0.67-1.5-1.5v-3.02c0-0.83,0.67-1.5,1.5-1.5s1.5,0.67,1.5,1.5v3.02C55.04,382.95,54.36,383.62,53.54,383.62z
				 M53.54,373.54c-0.83,0-1.5-0.67-1.5-1.5v-3.02c0-0.83,0.67-1.5,1.5-1.5s1.5,0.67,1.5,1.5v3.02
				C55.04,372.87,54.36,373.54,53.54,373.54z M53.54,363.47c-0.83,0-1.5-0.67-1.5-1.5v-3.02c0-0.83,0.67-1.5,1.5-1.5
				s1.5,0.67,1.5,1.5v3.02C55.04,362.79,54.36,363.47,53.54,363.47z M53.54,353.39c-0.83,0-1.5-0.67-1.5-1.5v-3.02
				c0-0.83,0.67-1.5,1.5-1.5s1.5,0.67,1.5,1.5v3.02C55.04,352.72,54.36,353.39,53.54,353.39z M53.54,343.32
				c-0.83,0-1.5-0.67-1.5-1.5v-3.02c0-0.83,0.67-1.5,1.5-1.5s1.5,0.67,1.5,1.5v3.02C55.04,342.65,54.36,343.32,53.54,343.32z
				 M53.54,333.24c-0.83,0-1.5-0.67-1.5-1.5v-3.02c0-0.83,0.67-1.5,1.5-1.5s1.5,0.67,1.5,1.5v3.02
				C55.04,332.57,54.36,333.24,53.54,333.24z M53.54,323.17c-0.83,0-1.5-0.67-1.5-1.5v-3.02c0-0.83,0.67-1.5,1.5-1.5
				s1.5,0.67,1.5,1.5v3.02C55.04,322.5,54.36,323.17,53.54,323.17z M53.54,313.09c-0.83,0-1.5-0.67-1.5-1.5v-3.02
				c0-0.83,0.67-1.5,1.5-1.5s1.5,0.67,1.5,1.5v3.02C55.04,312.42,54.36,313.09,53.54,313.09z M53.54,303.02
				c-0.83,0-1.5-0.67-1.5-1.5v-3.02c0-0.83,0.67-1.5,1.5-1.5s1.5,0.67,1.5,1.5v3.02C55.04,302.35,54.36,303.02,53.54,303.02z
				 M53.54,292.94c-0.83,0-1.5-0.67-1.5-1.5v-3.02c0-0.83,0.67-1.5,1.5-1.5s1.5,0.67,1.5,1.5v3.02
				C55.04,292.27,54.36,292.94,53.54,292.94z M53.54,282.87c-0.83,0-1.5-0.67-1.5-1.5v-3.02c0-0.83,0.67-1.5,1.5-1.5
				s1.5,0.67,1.5,1.5v3.02C55.04,282.19,54.36,282.87,53.54,282.87z M53.54,272.79c-0.83,0-1.5-0.67-1.5-1.5v-3.02
				c0-0.83,0.67-1.5,1.5-1.5s1.5,0.67,1.5,1.5v3.02C55.04,272.12,54.36,272.79,53.54,272.79z M53.54,262.72
				c-0.83,0-1.5-0.67-1.5-1.5v-3.02c0-0.83,0.67-1.5,1.5-1.5s1.5,0.67,1.5,1.5v3.02C55.04,262.04,54.36,262.72,53.54,262.72z
				 M53.54,252.64c-0.83,0-1.5-0.67-1.5-1.5v-3.02c0-0.83,0.67-1.5,1.5-1.5s1.5,0.67,1.5,1.5v3.02
				C55.04,251.97,54.36,252.64,53.54,252.64z M53.54,242.57c-0.83,0-1.5-0.67-1.5-1.5v-3.02c0-0.83,0.67-1.5,1.5-1.5
				s1.5,0.67,1.5,1.5v3.02C55.04,241.89,54.36,242.57,53.54,242.57z M53.54,232.49c-0.83,0-1.5-0.67-1.5-1.5v-3.02
				c0-0.83,0.67-1.5,1.5-1.5s1.5,0.67,1.5,1.5v3.02C55.04,231.82,54.36,232.49,53.54,232.49z M53.54,222.42
				c-0.83,0-1.5-0.67-1.5-1.5v-3.02c0-0.83,0.67-1.5,1.5-1.5s1.5,0.67,1.5,1.5v3.02C55.04,221.74,54.36,222.42,53.54,222.42z
				 M53.54,212.34c-0.83,0-1.5-0.67-1.5-1.5v-3.02c0-0.83,0.67-1.5,1.5-1.5s1.5,0.67,1.5,1.5v3.02
				C55.04,211.67,54.36,212.34,53.54,212.34z M53.54,202.27c-0.83,0-1.5-0.67-1.5-1.5v-3.02c0-0.83,0.67-1.5,1.5-1.5
				s1.5,0.67,1.5,1.5v3.02C55.04,201.59,54.36,202.27,53.54,202.27z M53.54,192.19c-0.83,0-1.5-0.67-1.5-1.5v-3.02
				c0-0.83,0.67-1.5,1.5-1.5s1.5,0.67,1.5,1.5v3.02C55.04,191.52,54.36,192.19,53.54,192.19z M53.54,182.12
				c-0.83,0-1.5-0.67-1.5-1.5v-3.02c0-0.83,0.67-1.5,1.5-1.5s1.5,0.67,1.5,1.5v3.02C55.04,181.44,54.36,182.12,53.54,182.12z
				 M53.54,172.04c-0.83,0-1.5-0.67-1.5-1.5v-3.02c0-0.83,0.67-1.5,1.5-1.5s1.5,0.67,1.5,1.5v3.02
				C55.04,171.37,54.36,172.04,53.54,172.04z M53.54,161.97c-0.83,0-1.5-0.67-1.5-1.5v-3.02c0-0.83,0.67-1.5,1.5-1.5
				s1.5,0.67,1.5,1.5v3.02C55.04,161.29,54.36,161.97,53.54,161.97z M53.54,151.89c-0.83,0-1.5-0.67-1.5-1.5v-3.02
				c0-0.83,0.67-1.5,1.5-1.5s1.5,0.67,1.5,1.5v3.02C55.04,151.22,54.36,151.89,53.54,151.89z M53.54,141.82
				c-0.83,0-1.5-0.67-1.5-1.5v-3.02c0-0.83,0.67-1.5,1.5-1.5s1.5,0.67,1.5,1.5v3.02C55.04,141.14,54.36,141.82,53.54,141.82z
				 M53.54,131.74c-0.83,0-1.5-0.67-1.5-1.5v-3.02c0-0.83,0.67-1.5,1.5-1.5s1.5,0.67,1.5,1.5v3.02
				C55.04,131.07,54.36,131.74,53.54,131.74z M53.54,121.66c-0.83,0-1.5-0.67-1.5-1.5v-3.02c0-0.83,0.67-1.5,1.5-1.5
				s1.5,0.67,1.5,1.5v3.02C55.04,120.99,54.36,121.66,53.54,121.66z M53.54,111.59c-0.83,0-1.5-0.67-1.5-1.5v-3.02
				c0-0.83,0.67-1.5,1.5-1.5s1.5,0.67,1.5,1.5v3.02C55.04,110.92,54.36,111.59,53.54,111.59z M53.54,101.52
				c-0.83,0-1.5-0.67-1.5-1.5v-3.02c0-0.83,0.67-1.5,1.5-1.5s1.5,0.67,1.5,1.5v3.02C55.04,100.84,54.36,101.52,53.54,101.52z
				 M53.54,91.44c-0.83,0-1.5-0.67-1.5-1.5v-3.02c0-0.83,0.67-1.5,1.5-1.5s1.5,0.67,1.5,1.5v3.02
				C55.04,90.77,54.36,91.44,53.54,91.44z"/>
		</g>
		<g>
			<path class="st0" d="M53.54,81.37c-0.83,0-1.5-0.67-1.5-1.5v-1.5c0-0.83,0.67-1.5,1.5-1.5h1.5c0.83,0,1.5,0.67,1.5,1.5
				s-0.67,1.5-1.5,1.5C55.04,80.69,54.36,81.37,53.54,81.37z"/>
		</g>
		<g>
			<path class="st0" d="M588.9,79.87h-3.02c-0.83,0-1.5-0.67-1.5-1.5s0.67-1.5,1.5-1.5h3.02c0.83,0,1.5,0.67,1.5,1.5
				S589.73,79.87,588.9,79.87z M578.82,79.87h-3.02c-0.83,0-1.5-0.67-1.5-1.5s0.67-1.5,1.5-1.5h3.02c0.83,0,1.5,0.67,1.5,1.5
				S579.65,79.87,578.82,79.87z M568.75,79.87h-3.02c-0.83,0-1.5-0.67-1.5-1.5s0.67-1.5,1.5-1.5h3.02c0.83,0,1.5,0.67,1.5,1.5
				S569.58,79.87,568.75,79.87z M558.68,79.87h-3.02c-0.83,0-1.5-0.67-1.5-1.5s0.67-1.5,1.5-1.5h3.02c0.83,0,1.5,0.67,1.5,1.5
				S559.51,79.87,558.68,79.87z M548.6,79.87h-3.02c-0.83,0-1.5-0.67-1.5-1.5s0.67-1.5,1.5-1.5h3.02c0.83,0,1.5,0.67,1.5,1.5
				S549.43,79.87,548.6,79.87z M538.53,79.87h-3.02c-0.83,0-1.5-0.67-1.5-1.5s0.67-1.5,1.5-1.5h3.02c0.83,0,1.5,0.67,1.5,1.5
				S539.36,79.87,538.53,79.87z M528.46,79.87h-3.02c-0.83,0-1.5-0.67-1.5-1.5s0.67-1.5,1.5-1.5h3.02c0.83,0,1.5,0.67,1.5,1.5
				S529.29,79.87,528.46,79.87z M518.39,79.87h-3.02c-0.83,0-1.5-0.67-1.5-1.5s0.67-1.5,1.5-1.5h3.02c0.83,0,1.5,0.67,1.5,1.5
				S519.21,79.87,518.39,79.87z M508.31,79.87h-3.02c-0.83,0-1.5-0.67-1.5-1.5s0.67-1.5,1.5-1.5h3.02c0.83,0,1.5,0.67,1.5,1.5
				S509.14,79.87,508.31,79.87z M498.24,79.87h-3.02c-0.83,0-1.5-0.67-1.5-1.5s0.67-1.5,1.5-1.5h3.02c0.83,0,1.5,0.67,1.5,1.5
				S499.07,79.87,498.24,79.87z M488.17,79.87h-3.02c-0.83,0-1.5-0.67-1.5-1.5s0.67-1.5,1.5-1.5h3.02c0.83,0,1.5,0.67,1.5,1.5
				S489,79.87,488.17,79.87z M478.1,79.87h-3.02c-0.83,0-1.5-0.67-1.5-1.5s0.67-1.5,1.5-1.5h3.02c0.83,0,1.5,0.67,1.5,1.5
				S478.92,79.87,478.1,79.87z M468.02,79.87H465c-0.83,0-1.5-0.67-1.5-1.5s0.67-1.5,1.5-1.5h3.02c0.83,0,1.5,0.67,1.5,1.5
				S468.85,79.87,468.02,79.87z M457.95,79.87h-3.02c-0.83,0-1.5-0.67-1.5-1.5s0.67-1.5,1.5-1.5h3.02c0.83,0,1.5,0.67,1.5,1.5
				S458.78,79.87,457.95,79.87z M447.88,79.87h-3.02c-0.83,0-1.5-0.67-1.5-1.5s0.67-1.5,1.5-1.5h3.02c0.83,0,1.5,0.67,1.5,1.5
				S448.7,79.87,447.88,79.87z M437.8,79.87h-3.02c-0.83,0-1.5-0.67-1.5-1.5s0.67-1.5,1.5-1.5h3.02c0.83,0,1.5,0.67,1.5,1.5
				S438.63,79.87,437.8,79.87z M427.73,79.87h-3.02c-0.83,0-1.5-0.67-1.5-1.5s0.67-1.5,1.5-1.5h3.02c0.83,0,1.5,0.67,1.5,1.5
				S428.56,79.87,427.73,79.87z M417.66,79.87h-3.02c-0.83,0-1.5-0.67-1.5-1.5s0.67-1.5,1.5-1.5h3.02c0.83,0,1.5,0.67,1.5,1.5
				S418.49,79.87,417.66,79.87z M407.59,79.87h-3.02c-0.83,0-1.5-0.67-1.5-1.5s0.67-1.5,1.5-1.5h3.02c0.83,0,1.5,0.67,1.5,1.5
				S408.41,79.87,407.59,79.87z M397.51,79.87h-3.02c-0.83,0-1.5-0.67-1.5-1.5s0.67-1.5,1.5-1.5h3.02c0.83,0,1.5,0.67,1.5,1.5
				S398.34,79.87,397.51,79.87z M387.44,79.87h-3.02c-0.83,0-1.5-0.67-1.5-1.5s0.67-1.5,1.5-1.5h3.02c0.83,0,1.5,0.67,1.5,1.5
				S388.27,79.87,387.44,79.87z M377.37,79.87h-3.02c-0.83,0-1.5-0.67-1.5-1.5s0.67-1.5,1.5-1.5h3.02c0.83,0,1.5,0.67,1.5,1.5
				S378.19,79.87,377.37,79.87z M367.29,79.87h-3.02c-0.83,0-1.5-0.67-1.5-1.5s0.67-1.5,1.5-1.5h3.02c0.83,0,1.5,0.67,1.5,1.5
				S368.12,79.87,367.29,79.87z M357.22,79.87h-3.02c-0.83,0-1.5-0.67-1.5-1.5s0.67-1.5,1.5-1.5h3.02c0.83,0,1.5,0.67,1.5,1.5
				S358.05,79.87,357.22,79.87z M347.15,79.87h-3.02c-0.83,0-1.5-0.67-1.5-1.5s0.67-1.5,1.5-1.5h3.02c0.83,0,1.5,0.67,1.5,1.5
				S347.98,79.87,347.15,79.87z M337.07,79.87h-3.02c-0.83,0-1.5-0.67-1.5-1.5s0.67-1.5,1.5-1.5h3.02c0.83,0,1.5,0.67,1.5,1.5
				S337.9,79.87,337.07,79.87z M327,79.87h-3.02c-0.83,0-1.5-0.67-1.5-1.5s0.67-1.5,1.5-1.5H327c0.83,0,1.5,0.67,1.5,1.5
				S327.83,79.87,327,79.87z M316.93,79.87h-3.02c-0.83,0-1.5-0.67-1.5-1.5s0.67-1.5,1.5-1.5h3.02c0.83,0,1.5,0.67,1.5,1.5
				S317.76,79.87,316.93,79.87z M306.86,79.87h-3.02c-0.83,0-1.5-0.67-1.5-1.5s0.67-1.5,1.5-1.5h3.02c0.83,0,1.5,0.67,1.5,1.5
				S307.68,79.87,306.86,79.87z M296.78,79.87h-3.02c-0.83,0-1.5-0.67-1.5-1.5s0.67-1.5,1.5-1.5h3.02c0.83,0,1.5,0.67,1.5,1.5
				S297.61,79.87,296.78,79.87z M286.71,79.87h-3.02c-0.83,0-1.5-0.67-1.5-1.5s0.67-1.5,1.5-1.5h3.02c0.83,0,1.5,0.67,1.5,1.5
				S287.54,79.87,286.71,79.87z M276.64,79.87h-3.02c-0.83,0-1.5-0.67-1.5-1.5s0.67-1.5,1.5-1.5h3.02c0.83,0,1.5,0.67,1.5,1.5
				S277.47,79.87,276.64,79.87z M266.56,79.87h-3.02c-0.83,0-1.5-0.67-1.5-1.5s0.67-1.5,1.5-1.5h3.02c0.83,0,1.5,0.67,1.5,1.5
				S267.39,79.87,266.56,79.87z M256.49,79.87h-3.02c-0.83,0-1.5-0.67-1.5-1.5s0.67-1.5,1.5-1.5h3.02c0.83,0,1.5,0.67,1.5,1.5
				S257.32,79.87,256.49,79.87z M246.42,79.87h-3.02c-0.83,0-1.5-0.67-1.5-1.5s0.67-1.5,1.5-1.5h3.02c0.83,0,1.5,0.67,1.5,1.5
				S247.25,79.87,246.42,79.87z M236.35,79.87h-3.02c-0.83,0-1.5-0.67-1.5-1.5s0.67-1.5,1.5-1.5h3.02c0.83,0,1.5,0.67,1.5,1.5
				S237.17,79.87,236.35,79.87z M226.27,79.87h-3.02c-0.83,0-1.5-0.67-1.5-1.5s0.67-1.5,1.5-1.5h3.02c0.83,0,1.5,0.67,1.5,1.5
				S227.1,79.87,226.27,79.87z M216.2,79.87h-3.02c-0.83,0-1.5-0.67-1.5-1.5s0.67-1.5,1.5-1.5h3.02c0.83,0,1.5,0.67,1.5,1.5
				S217.03,79.87,216.2,79.87z M206.13,79.87h-3.02c-0.83,0-1.5-0.67-1.5-1.5s0.67-1.5,1.5-1.5h3.02c0.83,0,1.5,0.67,1.5,1.5
				S206.96,79.87,206.13,79.87z M196.06,79.87h-3.02c-0.83,0-1.5-0.67-1.5-1.5s0.67-1.5,1.5-1.5h3.02c0.83,0,1.5,0.67,1.5,1.5
				S196.88,79.87,196.06,79.87z M185.98,79.87h-3.02c-0.83,0-1.5-0.67-1.5-1.5s0.67-1.5,1.5-1.5h3.02c0.83,0,1.5,0.67,1.5,1.5
				S186.81,79.87,185.98,79.87z M175.91,79.87h-3.02c-0.83,0-1.5-0.67-1.5-1.5s0.67-1.5,1.5-1.5h3.02c0.83,0,1.5,0.67,1.5,1.5
				S176.74,79.87,175.91,79.87z M165.84,79.87h-3.02c-0.83,0-1.5-0.67-1.5-1.5s0.67-1.5,1.5-1.5h3.02c0.83,0,1.5,0.67,1.5,1.5
				S166.66,79.87,165.84,79.87z M155.76,79.87h-3.02c-0.83,0-1.5-0.67-1.5-1.5s0.67-1.5,1.5-1.5h3.02c0.83,0,1.5,0.67,1.5,1.5
				S156.59,79.87,155.76,79.87z M145.69,79.87h-3.02c-0.83,0-1.5-0.67-1.5-1.5s0.67-1.5,1.5-1.5h3.02c0.83,0,1.5,0.67,1.5,1.5
				S146.52,79.87,145.69,79.87z M135.62,79.87h-3.02c-0.83,0-1.5-0.67-1.5-1.5s0.67-1.5,1.5-1.5h3.02c0.83,0,1.5,0.67,1.5,1.5
				S136.45,79.87,135.62,79.87z M125.54,79.87h-3.02c-0.83,0-1.5-0.67-1.5-1.5s0.67-1.5,1.5-1.5h3.02c0.83,0,1.5,0.67,1.5,1.5
				S126.37,79.87,125.54,79.87z M115.47,79.87h-3.02c-0.83,0-1.5-0.67-1.5-1.5s0.67-1.5,1.5-1.5h3.02c0.83,0,1.5,0.67,1.5,1.5
				S116.3,79.87,115.47,79.87z M105.4,79.87h-3.02c-0.83,0-1.5-0.67-1.5-1.5s0.67-1.5,1.5-1.5h3.02c0.83,0,1.5,0.67,1.5,1.5
				S106.23,79.87,105.4,79.87z M95.33,79.87H92.3c-0.83,0-1.5-0.67-1.5-1.5s0.67-1.5,1.5-1.5h3.02c0.83,0,1.5,0.67,1.5,1.5
				S96.15,79.87,95.33,79.87z M85.25,79.87h-3.02c-0.83,0-1.5-0.67-1.5-1.5s0.67-1.5,1.5-1.5h3.02c0.83,0,1.5,0.67,1.5,1.5
				S86.08,79.87,85.25,79.87z M75.18,79.87h-3.02c-0.83,0-1.5-0.67-1.5-1.5s0.67-1.5,1.5-1.5h3.02c0.83,0,1.5,0.67,1.5,1.5
				S76.01,79.87,75.18,79.87z M65.11,79.87h-3.02c-0.83,0-1.5-0.67-1.5-1.5s0.67-1.5,1.5-1.5h3.02c0.83,0,1.5,0.67,1.5,1.5
				S65.94,79.87,65.11,79.87z"/>
		</g>
		<g>
			<path class="st0" d="M597.45,81.37c-0.83,0-1.5-0.67-1.5-1.5c-0.83,0-1.5-0.67-1.5-1.5s0.67-1.5,1.5-1.5h1.5
				c0.83,0,1.5,0.67,1.5,1.5v1.5C598.95,80.69,598.28,81.37,597.45,81.37z"/>
		</g>
		<g>
			<path class="st0" d="M597.45,514.59c-0.83,0-1.5-0.67-1.5-1.5v-3.02c0-0.83,0.67-1.5,1.5-1.5s1.5,0.67,1.5,1.5v3.02
				C598.95,513.92,598.28,514.59,597.45,514.59z M597.45,504.52c-0.83,0-1.5-0.67-1.5-1.5V500c0-0.83,0.67-1.5,1.5-1.5
				s1.5,0.67,1.5,1.5v3.02C598.95,503.85,598.28,504.52,597.45,504.52z M597.45,494.44c-0.83,0-1.5-0.67-1.5-1.5v-3.02
				c0-0.83,0.67-1.5,1.5-1.5s1.5,0.67,1.5,1.5v3.02C598.95,493.77,598.28,494.44,597.45,494.44z M597.45,484.37
				c-0.83,0-1.5-0.67-1.5-1.5v-3.02c0-0.83,0.67-1.5,1.5-1.5s1.5,0.67,1.5,1.5v3.02C598.95,483.7,598.28,484.37,597.45,484.37z
				 M597.45,474.29c-0.83,0-1.5-0.67-1.5-1.5v-3.02c0-0.83,0.67-1.5,1.5-1.5s1.5,0.67,1.5,1.5v3.02
				C598.95,473.62,598.28,474.29,597.45,474.29z M597.45,464.22c-0.83,0-1.5-0.67-1.5-1.5v-3.02c0-0.83,0.67-1.5,1.5-1.5
				s1.5,0.67,1.5,1.5v3.02C598.95,463.55,598.28,464.22,597.45,464.22z M597.45,454.14c-0.83,0-1.5-0.67-1.5-1.5v-3.02
				c0-0.83,0.67-1.5,1.5-1.5s1.5,0.67,1.5,1.5v3.02C598.95,453.47,598.28,454.14,597.45,454.14z M597.45,444.07
				c-0.83,0-1.5-0.67-1.5-1.5v-3.02c0-0.83,0.67-1.5,1.5-1.5s1.5,0.67,1.5,1.5v3.02C598.95,443.4,598.28,444.07,597.45,444.07z
				 M597.45,433.99c-0.83,0-1.5-0.67-1.5-1.5v-3.02c0-0.83,0.67-1.5,1.5-1.5s1.5,0.67,1.5,1.5v3.02
				C598.95,433.32,598.28,433.99,597.45,433.99z M597.45,423.92c-0.83,0-1.5-0.67-1.5-1.5v-3.02c0-0.83,0.67-1.5,1.5-1.5
				s1.5,0.67,1.5,1.5v3.02C598.95,423.25,598.28,423.92,597.45,423.92z M597.45,413.84c-0.83,0-1.5-0.67-1.5-1.5v-3.02
				c0-0.83,0.67-1.5,1.5-1.5s1.5,0.67,1.5,1.5v3.02C598.95,413.17,598.28,413.84,597.45,413.84z M597.45,403.77
				c-0.83,0-1.5-0.67-1.5-1.5v-3.02c0-0.83,0.67-1.5,1.5-1.5s1.5,0.67,1.5,1.5v3.02C598.95,403.1,598.28,403.77,597.45,403.77z
				 M597.45,393.69c-0.83,0-1.5-0.67-1.5-1.5v-3.02c0-0.83,0.67-1.5,1.5-1.5s1.5,0.67,1.5,1.5v3.02
				C598.95,393.02,598.28,393.69,597.45,393.69z M597.45,383.62c-0.83,0-1.5-0.67-1.5-1.5v-3.02c0-0.83,0.67-1.5,1.5-1.5
				s1.5,0.67,1.5,1.5v3.02C598.95,382.95,598.28,383.62,597.45,383.62z M597.45,373.54c-0.83,0-1.5-0.67-1.5-1.5v-3.02
				c0-0.83,0.67-1.5,1.5-1.5s1.5,0.67,1.5,1.5v3.02C598.95,372.87,598.28,373.54,597.45,373.54z M597.45,363.47
				c-0.83,0-1.5-0.67-1.5-1.5v-3.02c0-0.83,0.67-1.5,1.5-1.5s1.5,0.67,1.5,1.5v3.02C598.95,362.8,598.28,363.47,597.45,363.47z
				 M597.45,353.39c-0.83,0-1.5-0.67-1.5-1.5v-3.02c0-0.83,0.67-1.5,1.5-1.5s1.5,0.67,1.5,1.5v3.02
				C598.95,352.72,598.28,353.39,597.45,353.39z M597.45,343.32c-0.83,0-1.5-0.67-1.5-1.5v-3.02c0-0.83,0.67-1.5,1.5-1.5
				s1.5,0.67,1.5,1.5v3.02C598.95,342.65,598.28,343.32,597.45,343.32z M597.45,333.24c-0.83,0-1.5-0.67-1.5-1.5v-3.02
				c0-0.83,0.67-1.5,1.5-1.5s1.5,0.67,1.5,1.5v3.02C598.95,332.57,598.28,333.24,597.45,333.24z M597.45,323.17
				c-0.83,0-1.5-0.67-1.5-1.5v-3.02c0-0.83,0.67-1.5,1.5-1.5s1.5,0.67,1.5,1.5v3.02C598.95,322.5,598.28,323.17,597.45,323.17z
				 M597.45,313.09c-0.83,0-1.5-0.67-1.5-1.5v-3.02c0-0.83,0.67-1.5,1.5-1.5s1.5,0.67,1.5,1.5v3.02
				C598.95,312.42,598.28,313.09,597.45,313.09z M597.45,303.02c-0.83,0-1.5-0.67-1.5-1.5v-3.02c0-0.83,0.67-1.5,1.5-1.5
				s1.5,0.67,1.5,1.5v3.02C598.95,302.35,598.28,303.02,597.45,303.02z M597.45,292.94c-0.83,0-1.5-0.67-1.5-1.5v-3.02
				c0-0.83,0.67-1.5,1.5-1.5s1.5,0.67,1.5,1.5v3.02C598.95,292.27,598.28,292.94,597.45,292.94z M597.45,282.87
				c-0.83,0-1.5-0.67-1.5-1.5v-3.02c0-0.83,0.67-1.5,1.5-1.5s1.5,0.67,1.5,1.5v3.02C598.95,282.2,598.28,282.87,597.45,282.87z
				 M597.45,272.79c-0.83,0-1.5-0.67-1.5-1.5v-3.02c0-0.83,0.67-1.5,1.5-1.5s1.5,0.67,1.5,1.5v3.02
				C598.95,272.12,598.28,272.79,597.45,272.79z M597.45,262.72c-0.83,0-1.5-0.67-1.5-1.5v-3.02c0-0.83,0.67-1.5,1.5-1.5
				s1.5,0.67,1.5,1.5v3.02C598.95,262.05,598.28,262.72,597.45,262.72z M597.45,252.64c-0.83,0-1.5-0.67-1.5-1.5v-3.02
				c0-0.83,0.67-1.5,1.5-1.5s1.5,0.67,1.5,1.5v3.02C598.95,251.97,598.28,252.64,597.45,252.64z M597.45,242.57
				c-0.83,0-1.5-0.67-1.5-1.5v-3.02c0-0.83,0.67-1.5,1.5-1.5s1.5,0.67,1.5,1.5v3.02C598.95,241.89,598.28,242.57,597.45,242.57z
				 M597.45,232.49c-0.83,0-1.5-0.67-1.5-1.5v-3.02c0-0.83,0.67-1.5,1.5-1.5s1.5,0.67,1.5,1.5v3.02
				C598.95,231.82,598.28,232.49,597.45,232.49z M597.45,222.42c-0.83,0-1.5-0.67-1.5-1.5v-3.02c0-0.83,0.67-1.5,1.5-1.5
				s1.5,0.67,1.5,1.5v3.02C598.95,221.75,598.28,222.42,597.45,222.42z M597.45,212.34c-0.83,0-1.5-0.67-1.5-1.5v-3.02
				c0-0.83,0.67-1.5,1.5-1.5s1.5,0.67,1.5,1.5v3.02C598.95,211.67,598.28,212.34,597.45,212.34z M597.45,202.27
				c-0.83,0-1.5-0.67-1.5-1.5v-3.02c0-0.83,0.67-1.5,1.5-1.5s1.5,0.67,1.5,1.5v3.02C598.95,201.59,598.28,202.27,597.45,202.27z
				 M597.45,192.19c-0.83,0-1.5-0.67-1.5-1.5v-3.02c0-0.83,0.67-1.5,1.5-1.5s1.5,0.67,1.5,1.5v3.02
				C598.95,191.52,598.28,192.19,597.45,192.19z M597.45,182.12c-0.83,0-1.5-0.67-1.5-1.5v-3.02c0-0.83,0.67-1.5,1.5-1.5
				s1.5,0.67,1.5,1.5v3.02C598.95,181.44,598.28,182.12,597.45,182.12z M597.45,172.04c-0.83,0-1.5-0.67-1.5-1.5v-3.02
				c0-0.83,0.67-1.5,1.5-1.5s1.5,0.67,1.5,1.5v3.02C598.95,171.37,598.28,172.04,597.45,172.04z M597.45,161.97
				c-0.83,0-1.5-0.67-1.5-1.5v-3.02c0-0.83,0.67-1.5,1.5-1.5s1.5,0.67,1.5,1.5v3.02C598.95,161.29,598.28,161.97,597.45,161.97z
				 M597.45,151.89c-0.83,0-1.5-0.67-1.5-1.5v-3.02c0-0.83,0.67-1.5,1.5-1.5s1.5,0.67,1.5,1.5v3.02
				C598.95,151.22,598.28,151.89,597.45,151.89z M597.45,141.82c-0.83,0-1.5-0.67-1.5-1.5v-3.02c0-0.83,0.67-1.5,1.5-1.5
				s1.5,0.67,1.5,1.5v3.02C598.95,141.14,598.28,141.82,597.45,141.82z M597.45,131.74c-0.83,0-1.5-0.67-1.5-1.5v-3.02
				c0-0.83,0.67-1.5,1.5-1.5s1.5,0.67,1.5,1.5v3.02C598.95,131.07,598.28,131.74,597.45,131.74z M597.45,121.67
				c-0.83,0-1.5-0.67-1.5-1.5v-3.02c0-0.83,0.67-1.5,1.5-1.5s1.5,0.67,1.5,1.5v3.02C598.95,120.99,598.28,121.67,597.45,121.67z
				 M597.45,111.59c-0.83,0-1.5-0.67-1.5-1.5v-3.02c0-0.83,0.67-1.5,1.5-1.5s1.5,0.67,1.5,1.5v3.02
				C598.95,110.92,598.28,111.59,597.45,111.59z M597.45,101.52c-0.83,0-1.5-0.67-1.5-1.5v-3.02c0-0.83,0.67-1.5,1.5-1.5
				s1.5,0.67,1.5,1.5v3.02C598.95,100.84,598.28,101.52,597.45,101.52z M597.45,91.44c-0.83,0-1.5-0.67-1.5-1.5v-3.02
				c0-0.83,0.67-1.5,1.5-1.5s1.5,0.67,1.5,1.5v3.02C598.95,90.77,598.28,91.44,597.45,91.44z"/>
		</g>
	</g>
	<g>
		<path class="st0" d="M608.99,525.89c-0.83,0-1.5-0.67-1.5-1.5V76.77c0-0.83,0.67-1.5,1.5-1.5s1.5,0.67,1.5,1.5v447.63
			C610.49,525.22,609.82,525.89,608.99,525.89z"/>
	</g>
	<g>
		<path class="st0" d="M600.71,534.01H50.39c-0.83,0-1.5-0.67-1.5-1.5s0.67-1.5,1.5-1.5h550.32c0.83,0,1.5,0.67,1.5,1.5
			S601.54,534.01,600.71,534.01z"/>
	</g>
	<g>
		<path class="st0" d="M41.99,526.45c-0.83,0-1.5-0.67-1.5-1.5c0-116.7,0-393.98,0.02-448.19c0-0.83,0.67-1.5,1.5-1.5h0
			c0.83,0,1.5,0.67,1.5,1.5c-0.02,54.21-0.02,331.49-0.02,448.19C43.49,525.78,42.82,526.45,41.99,526.45z"/>
	</g>
	<g>
		<path class="st0" d="M600.99,69.01H50.11c-0.83,0-1.5-0.67-1.5-1.5s0.67-1.5,1.5-1.5h550.88c0.83,0,1.5,0.67,1.5,1.5
			S601.82,69.01,600.99,69.01z"/>
	</g>
	<g>
		<path class="st0" d="M276.1,575.92c-10.42,0-21.93-1-33.98-3.71c-6.57-1.48-13.23-3.41-19.67-5.28
			c-13.54-3.93-27.54-7.99-41.61-8.08c-10.66-0.06-21.34,1.7-31.68,3.41c-3.96,0.66-8.05,1.33-12.09,1.9
			c-9.72,1.36-19.35,1.27-28.67,1.17c-5.1-0.05-10.38-0.11-15.63,0.08c-11.3,0.4-26.11,1.37-40.45,5.32
			c-0.68,0.19-1.4,0.39-2.15,0.6c-10.8,3.03-28.87,8.1-38.55-0.16c-9.35-7.97-7.13-22.96-4.99-37.46
			c1.47-9.96,2.99-20.26,0.36-27.15c-8.65-22.69-3.46-42.79,1.56-62.22c3.2-12.39,6.5-25.21,6.42-38.9
			c-0.1-15.75-3.3-31.43-6.4-46.59c-2.07-10.14-4.21-20.63-5.43-31.1c-2.67-23.05-1.56-49.41,3.14-74.22
			c0.76-3.99,1.58-8.04,2.37-11.95c3.05-15.06,6.21-30.62,6.31-46.22c0.08-13.69-3.22-26.5-6.42-38.9
			c-2.51-9.73-5.11-19.78-5.94-29.99c-0.94-11.49,0.5-22.03,4.38-32.24c2.63-6.89,1.11-17.19-0.36-27.15
			C4.48,52.6,2.27,37.6,11.62,29.64c9.68-8.25,27.75-3.18,38.55-0.16c0.75,0.21,1.47,0.41,2.15,0.6
			c14.34,3.95,29.15,4.92,40.45,5.32c5.25,0.19,10.53,0.13,15.63,0.08c9.31-0.1,18.94-0.19,28.67,1.17
			c4.04,0.57,8.14,1.24,12.09,1.9c10.34,1.71,21.02,3.49,31.67,3.41c14.07-0.09,28.07-4.16,41.61-8.09
			c6.44-1.87,13.1-3.8,19.67-5.28c14.87-3.34,30.39-4.45,46.13-3.3c0.83,0.06,1.45,0.78,1.39,1.6c-0.06,0.83-0.79,1.44-1.61,1.39
			c-15.45-1.13-30.67-0.04-45.25,3.24c-6.48,1.46-13.1,3.37-19.49,5.23c-13.74,3.99-27.94,8.11-42.43,8.2
			c-10.88,0.07-21.72-1.72-32.18-3.45c-3.94-0.65-8.01-1.33-12.02-1.89c-9.5-1.33-19.02-1.24-28.22-1.14
			c-5.14,0.05-10.45,0.11-15.77-0.08C81.2,37.99,66.16,37,51.52,32.97c-0.69-0.19-1.41-0.39-2.16-0.6
			c-10.22-2.87-27.33-7.67-35.8-0.45c-8.08,6.89-5.99,21.05-3.97,34.74c1.6,10.82,3.1,21.03,0.2,28.66
			c-8.31,21.8-3.47,40.55,1.66,60.41c3.25,12.58,6.6,25.58,6.51,39.66c-0.1,15.88-3.29,31.6-6.37,46.79
			c-0.79,3.91-1.61,7.95-2.36,11.92c-4.64,24.52-5.75,50.55-3.11,73.31c1.2,10.34,3.33,20.77,5.39,30.85
			c3.13,15.31,6.36,31.13,6.46,47.17c0.09,14.08-3.27,27.09-6.51,39.66c-5.12,19.86-9.96,38.61-1.66,60.41
			c2.91,7.62,1.4,17.84-0.2,28.65c-2.02,13.69-4.11,27.85,3.97,34.74c8.46,7.22,25.57,2.42,35.8-0.45c0.75-0.21,1.48-0.41,2.16-0.6
			c14.64-4.03,29.68-5.02,41.14-5.42c5.32-0.19,10.63-0.13,15.77-0.08c9.21,0.09,18.72,0.19,28.22-1.14
			c4.01-0.56,8.08-1.24,12.02-1.89c10.46-1.73,21.28-3.52,32.19-3.45c14.48,0.09,28.69,4.22,42.43,8.2
			c6.4,1.86,13.01,3.78,19.5,5.23c44.77,10.05,81.81-3.91,82.18-4.05c0.35-0.13,0.73-0.13,1.08,0c0.37,0.14,37.4,14.1,82.18,4.05
			c6.48-1.46,13.1-3.38,19.49-5.23c13.74-3.99,27.94-8.11,42.43-8.2c10.89-0.06,21.72,1.72,32.19,3.45
			c3.94,0.65,8.01,1.33,12.02,1.89c9.5,1.33,19.02,1.24,28.22,1.14c5.14-0.05,10.45-0.11,15.77,0.08
			c11.46,0.41,26.5,1.39,41.14,5.42c0.69,0.19,1.41,0.39,2.16,0.6c10.22,2.87,27.33,7.67,35.8,0.45c8.08-6.89,5.99-21.05,3.97-34.74
			c-1.6-10.81-3.1-21.03-0.2-28.65c8.31-21.8,3.47-40.55-1.66-60.41c-3.25-12.58-6.6-25.58-6.51-39.66
			c0.1-15.89,3.29-31.61,6.38-46.8c0.89-4.38,1.81-8.91,2.64-13.36c4.48-24.06,5.46-49.79,2.76-72.44
			c-1.21-10.15-3.3-20.39-5.32-30.28c-3.12-15.3-6.35-31.12-6.45-47.15c-0.09-14.08,3.27-27.09,6.51-39.66
			c5.12-19.86,9.96-38.61,1.66-60.41c-2.91-7.62-1.4-17.84,0.2-28.66c2.02-13.69,4.11-27.85-3.97-34.74
			c-8.47-7.22-25.58-2.42-35.8,0.45c-0.75,0.21-1.48,0.41-2.16,0.6c-14.64,4.03-29.68,5.02-41.14,5.42
			c-5.32,0.19-10.63,0.13-15.77,0.08c-9.2-0.09-18.72-0.19-28.22,1.14c-4.01,0.56-8.08,1.24-12.02,1.89
			c-10.46,1.73-21.3,3.53-32.18,3.45c-14.48-0.1-28.69-4.22-42.43-8.2c-6.4-1.86-13.01-3.78-19.49-5.23
			c-14.79-3.32-30.24-4.39-45.92-3.19c-0.81,0.07-1.55-0.55-1.61-1.38s0.55-1.55,1.38-1.61c15.97-1.23,31.72-0.14,46.81,3.25
			c6.57,1.48,13.23,3.41,19.67,5.28c13.54,3.93,27.54,7.99,41.61,8.09c10.64,0.09,21.34-1.7,31.67-3.41
			c3.96-0.65,8.05-1.33,12.09-1.9c9.72-1.36,19.35-1.27,28.67-1.17c5.1,0.05,10.38,0.1,15.63-0.08c11.3-0.4,26.11-1.37,40.45-5.32
			c0.68-0.19,1.4-0.39,2.15-0.6c10.8-3.03,28.87-8.1,38.55,0.16c9.35,7.97,7.13,22.96,4.99,37.46c-1.47,9.96-2.99,20.26-0.36,27.15
			c8.65,22.69,3.46,42.79-1.55,62.22c-3.2,12.39-6.5,25.2-6.42,38.9c0.1,15.74,3.3,31.42,6.39,46.57
			c2.03,9.96,4.14,20.25,5.36,30.53c2.73,22.94,1.74,48.99-2.79,73.34c-0.83,4.48-1.75,9.02-2.65,13.41
			c-3.06,15.06-6.22,30.63-6.31,46.23c-0.08,13.69,3.22,26.5,6.42,38.9c2.51,9.73,5.11,19.78,5.94,29.99
			c0.94,11.49-0.5,22.03-4.38,32.24c-2.63,6.89-1.11,17.19,0.36,27.15c2.14,14.5,4.35,29.49-4.99,37.46
			c-9.68,8.25-27.75,3.18-38.55,0.16c-0.75-0.21-1.47-0.41-2.15-0.6c-14.34-3.95-29.15-4.92-40.45-5.32
			c-5.25-0.18-10.53-0.13-15.63-0.08c-9.32,0.1-18.94,0.19-28.67-1.17c-4.04-0.57-8.13-1.24-12.09-1.9
			c-10.34-1.71-21-3.45-31.68-3.41c-14.06,0.09-28.07,4.16-41.61,8.08c-6.44,1.87-13.1,3.8-19.67,5.28
			c-42.73,9.6-78.59-2.28-83.38-3.98C322.05,569.46,302.6,575.92,276.1,575.92z"/>
	</g>
	<g>
		<path class="st0" d="M325.61,49.55c-0.3,0-0.59-0.09-0.84-0.26c-7.2-2.6-39.87-15.01-37.74-25.63c1.96-9.79,17.73-8.85,22.42-8.35
			c0.75-2.24,2.53-6.95,5-9.42c6.44-6.44,15.5-6.42,22.02,0.03c2.48,2.46,4.29,7.16,5.04,9.4c4.68-0.52,20.45-1.55,22.46,8.24
			c2.2,10.71-31.13,23.45-37.84,25.89C325.95,49.52,325.78,49.55,325.61,49.55z M304.19,18.02c-5.96,0-13.23,1.21-14.23,6.23
			c-1.2,5.98,20.05,16.51,35.71,22.18c15.6-5.76,36.56-16.32,35.35-22.26c-1.71-8.36-20.15-5.74-20.33-5.71
			c-0.75,0.11-1.46-0.34-1.67-1.06c-0.54-1.84-2.42-7.11-4.67-9.33c-5.36-5.31-12.52-5.32-17.79-0.05
			c-2.23,2.23-4.09,7.51-4.62,9.35c-0.21,0.72-0.92,1.18-1.66,1.07C308.79,18.22,306.6,18.02,304.19,18.02z"/>
	</g>
	<g>
		<g>
			<path class="st0" d="M42.36,78.12c-4.39,0-9.59-2.36-13.96-6.73c-3.22-3.22-5.47-7.05-6.33-10.79c-0.92-4-0.18-7.44,2.09-9.71
				c4.56-4.56,13.57-2.7,20.51,4.24l0,0c6.94,6.94,8.8,15.95,4.24,20.51C47.22,77.31,44.93,78.12,42.36,78.12z M30.65,51.42
				c-1.77,0-3.3,0.51-4.37,1.58c-1.51,1.51-1.97,3.97-1.29,6.92c0.74,3.2,2.7,6.52,5.53,9.35c5.56,5.56,13,7.5,16.26,4.24
				c3.26-3.26,1.31-10.71-4.24-16.26C38.81,53.52,34.24,51.42,30.65,51.42z"/>
		</g>
		<g>
			<path class="st0" d="M608.57,78.1c-2.62,0-4.86-0.84-6.49-2.47c-2.27-2.27-3.01-5.72-2.09-9.71c0.86-3.74,3.11-7.58,6.33-10.79
				c6.94-6.94,15.95-8.8,20.51-4.24c4.56,4.56,2.7,13.57-4.24,20.51l0,0l0,0c-3.22,3.22-7.05,5.47-10.79,6.33
				C610.67,77.98,609.59,78.1,608.57,78.1z M620.34,51.42c-3.59,0-8.17,2.1-11.89,5.83c-2.83,2.83-4.79,6.15-5.53,9.35
				c-0.68,2.95-0.22,5.41,1.29,6.92c1.51,1.51,3.97,1.97,6.92,1.29c3.2-0.74,6.52-2.7,9.35-5.53l0,0c5.56-5.56,7.5-13.01,4.24-16.26
				C623.63,51.93,622.1,51.42,620.34,51.42z"/>
		</g>
	</g>
	<g>
		<g>
			<path class="st0" d="M30.65,553.1c-2.62,0-4.86-0.84-6.49-2.47c-2.27-2.27-3.01-5.72-2.09-9.71c0.86-3.74,3.11-7.58,6.33-10.79
				c3.22-3.22,7.05-5.47,10.79-6.33c4-0.92,7.44-0.18,9.71,2.09c2.27,2.27,3.01,5.72,2.09,9.71c-0.86,3.74-3.11,7.58-6.33,10.79l0,0
				l0,0c-3.22,3.22-7.05,5.47-10.79,6.33C32.75,552.98,31.67,553.1,30.65,553.1z M42.4,526.41c-0.79,0-1.64,0.1-2.53,0.31
				c-3.2,0.74-6.52,2.7-9.35,5.53c-2.83,2.83-4.79,6.15-5.53,9.35c-0.68,2.95-0.22,5.41,1.29,6.92c1.51,1.51,3.97,1.97,6.92,1.29
				c3.2-0.74,6.52-2.7,9.35-5.53l0,0c2.83-2.83,4.79-6.15,5.53-9.35c0.68-2.95,0.22-5.41-1.29-6.92
				C45.73,526.95,44.22,526.41,42.4,526.41z"/>
		</g>
		<g>
			<path class="st0" d="M620.33,553.1c-1.02,0-2.1-0.13-3.22-0.39c-3.74-0.86-7.58-3.11-10.79-6.33c-3.22-3.22-5.47-7.05-6.33-10.79
				c-0.92-4-0.18-7.44,2.09-9.71s5.72-3.01,9.71-2.09c3.74,0.86,7.58,3.11,10.79,6.33l0,0l0,0c6.94,6.94,8.8,15.95,4.24,20.51
				C625.2,552.26,622.95,553.1,620.33,553.1z M608.59,526.41c-1.82,0-3.33,0.54-4.39,1.59c-1.51,1.51-1.97,3.97-1.29,6.92
				c0.74,3.2,2.7,6.52,5.53,9.35s6.15,4.79,9.35,5.53c2.95,0.68,5.41,0.22,6.92-1.29c3.26-3.26,1.31-10.71-4.24-16.26l0,0
				c-2.83-2.83-6.15-4.79-9.35-5.53C610.22,526.51,609.38,526.41,608.59,526.41z"/>
		</g>
	</g>
</g>
</svg>
