<?xml version="1.0" encoding="utf-8"?>
<!-- Generator: Adobe Illustrator 24.0.1, SVG Export Plug-In . SVG Version: 6.00 Build 0)  -->
<svg version="1.1" id="Layer_1" xmlns="http://www.w3.org/2000/svg" xmlns:xlink="http://www.w3.org/1999/xlink" x="0px" y="0px"
	 viewBox="0 0 830 458" style="enable-background:new 0 0 830 458;" xml:space="preserve">
<style type="text/css">
	.st0{fill:#223249;}
</style>
<g>
	<g>
		<path class="st0" d="M746.5,431H566.44c-0.83,0-1.5-0.67-1.5-1.5s0.67-1.5,1.5-1.5H746.5c4.69,0,8.5-3.81,8.5-8.5V37.28
			c0-4.69-3.81-8.5-8.5-8.5h-663c-4.69,0-8.5,3.81-8.5,8.5V419.5c0,4.69,3.81,8.5,8.5,8.5h179.59c0.83,0,1.5,0.67,1.5,1.5
			s-0.67,1.5-1.5,1.5H83.5c-6.34,0-11.5-5.16-11.5-11.5V37.28c0-6.34,5.16-11.5,11.5-11.5h663c6.34,0,11.5,5.16,11.5,11.5V419.5
			C758,425.84,752.84,431,746.5,431z"/>
	</g>
	<g>
		<path class="st0" d="M285.44,456.79c-0.59-0.01-56.25-1.38-111.54-3.07c-112.43-3.44-113.73-4.73-114.58-5.59l0,0
			c-1.9-1.9-19.68-43.66-30.12-68.38C18.06,353.35,1.2,312.81,0.41,309.31c-0.85-3.76-0.83-57.42-0.79-80.32
			c0.07-36.09,0.38-76.96,0.76-80.07c0.43-3.58,17.14-44.96,27.57-70.2c8.21-19.86,27.61-66.35,30.63-69.17
			c1.03-0.97,3.18-2.98,115.56-5.92c55.27-1.45,110.72-2.41,111.27-2.42h259.9c0.59,0.01,55.89,1.29,110.96,2.9
			c111.87,3.27,113.75,4.66,114.65,5.34c2.84,2.12,22.07,47.86,30.21,67.43c12.94,31.13,27.26,66.94,28.11,71.97
			c1.54,9.14,1.54,151.54,0,160.38c-0.75,4.29-13.25,37.38-26.76,70.82c-12.01,29.72-27.18,65.7-31.3,68.29
			c-6.96,4.38-203.45,8.04-225.83,8.45H285.44z M61.34,445.83c8.58,2.01,138.06,5.84,224.13,7.96h259.84
			c86.8-1.57,218.2-4.99,224.29-8.01c1.97-1.39,11.1-19.83,30.2-67.13c14.15-35.05,25.85-66.37,26.47-69.93
			c1.53-8.79,1.53-150.28,0-159.37c-1.6-9.46-52.09-130.89-57.12-137.43C761.4,9.86,631.5,6.19,545.28,4.21H285.44
			C198.81,5.7,67.93,8.94,60.56,11.83c-1.79,2.25-11.67,24.08-29.96,68.35c-14.43,34.93-26.9,66.57-27.23,69.1
			c-0.94,7.76-0.96,155.21-0.03,159.36C4.77,315,57.05,438.57,61.34,445.83z M61.07,445.76 M769.34,11.97L769.34,11.97L769.34,11.97
			z M60.45,11.88L60.45,11.88L60.45,11.88z"/>
	</g>
	<g>
		<path class="st0" d="M575.24,454.29c-0.65,0-1.25-0.42-1.44-1.08c-0.17-0.58-17.65-58.12-66.02-58.12
			c-21.18,0-41.08-10.06-58.64-18.94c-13.36-6.75-24.89-12.58-34.13-12.58c-8.74,0-19.53,5.35-32.02,11.54
			c-16.55,8.2-35.31,17.5-55.61,17.5c-24.12,0-43.4,10.13-57.33,30.11c-10.45,15-13.79,30.23-13.82,30.38
			c-0.17,0.81-0.97,1.32-1.78,1.15c-0.81-0.17-1.33-0.97-1.15-1.78c0.14-0.64,3.47-15.89,14.23-31.38
			c9.98-14.36,28.47-31.48,59.85-31.48c19.6,0,38.02-9.13,54.28-17.19c12.83-6.36,23.92-11.86,33.35-11.86
			c9.96,0,21.79,5.98,35.49,12.9c17.26,8.73,36.83,18.62,57.29,18.62c20.99,0,39.57,10.45,53.74,30.23
			c10.63,14.84,14.98,29.44,15.16,30.05c0.23,0.79-0.22,1.63-1.02,1.86C575.52,454.27,575.38,454.29,575.24,454.29z"/>
	</g>
	<g>
		<path class="st0" d="M434.61,64.79h-38.52c-0.38,0-0.76-0.15-1.03-0.41c-16.66-15.87-49.75-28.63-90.79-35.02
			c-0.73-0.11-1.27-0.74-1.27-1.48c0-0.83,0.67-1.58,1.5-1.58h221c0.83,0,1.5,0.67,1.5,1.5v0.19c0,0.74-0.54,1.37-1.27,1.48
			c-40.7,6.43-73.53,19.15-90.08,34.91C435.37,64.64,435,64.79,434.61,64.79z M396.69,61.79h37.33
			c14.92-13.93,42.08-25.49,75.93-32.5H320.77C354.62,36.3,381.75,47.84,396.69,61.79z"/>
	</g>
	<g>
		<path class="st0" d="M326.5,444.29c-0.42,0-0.84-0.18-1.14-0.52c-0.54-0.63-0.47-1.58,0.16-2.12c3-2.59,73.62-63.36,90.98-63.36
			c17.38,0,85.13,60.8,88,63.38c0.62,0.55,0.67,1.5,0.11,2.12c-0.56,0.62-1.5,0.67-2.12,0.11c-19.35-17.42-72.52-62.62-86-62.62
			c-13.49,0-68.83,45.21-89.02,62.64C327.19,444.17,326.84,444.29,326.5,444.29z"/>
	</g>
</g>
</svg>
