<?xml version="1.0" encoding="utf-8"?>
<!-- Generator: Adobe Illustrator 24.0.1, SVG Export Plug-In . SVG Version: 6.00 Build 0)  -->
<svg version="1.1" id="Layer_1" xmlns="http://www.w3.org/2000/svg" xmlns:xlink="http://www.w3.org/1999/xlink" x="0px" y="0px"
	 viewBox="0 0 326 631" style="enable-background:new 0 0 326 631;" xml:space="preserve">
<style type="text/css">
	.st0{fill:#223249;}
</style>
<g>
	<g>
		<path class="st0" d="M303.62,567.12H22.38c-0.83,0-1.5-0.67-1.5-1.5V65.38c0-0.83,0.67-1.5,1.5-1.5h281.25
			c0.83,0,1.5,0.67,1.5,1.5v500.25C305.12,566.45,304.45,567.12,303.62,567.12z M23.88,564.12h278.25V66.88H23.88V564.12z"/>
	</g>
	<g>
		<path class="st0" d="M313.31,630H12.69c-6.34,0-11.5-5.16-11.5-11.5v-606C1.19,6.16,6.35,1,12.69,1h300.62
			c6.34,0,11.5,5.16,11.5,11.5v606C324.81,624.84,319.65,630,313.31,630z M12.69,4C8,4,4.19,7.81,4.19,12.5v606
			c0,4.69,3.81,8.5,8.5,8.5h300.62c4.69,0,8.5-3.81,8.5-8.5v-606c0-4.69-3.81-8.5-8.5-8.5H12.69z"/>
	</g>
	<g>
		<path class="st0" d="M163,618.75c-12.13,0-22-9.87-22-22s9.87-22,22-22s22,9.87,22,22S175.13,618.75,163,618.75z M163,577.75
			c-10.48,0-19,8.52-19,19s8.52,19,19,19s19-8.52,19-19S173.48,577.75,163,577.75z"/>
	</g>
	<g>
		<path class="st0" d="M188,40.75h-50c-3.31,0-6-2.69-6-6s2.69-6,6-6h50c3.31,0,6,2.69,6,6S191.31,40.75,188,40.75z M138,31.75
			c-1.65,0-3,1.35-3,3s1.35,3,3,3h50c1.65,0,3-1.35,3-3s-1.35-3-3-3H138z"/>
	</g>
</g>
</svg>
