<?xml version="1.0" encoding="utf-8"?>
<!-- Generator: Adobe Illustrator 24.0.1, SVG Export Plug-In . SVG Version: 6.00 Build 0)  -->
<svg version="1.1" id="Layer_1" xmlns="http://www.w3.org/2000/svg" xmlns:xlink="http://www.w3.org/1999/xlink" x="0px" y="0px"
	 viewBox="0 0 604 404" style="enable-background:new 0 0 604 404;" xml:space="preserve">
<style type="text/css">
	.st0{fill:#FFFFFF;}
	.st1{fill:#223249;}
</style>
<g>
	<g>
		<path class="st0" d="M1.5,1.5v400h600V1.5H1.5z M582.5,159c0,4.14-3.36,7.5-7.5,7.5s-7.5-3.36-7.5-7.5h-19.67
			c-1.52,2.25-13.17,4-27.33,4s-25.81-1.75-27.33-4h-19.2c0.01,0.17,0.03,0.33,0.03,0.5c0,4.14-3.36,7.5-7.5,7.5s-7.5-3.36-7.5-7.5
			c0-3.97,3.09-7.22,7-7.47V35.47c-3.91-0.26-7-3.5-7-7.47c0-4.14,3.36-7.5,7.5-7.5s7.5,3.36,7.5,7.5h19.17
			c-0.11-0.16-0.17-0.33-0.17-0.5c0-2.49,12.31-4.5,27.5-4.5s27.5,2.01,27.5,4.5c0,0.17-0.06,0.34-0.17,0.5h19.67
			c0-4.14,3.36-7.5,7.5-7.5s7.5,3.36,7.5,7.5s-3.36,7.5-7.5,7.5v116C579.14,151.5,582.5,154.86,582.5,159z"/>
		<path class="st1" d="M601.5,403H1.5c-0.83,0-1.5-0.67-1.5-1.5V1.5C0,0.67,0.67,0,1.5,0h600c0.83,0,1.5,0.67,1.5,1.5v400
			C603,402.33,602.33,403,601.5,403z M3,400h597V3H3V400z M466.5,168.5c-4.96,0-9-4.04-9-9c0-4.24,2.98-7.85,7-8.77V36.77
			c-4.02-0.92-7-4.53-7-8.77c0-4.96,4.04-9,9-9c4.45,0,8.16,3.25,8.88,7.5h16.39c2.65-4.75,24.19-5,28.73-5s26.08,0.25,28.73,5
			h16.89c0.72-4.25,4.42-7.5,8.88-7.5c4.96,0,9,4.04,9,9c0,4.45-3.25,8.16-7.5,8.88v113.25c4.25,0.72,7.5,4.42,7.5,8.88
			c0,4.96-4.04,9-9,9c-4.45,0-8.16-3.25-8.88-7.5h-17.68c-3.92,3.14-19.09,4-27.94,4s-24.03-0.86-27.94-4h-17.11
			C474.95,164.99,471.12,168.5,466.5,168.5z M466.5,22c-3.31,0-6,2.69-6,6c0,3.14,2.46,5.77,5.6,5.98c0.79,0.05,1.4,0.71,1.4,1.5
			v116.55c0,0.79-0.61,1.44-1.4,1.5c-3.14,0.21-5.6,2.83-5.6,5.98c0,3.31,2.69,6,6,6s6-2.69,6-6c0-0.11-0.01-0.22-0.02-0.33
			c-0.03-0.42,0.11-0.86,0.4-1.16c0.28-0.31,0.68-0.51,1.1-0.51h19.2c0.5,0,0.96,0.25,1.24,0.66c1.08,1.36,11,3.34,26.08,3.34
			s25-1.98,26.09-3.35c0.28-0.41,0.74-0.65,1.24-0.65h19.67c0.83,0,1.5,0.67,1.5,1.5c0,3.31,2.69,6,6,6s6-2.69,6-6s-2.69-6-6-6
			c-0.83,0-1.5-0.67-1.5-1.5v-116c0-0.83,0.67-1.5,1.5-1.5c3.31,0,6-2.69,6-6s-2.69-6-6-6s-6,2.69-6,6c0,0.83-0.67,1.5-1.5,1.5
			h-19.67c-0.55,0-1.06-0.31-1.32-0.79c-0.18-0.33-0.22-0.71-0.13-1.06c-1.85-1.35-11.53-3.14-25.87-3.14s-24.02,1.79-25.87,3.14
			c0.09,0.35,0.04,0.73-0.13,1.06c-0.26,0.49-0.77,0.79-1.32,0.79H474c-0.83,0-1.5-0.67-1.5-1.5C472.5,24.69,469.81,22,466.5,22z"/>
	</g>
	<g>
		<g>
			<path class="st1" d="M51.65,348.79c0.91-0.66,1.52-1.55,1.82-2.65c0.3-1.11,0.32-2.29,0.07-3.54l-5.74-28.45
				c-0.27-1.34-0.74-2.57-1.4-3.7c-0.66-1.13-1.65-1.8-2.95-2.02l-0.04-0.19c2.13-0.47,4.27-1.18,6.44-2.11
				c2.16-0.94,4.18-2.11,6.06-3.51c1.87-1.4,3.43-3.01,4.68-4.83l0.19-0.04l0.71,3.52c0.14,0.71,0.25,1.31,0.33,1.8
				c0.08,0.49,0.13,1.03,0.17,1.63l0.08,0.05c0.29-0.93,0.93-2.03,1.92-3.29c0.99-1.27,2.2-2.44,3.64-3.51
				c1.44-1.07,2.97-1.78,4.61-2.11c2.3-0.46,4.46-0.26,6.47,0.62c2.01,0.88,3.74,2.32,5.18,4.31c1.45,1.99,2.46,4.44,3.05,7.33
				c0.52,2.6,0.58,5.2,0.17,7.81c-0.41,2.61-1.28,5.05-2.61,7.32c-1.33,2.27-3.12,4.21-5.36,5.82c-2.25,1.61-4.92,2.72-8.02,3.35
				c-0.75,0.15-1.39,0.23-1.92,0.22c-0.52,0-1.01-0.03-1.45-0.07l1.41,6.97c0.22,1.09,0.63,2.13,1.22,3.12
				c0.59,0.99,1.37,1.63,2.35,1.91l0.04,0.19l-21.04,4.24L51.65,348.79z M71.26,316.41c-0.91-4.52-2.02-7.72-3.34-9.59
				c-1.31-1.87-2.66-2.67-4.04-2.39c-0.59,0.12-1.15,0.36-1.68,0.73l4.91,24.37c0.13,0.63,0.37,1.13,0.73,1.52
				c0.36,0.38,0.83,0.52,1.42,0.4c0.88-0.18,1.55-0.99,2.03-2.43c0.47-1.45,0.71-3.28,0.72-5.5
				C72.02,321.29,71.77,318.92,71.26,316.41z"/>
		</g>
		<g>
			<path class="st1" d="M95.24,309.55c-0.5-2.47-0.44-4.87,0.18-7.19c0.62-2.32,1.68-4.49,3.17-6.49c1.49-2,3.35-3.69,5.58-5.08
				c2.23-1.38,4.72-2.36,7.48-2.91c2.8-0.57,5.53-0.65,8.19-0.25c2.65,0.4,5.07,1.23,7.27,2.49c2.19,1.26,4.04,2.84,5.53,4.73
				c1.49,1.9,2.49,4.08,2.99,6.55c0.5,2.47,0.43,4.89-0.2,7.26c-0.63,2.37-1.72,4.56-3.25,6.57c-1.53,2.01-3.44,3.72-5.73,5.14
				c-2.29,1.42-4.83,2.41-7.63,2.98c-2.76,0.56-5.44,0.62-8.04,0.18c-2.59-0.43-4.96-1.29-7.12-2.55c-2.15-1.27-3.97-2.87-5.45-4.82
				C96.72,314.23,95.73,312.02,95.24,309.55z M111.75,306.22c0.74,3.69,1.5,6.74,2.27,9.15c0.77,2.42,1.53,4.19,2.28,5.32
				c0.75,1.13,1.5,1.62,2.26,1.47c0.84-0.17,1.4-0.92,1.7-2.27c0.29-1.34,0.34-3.28,0.13-5.81c-0.2-2.53-0.68-5.64-1.42-9.32
				c-0.73-3.64-1.49-6.65-2.28-9.02c-0.78-2.37-1.57-4.11-2.36-5.21c-0.79-1.1-1.6-1.57-2.44-1.4c-0.75,0.15-1.26,0.89-1.52,2.2
				c-0.26,1.32-0.28,3.22-0.06,5.7C110.54,299.51,111.02,302.57,111.75,306.22z"/>
		</g>
		<g>
			<path class="st1" d="M175.09,298.8c0.52,2.6,0.16,5.01-1.09,7.25c-1.25,2.24-3.1,4.12-5.56,5.66c-2.46,1.54-5.25,2.63-8.39,3.26
				c-2.43,0.49-4.96,0.79-7.59,0.91c-2.63,0.12-5.13-0.02-7.47-0.42l1.73-12.18l0.19-0.04c1.27,1.97,2.8,3.75,4.61,5.35
				c1.8,1.6,3.65,2.83,5.55,3.69c1.89,0.86,3.55,1.15,4.98,0.86c1.21-0.24,2.14-0.76,2.79-1.54c0.65-0.78,0.87-1.66,0.68-2.62
				c-0.19-0.96-0.7-1.71-1.53-2.24c-0.83-0.53-1.85-0.94-3.06-1.25c-1.22-0.3-2.54-0.54-3.97-0.73c-1.44-0.23-2.93-0.54-4.47-0.93
				c-1.54-0.39-2.99-0.92-4.34-1.61c-1.36-0.68-2.52-1.59-3.49-2.73c-0.97-1.13-1.63-2.56-1.97-4.28c-0.41-2.01-0.27-3.91,0.42-5.71
				c0.68-1.79,1.76-3.44,3.22-4.93c1.46-1.49,3.16-2.75,5.09-3.77c1.93-1.02,3.96-1.75,6.1-2.18c1.84-0.37,3.8-0.61,5.87-0.73
				c2.07-0.11,4.1,0,6.08,0.34l-1.13,10.62l-0.19,0.04c-1.22-1.72-2.57-3.25-4.07-4.6c-1.49-1.35-3-2.38-4.51-3.08
				c-1.51-0.7-2.9-0.92-4.15-0.67c-1.13,0.23-2.01,0.73-2.64,1.51c-0.63,0.78-0.83,1.69-0.62,2.74c0.23,1.13,0.83,1.99,1.8,2.58
				c0.97,0.59,2.18,1.03,3.63,1.33c1.45,0.3,2.99,0.58,4.62,0.87c1.84,0.28,3.67,0.74,5.47,1.38c1.81,0.64,3.39,1.57,4.75,2.8
				C173.77,294.99,174.66,296.67,175.09,298.8z"/>
		</g>
		<g>
			<path class="st1" d="M185.6,299.69l-4.67-23.17l-4.4,0.89l-0.04-0.19c3.79-2.16,7.03-4.89,9.72-8.2
				c2.69-3.31,5.03-6.82,7.03-10.53l0.19-0.04l2.7,13.38l7.29-1.47l0.32,1.57l-7.29,1.47l4.36,21.6c0.34,1.67,0.92,2.93,1.74,3.77
				c0.82,0.84,2.03,1.09,3.62,0.77c0.54-0.11,1.12-0.33,1.73-0.67c0.61-0.34,1.08-0.74,1.42-1.2l0.23,0.15
				c-0.89,2.27-2.33,4.29-4.3,6.06c-1.97,1.77-4.26,2.92-6.85,3.44c-2.22,0.45-4.21,0.45-5.98,0c-1.77-0.45-3.24-1.32-4.41-2.61
				C186.8,303.42,186.01,301.75,185.6,299.69z"/>
		</g>
		<g>
			<path class="st1" d="M231.1,263.79c2.39-0.48,4.76-0.72,7.11-0.71c2.35,0.01,4.29,0.22,5.82,0.66l-3.85,13.32l-0.19,0.04
				c-1.87-3.89-3.67-6.85-5.38-8.88c-1.72-2.03-3.45-2.87-5.21-2.51c-1.63,0.33-2.67,1.5-3.12,3.5c-0.44,2.01-0.36,4.52,0.24,7.53
				c0.58,2.89,1.53,5.36,2.83,7.4c1.3,2.05,2.86,3.53,4.66,4.45c1.8,0.92,3.76,1.17,5.9,0.74c1.8-0.36,3.44-1.16,4.91-2.4
				c1.47-1.23,2.43-2.79,2.88-4.67l0.26,0.01c-0.1,3.38-0.85,6.31-2.24,8.82c-1.39,2.5-3.19,4.53-5.4,6.09
				c-2.21,1.56-4.64,2.6-7.28,3.13c-3.35,0.68-6.49,0.51-9.41-0.49c-2.92-1-5.4-2.66-7.44-4.97c-2.03-2.31-3.38-5.08-4.03-8.3
				c-0.55-2.72-0.46-5.31,0.27-7.77c0.72-2.45,1.97-4.7,3.74-6.73c1.77-2.03,3.92-3.77,6.47-5.19
				C225.18,265.44,228,264.41,231.1,263.79z"/>
		</g>
		<g>
			<path class="st1" d="M255.74,287.45c-0.63-3.14,0.58-6.15,3.63-9.03c3.06-2.88,8.05-5.72,14.98-8.51l0.22,1.07
				c-1.29,0.74-2.24,1.6-2.85,2.57c-0.61,0.97-0.96,2.07-1.04,3.28c-0.08,1.22,0.03,2.55,0.32,4.02c0.37,1.84,0.9,3.14,1.6,3.89
				c0.7,0.75,1.48,1.04,2.36,0.86c0.29-0.06,0.6-0.17,0.91-0.35c0.31-0.17,0.63-0.44,0.95-0.81l0.18,0.88l-0.31,0.06
				c-1.26,2.17-2.71,3.96-4.35,5.35c-1.64,1.4-3.63,2.33-5.97,2.8c-1.55,0.31-3.08,0.3-4.58-0.02c-1.5-0.33-2.81-1-3.9-2.02
				C256.79,290.47,256.07,289.12,255.74,287.45z M276.58,284.49c-0.21-1.05-0.48-2.43-0.8-4.15c-0.33-1.72-0.66-3.59-1-5.61
				c-0.34-2.02-0.69-4.02-1.05-6c-0.35-1.98-0.68-3.74-0.97-5.29c-0.29-1.55-0.51-2.71-0.67-3.46c-0.19-0.96-0.44-1.69-0.73-2.17
				c-0.29-0.49-0.71-0.67-1.26-0.56c-0.59,0.12-1,0.56-1.24,1.33c-0.24,0.77-0.4,1.73-0.5,2.88c-0.09,1.15-0.24,2.38-0.43,3.68
				c-0.2,1.3-0.53,2.57-1,3.8c-0.47,1.23-1.2,2.3-2.19,3.22c-0.99,0.92-2.35,1.55-4.06,1.9c-1.42,0.29-2.77,0.05-4.03-0.72
				c-1.27-0.77-2.06-1.93-2.37-3.48c-0.3-1.47-0.07-2.93,0.68-4.39c0.75-1.46,1.9-2.82,3.46-4.1c1.55-1.27,3.37-2.39,5.47-3.36
				c2.09-0.97,4.35-1.69,6.78-2.18c5.11-1.03,9.23-0.95,12.37,0.25c3.14,1.2,5.05,3.47,5.72,6.82c0.11,0.54,0.29,1.55,0.55,3.03
				c0.25,1.47,0.55,3.17,0.89,5.08c0.34,1.91,0.68,3.83,1.03,5.74c0.34,1.91,0.66,3.58,0.94,5.01c0.14,0.67,0.43,1.22,0.89,1.65
				c0.46,0.43,1.13,0.56,2.01,0.38c0.33-0.07,0.67-0.18,1.01-0.33c0.34-0.16,0.7-0.38,1.07-0.67l0.16,0.16
				c-0.58,0.99-1.45,1.94-2.6,2.84c-1.15,0.91-2.41,1.7-3.8,2.37c-1.39,0.67-2.8,1.15-4.22,1.44c-1.47,0.3-2.91,0.35-4.35,0.16
				c-1.43-0.19-2.67-0.7-3.71-1.54C277.59,287.35,276.9,286.12,276.58,284.49z"/>
		</g>
		<g>
			<path class="st1" d="M315.33,250.79c0.15,0.75,0.29,1.53,0.41,2.34c0.12,0.8,0.18,1.44,0.19,1.92l0.14,0.04
				c0.1-1.46,0.48-2.93,1.14-4.41c0.66-1.48,1.54-2.76,2.66-3.84c1.11-1.07,2.36-1.75,3.74-2.03c1.72-0.35,3.31,0,4.78,1.03
				c1.47,1.03,2.41,2.53,2.8,4.5c0.37,1.84,0.12,3.5-0.76,4.96c-0.88,1.46-2.14,2.36-3.77,2.69c-1.17,0.24-2.18,0.15-3.03-0.27
				s-1.58-0.93-2.21-1.55c-0.63-0.61-1.21-1.16-1.77-1.64c-0.55-0.48-1.12-0.66-1.71-0.54c-0.34,0.07-0.64,0.24-0.91,0.51
				c-0.27,0.27-0.54,0.63-0.8,1.08l4.06,20.16c0.25,1.26,0.73,2.34,1.44,3.24s1.63,1.48,2.77,1.73l0.04,0.19l-21.73,4.38l-0.04-0.19
				c0.95-0.67,1.59-1.56,1.91-2.67c0.32-1.11,0.35-2.29,0.1-3.55l-3.2-15.89c-0.27-1.34-0.75-2.57-1.43-3.7
				c-0.68-1.13-1.68-1.8-2.99-2.01l-0.04-0.19c2.17-0.48,4.32-1.19,6.47-2.12c2.14-0.93,4.15-2.1,6.03-3.5
				c1.87-1.4,3.43-3.01,4.68-4.83l0.19-0.04L315.33,250.79z"/>
		</g>
		<g>
			<path class="st1" d="M338.7,263.59c-0.52-2.6-0.58-5.2-0.17-7.81c0.41-2.61,1.28-5.05,2.61-7.32c1.33-2.27,3.11-4.21,5.33-5.81
				c2.22-1.6,4.89-2.72,7.98-3.34c0.75-0.15,1.4-0.23,1.95-0.23c0.54,0,1.04,0.02,1.48,0.06l-0.87-4.33
				c-0.27-1.34-0.8-2.54-1.58-3.6c-0.78-1.06-1.94-1.72-3.47-1.98l-0.04-0.19c2.21-0.49,4.45-1.2,6.72-2.14
				c2.27-0.94,4.39-2.12,6.35-3.53c1.96-1.42,3.53-3.05,4.73-4.91l0.19-0.04l8.89,44.09c0.25,1.26,0.72,2.34,1.41,3.25
				c0.68,0.91,1.62,1.48,2.8,1.72l0.04,0.19c-3.33,0.58-6.52,1.48-9.59,2.68c-3.07,1.21-5.85,2.45-8.33,3.74l-0.25,0.05l-0.75-3.71
				c-0.14-0.71-0.25-1.32-0.3-1.83s-0.1-1.05-0.13-1.61l-0.08-0.05c-0.29,0.93-0.94,2.03-1.95,3.3c-1.01,1.27-2.23,2.44-3.67,3.52
				c-1.44,1.08-3,1.78-4.67,2.12c-2.26,0.46-4.39,0.24-6.4-0.64c-2.01-0.88-3.74-2.33-5.19-4.35
				C340.29,268.87,339.27,266.44,338.7,263.59z M354.26,254.9c0.91,4.52,2.04,7.78,3.38,9.78c1.34,2,2.7,2.85,4.08,2.58
				c0.33-0.07,0.63-0.15,0.9-0.25c0.26-0.1,0.52-0.26,0.78-0.48l-4.91-24.37c-0.13-0.63-0.37-1.13-0.73-1.52
				c-0.36-0.38-0.84-0.52-1.42-0.4c-0.88,0.18-1.56,0.96-2.04,2.34c-0.48,1.38-0.74,3.16-0.76,5.32
				C353.52,250.05,353.76,252.39,354.26,254.9z"/>
		</g>
		<g>
			<path class="st1" d="M419.88,225.72c2.39-0.48,4.76-0.72,7.11-0.71c2.35,0.01,4.29,0.22,5.82,0.66l-3.85,13.32l-0.19,0.04
				c-1.87-3.89-3.67-6.85-5.38-8.88c-1.72-2.03-3.45-2.87-5.21-2.51c-1.63,0.33-2.67,1.5-3.12,3.5c-0.44,2.01-0.36,4.52,0.24,7.53
				c0.58,2.89,1.53,5.36,2.83,7.4c1.3,2.05,2.86,3.53,4.66,4.45c1.8,0.92,3.76,1.17,5.9,0.74c1.8-0.36,3.44-1.16,4.91-2.4
				c1.47-1.23,2.43-2.79,2.88-4.67l0.26,0.01c-0.1,3.38-0.85,6.31-2.24,8.82c-1.39,2.5-3.19,4.53-5.4,6.09
				c-2.21,1.56-4.64,2.6-7.28,3.13c-3.35,0.68-6.49,0.51-9.41-0.49s-5.4-2.66-7.44-4.97c-2.03-2.31-3.38-5.08-4.03-8.3
				c-0.55-2.72-0.46-5.31,0.27-7.77c0.72-2.45,1.97-4.7,3.74-6.73c1.77-2.03,3.92-3.77,6.47-5.19
				C413.96,227.38,416.78,226.35,419.88,225.72z"/>
		</g>
		<g>
			<path class="st1" d="M453.37,201.59l9.17,45.47c0.24,1.17,0.65,2.24,1.24,3.21c0.59,0.97,1.39,1.59,2.4,1.87l0.04,0.19
				l-21.29,4.29l-0.04-0.19c0.91-0.66,1.52-1.55,1.82-2.65c0.3-1.11,0.32-2.29,0.07-3.54l-6.5-32.22c-0.27-1.34-0.77-2.55-1.48-3.62
				c-0.72-1.07-1.78-1.75-3.19-2.04l-0.04-0.19c2.13-0.47,4.31-1.19,6.56-2.14c2.25-0.95,4.34-2.14,6.28-3.55
				c1.94-1.41,3.53-3.03,4.77-4.85L453.37,201.59z"/>
		</g>
		<g>
			<path class="st1" d="M495.49,243.55c-0.11-0.54-0.2-1.11-0.28-1.71c-0.08-0.59-0.14-1.11-0.18-1.53l-0.08-0.05
				c-0.75,1.24-1.81,2.57-3.19,3.98c-1.37,1.41-2.89,2.65-4.54,3.73c-1.66,1.07-3.34,1.79-5.06,2.13c-2.18,0.44-3.99,0.19-5.44-0.73
				c-1.45-0.93-2.37-2.35-2.76-4.28l-3.14-15.57c-0.38-1.88-0.92-3.35-1.61-4.41c-0.69-1.06-1.65-1.7-2.87-1.94l-0.04-0.19
				c2.38-0.52,4.64-1.27,6.8-2.25c2.16-0.98,4.11-2.16,5.86-3.53c1.75-1.38,3.23-2.93,4.45-4.66l0.19-0.04l5.41,26.82
				c0.14,0.67,0.39,1.2,0.78,1.58c0.38,0.38,0.95,0.49,1.7,0.34c0.46-0.09,0.98-0.26,1.56-0.51c0.58-0.25,1.06-0.5,1.45-0.75
				l-2.95-14.63c-0.38-1.88-0.95-3.33-1.72-4.33c-0.77-1-1.9-1.63-3.39-1.9l-0.04-0.19c2.29-0.72,4.53-1.56,6.72-2.5
				c2.18-0.94,4.22-2.07,6.11-3.39c1.89-1.32,3.55-2.88,4.97-4.69l0.19-0.04l5.6,27.76c0.25,1.26,0.72,2.34,1.41,3.25
				c0.68,0.91,1.62,1.48,2.8,1.72l0.04,0.19c-3.32,0.58-6.47,1.47-9.43,2.65c-2.96,1.19-5.73,2.43-8.3,3.73l-0.19,0.04
				L495.49,243.55z"/>
		</g>
		<g>
			<path class="st1" d="M525.9,233.89l-3.47,7.76l-0.19,0.04l-7.79-38.62c-0.27-1.34-0.77-2.55-1.48-3.62
				c-0.72-1.07-1.78-1.75-3.19-2.04l-0.04-0.19c2.17-0.48,4.35-1.19,6.56-2.14c2.21-0.95,4.27-2.12,6.18-3.53
				c1.92-1.41,3.48-3.02,4.68-4.83l0.19-0.04l4,19.85c0.14,0.71,0.25,1.31,0.33,1.8c0.08,0.49,0.13,1.03,0.17,1.63l0.08,0.05
				c0.33-0.94,0.99-2.04,1.98-3.31c0.99-1.27,2.2-2.44,3.64-3.51c1.44-1.07,2.99-1.78,4.67-2.12c2.26-0.46,4.39-0.24,6.4,0.64
				c2.01,0.88,3.72,2.32,5.15,4.32c1.43,2,2.43,4.44,3.02,7.33c0.54,2.68,0.59,5.37,0.16,8.07c-0.44,2.7-1.35,5.22-2.73,7.54
				c-1.38,2.33-3.22,4.32-5.53,5.98c-2.3,1.66-5.06,2.82-8.29,3.47c-3.81,0.77-6.86,0.66-9.15-0.31
				C528.97,237.13,527.18,235.72,525.9,233.89z M541.14,221.66c-0.91-4.52-2.01-7.72-3.31-9.59c-1.29-1.87-2.63-2.67-4.01-2.39
				c-0.59,0.12-1.17,0.37-1.74,0.74l5.03,24.93c0.13,0.63,0.38,1.13,0.76,1.51c0.38,0.38,0.86,0.51,1.45,0.39
				c0.88-0.18,1.54-1.01,1.98-2.49c0.44-1.48,0.66-3.39,0.64-5.72C541.93,226.72,541.67,224.26,541.14,221.66z"/>
		</g>
	</g>
	<g>
		<path class="st1" d="M489.5,73c-10.68,0-13.5-8.83-13.5-13.5c0-0.42-0.18-10.5-10.5-10.5C455.12,49,455,59.07,455,59.5
			c0,4.67-2.82,13.5-13.5,13.5S428,64.17,428,59.5c0-0.42-0.18-10.5-10.5-10.5S407,59.08,407,59.5c0,4.67-2.82,13.5-13.5,13.5
			S380,64.17,380,59.5c0-0.42-0.18-10.5-10.5-10.5C359.12,49,359,59.07,359,59.5c0,0.83-0.67,1.5-1.5,1.5s-1.5-0.67-1.5-1.5
			c0-4.67,2.82-13.5,13.5-13.5S383,54.83,383,59.5c0,0.42,0.18,10.5,10.5,10.5c10.38,0,10.5-10.07,10.5-10.5
			c0-4.67,2.82-13.5,13.5-13.5S431,54.83,431,59.5c0,0.42,0.18,10.5,10.5,10.5S452,59.92,452,59.5c0-4.67,2.82-13.5,13.5-13.5
			S479,54.83,479,59.5c0,0.42,0.18,10.5,10.5,10.5c10.38,0,10.5-10.07,10.5-10.5c0-0.83,0.67-1.5,1.5-1.5s1.5,0.67,1.5,1.5
			C503,64.17,500.18,73,489.5,73z"/>
	</g>
	<g>
		<path class="st1" d="M489.22,98c-10.68,0-13.5-8.83-13.5-13.5c0-0.42-0.18-10.5-10.5-10.5c-10.38,0-10.5,10.07-10.5,10.5
			c0,4.67-2.82,13.5-13.5,13.5s-13.5-8.83-13.5-13.5c0-0.42-0.18-10.5-10.5-10.5s-10.5,10.08-10.5,10.5c0,4.67-2.82,13.5-13.5,13.5
			s-13.5-8.83-13.5-13.5c0-0.42-0.18-10.5-10.5-10.5c-10.38,0-10.5,10.07-10.5,10.5c0,0.83-0.67,1.5-1.5,1.5s-1.5-0.67-1.5-1.5
			c0-4.67,2.82-13.5,13.5-13.5s13.5,8.83,13.5,13.5c0,0.42,0.18,10.5,10.5,10.5c10.38,0,10.5-10.07,10.5-10.5
			c0-4.67,2.82-13.5,13.5-13.5s13.5,8.83,13.5,13.5c0,0.42,0.18,10.5,10.5,10.5s10.5-10.08,10.5-10.5c0-4.67,2.82-13.5,13.5-13.5
			s13.5,8.83,13.5,13.5c0,0.42,0.18,10.5,10.5,10.5c10.38,0,10.5-10.07,10.5-10.5c0-0.83,0.67-1.5,1.5-1.5s1.5,0.67,1.5,1.5
			C502.72,89.17,499.9,98,489.22,98z"/>
	</g>
	<g>
		<path class="st1" d="M489.5,123c-10.68,0-13.5-8.83-13.5-13.5c0-0.42-0.18-10.5-10.5-10.5c-10.38,0-10.5,10.07-10.5,10.5
			c0,4.67-2.82,13.5-13.5,13.5s-13.5-8.83-13.5-13.5c0-0.42-0.18-10.5-10.5-10.5S407,109.08,407,109.5c0,4.67-2.82,13.5-13.5,13.5
			s-13.5-8.83-13.5-13.5c0-0.42-0.18-10.5-10.5-10.5c-10.38,0-10.5,10.07-10.5,10.5c0,0.83-0.67,1.5-1.5,1.5s-1.5-0.67-1.5-1.5
			c0-4.67,2.82-13.5,13.5-13.5s13.5,8.83,13.5,13.5c0,0.42,0.18,10.5,10.5,10.5c10.38,0,10.5-10.07,10.5-10.5
			c0-4.67,2.82-13.5,13.5-13.5s13.5,8.83,13.5,13.5c0,0.42,0.18,10.5,10.5,10.5s10.5-10.08,10.5-10.5c0-4.67,2.82-13.5,13.5-13.5
			s13.5,8.83,13.5,13.5c0,0.42,0.18,10.5,10.5,10.5c10.38,0,10.5-10.07,10.5-10.5c0-0.83,0.67-1.5,1.5-1.5s1.5,0.67,1.5,1.5
			C503,114.17,500.18,123,489.5,123z"/>
	</g>
</g>
</svg>
