<?xml version="1.0" encoding="utf-8"?>
<!-- Generator: Adobe Illustrator 24.0.1, SVG Export Plug-In . SVG Version: 6.00 Build 0)  -->
<svg version="1.1" id="Layer_1" xmlns="http://www.w3.org/2000/svg" xmlns:xlink="http://www.w3.org/1999/xlink" x="0px" y="0px"
	 viewBox="0 0 649 577" style="enable-background:new 0 0 649 577;" xml:space="preserve">
<style type="text/css">
	.st0{fill:#FFFFFF;}
	.st1{fill:#223249;}
</style>
<g>
	<g>
		<rect x="75" y="100.23" class="st0" width="499" height="398"/>
		<g>
			<g>
				<path class="st1" d="M574.49,501.51h-500c-0.83,0-1.5-0.67-1.5-1.5v-400c0-0.83,0.67-1.5,1.5-1.5h500c0.83,0,1.5,0.67,1.5,1.5
					v400C575.99,500.83,575.32,501.51,574.49,501.51z M75.99,498.51h497v-397h-497V498.51z"/>
			</g>
			<g>
				<g>
					<path class="st1" d="M596.45,523.15h-1.5c-0.83,0-1.5-0.67-1.5-1.5s0.67-1.5,1.5-1.5c0-0.83,0.67-1.5,1.5-1.5s1.5,0.67,1.5,1.5
						v1.5C597.95,522.47,597.28,523.15,596.45,523.15z"/>
				</g>
				<g>
					<path class="st1" d="M587.9,523.15h-3.02c-0.83,0-1.5-0.67-1.5-1.5s0.67-1.5,1.5-1.5h3.02c0.83,0,1.5,0.67,1.5,1.5
						S588.73,523.15,587.9,523.15z M577.82,523.15h-3.02c-0.83,0-1.5-0.67-1.5-1.5s0.67-1.5,1.5-1.5h3.02c0.83,0,1.5,0.67,1.5,1.5
						S578.65,523.15,577.82,523.15z M567.75,523.15h-3.02c-0.83,0-1.5-0.67-1.5-1.5s0.67-1.5,1.5-1.5h3.02c0.83,0,1.5,0.67,1.5,1.5
						S568.58,523.15,567.75,523.15z M557.68,523.15h-3.02c-0.83,0-1.5-0.67-1.5-1.5s0.67-1.5,1.5-1.5h3.02c0.83,0,1.5,0.67,1.5,1.5
						S558.51,523.15,557.68,523.15z M547.61,523.15h-3.02c-0.83,0-1.5-0.67-1.5-1.5s0.67-1.5,1.5-1.5h3.02c0.83,0,1.5,0.67,1.5,1.5
						S548.43,523.15,547.61,523.15z M537.53,523.15h-3.02c-0.83,0-1.5-0.67-1.5-1.5s0.67-1.5,1.5-1.5h3.02c0.83,0,1.5,0.67,1.5,1.5
						S538.36,523.15,537.53,523.15z M527.46,523.15h-3.02c-0.83,0-1.5-0.67-1.5-1.5s0.67-1.5,1.5-1.5h3.02c0.83,0,1.5,0.67,1.5,1.5
						S528.29,523.15,527.46,523.15z M517.39,523.15h-3.02c-0.83,0-1.5-0.67-1.5-1.5s0.67-1.5,1.5-1.5h3.02c0.83,0,1.5,0.67,1.5,1.5
						S518.22,523.15,517.39,523.15z M507.31,523.15h-3.02c-0.83,0-1.5-0.67-1.5-1.5s0.67-1.5,1.5-1.5h3.02c0.83,0,1.5,0.67,1.5,1.5
						S508.14,523.15,507.31,523.15z M497.24,523.15h-3.02c-0.83,0-1.5-0.67-1.5-1.5s0.67-1.5,1.5-1.5h3.02c0.83,0,1.5,0.67,1.5,1.5
						S498.07,523.15,497.24,523.15z M487.17,523.15h-3.02c-0.83,0-1.5-0.67-1.5-1.5s0.67-1.5,1.5-1.5h3.02c0.83,0,1.5,0.67,1.5,1.5
						S488,523.15,487.17,523.15z M477.1,523.15h-3.02c-0.83,0-1.5-0.67-1.5-1.5s0.67-1.5,1.5-1.5h3.02c0.83,0,1.5,0.67,1.5,1.5
						S477.92,523.15,477.1,523.15z M467.02,523.15H464c-0.83,0-1.5-0.67-1.5-1.5s0.67-1.5,1.5-1.5h3.02c0.83,0,1.5,0.67,1.5,1.5
						S467.85,523.15,467.02,523.15z M456.95,523.15h-3.02c-0.83,0-1.5-0.67-1.5-1.5s0.67-1.5,1.5-1.5h3.02c0.83,0,1.5,0.67,1.5,1.5
						S457.78,523.15,456.95,523.15z M446.88,523.15h-3.02c-0.83,0-1.5-0.67-1.5-1.5s0.67-1.5,1.5-1.5h3.02c0.83,0,1.5,0.67,1.5,1.5
						S447.71,523.15,446.88,523.15z M436.8,523.15h-3.02c-0.83,0-1.5-0.67-1.5-1.5s0.67-1.5,1.5-1.5h3.02c0.83,0,1.5,0.67,1.5,1.5
						S437.63,523.15,436.8,523.15z M426.73,523.15h-3.02c-0.83,0-1.5-0.67-1.5-1.5s0.67-1.5,1.5-1.5h3.02c0.83,0,1.5,0.67,1.5,1.5
						S427.56,523.15,426.73,523.15z M416.66,523.15h-3.02c-0.83,0-1.5-0.67-1.5-1.5s0.67-1.5,1.5-1.5h3.02c0.83,0,1.5,0.67,1.5,1.5
						S417.49,523.15,416.66,523.15z M406.59,523.15h-3.02c-0.83,0-1.5-0.67-1.5-1.5s0.67-1.5,1.5-1.5h3.02c0.83,0,1.5,0.67,1.5,1.5
						S407.41,523.15,406.59,523.15z M396.51,523.15h-3.02c-0.83,0-1.5-0.67-1.5-1.5s0.67-1.5,1.5-1.5h3.02c0.83,0,1.5,0.67,1.5,1.5
						S397.34,523.15,396.51,523.15z M386.44,523.15h-3.02c-0.83,0-1.5-0.67-1.5-1.5s0.67-1.5,1.5-1.5h3.02c0.83,0,1.5,0.67,1.5,1.5
						S387.27,523.15,386.44,523.15z M376.37,523.15h-3.02c-0.83,0-1.5-0.67-1.5-1.5s0.67-1.5,1.5-1.5h3.02c0.83,0,1.5,0.67,1.5,1.5
						S377.19,523.15,376.37,523.15z M366.29,523.15h-3.02c-0.83,0-1.5-0.67-1.5-1.5s0.67-1.5,1.5-1.5h3.02c0.83,0,1.5,0.67,1.5,1.5
						S367.12,523.15,366.29,523.15z M356.22,523.15h-3.02c-0.83,0-1.5-0.67-1.5-1.5s0.67-1.5,1.5-1.5h3.02c0.83,0,1.5,0.67,1.5,1.5
						S357.05,523.15,356.22,523.15z M346.15,523.15h-3.02c-0.83,0-1.5-0.67-1.5-1.5s0.67-1.5,1.5-1.5h3.02c0.83,0,1.5,0.67,1.5,1.5
						S346.98,523.15,346.15,523.15z M336.08,523.15h-3.02c-0.83,0-1.5-0.67-1.5-1.5s0.67-1.5,1.5-1.5h3.02c0.83,0,1.5,0.67,1.5,1.5
						S336.9,523.15,336.08,523.15z M326,523.15h-3.02c-0.83,0-1.5-0.67-1.5-1.5s0.67-1.5,1.5-1.5H326c0.83,0,1.5,0.67,1.5,1.5
						S326.83,523.15,326,523.15z M315.93,523.15h-3.02c-0.83,0-1.5-0.67-1.5-1.5s0.67-1.5,1.5-1.5h3.02c0.83,0,1.5,0.67,1.5,1.5
						S316.76,523.15,315.93,523.15z M305.86,523.15h-3.02c-0.83,0-1.5-0.67-1.5-1.5s0.67-1.5,1.5-1.5h3.02c0.83,0,1.5,0.67,1.5,1.5
						S306.68,523.15,305.86,523.15z M295.78,523.15h-3.02c-0.83,0-1.5-0.67-1.5-1.5s0.67-1.5,1.5-1.5h3.02c0.83,0,1.5,0.67,1.5,1.5
						S296.61,523.15,295.78,523.15z M285.71,523.15h-3.02c-0.83,0-1.5-0.67-1.5-1.5s0.67-1.5,1.5-1.5h3.02c0.83,0,1.5,0.67,1.5,1.5
						S286.54,523.15,285.71,523.15z M275.64,523.15h-3.02c-0.83,0-1.5-0.67-1.5-1.5s0.67-1.5,1.5-1.5h3.02c0.83,0,1.5,0.67,1.5,1.5
						S276.47,523.15,275.64,523.15z M265.57,523.15h-3.02c-0.83,0-1.5-0.67-1.5-1.5s0.67-1.5,1.5-1.5h3.02c0.83,0,1.5,0.67,1.5,1.5
						S266.39,523.15,265.57,523.15z M255.49,523.15h-3.02c-0.83,0-1.5-0.67-1.5-1.5s0.67-1.5,1.5-1.5h3.02c0.83,0,1.5,0.67,1.5,1.5
						S256.32,523.15,255.49,523.15z M245.42,523.15h-3.02c-0.83,0-1.5-0.67-1.5-1.5s0.67-1.5,1.5-1.5h3.02c0.83,0,1.5,0.67,1.5,1.5
						S246.25,523.15,245.42,523.15z M235.35,523.15h-3.02c-0.83,0-1.5-0.67-1.5-1.5s0.67-1.5,1.5-1.5h3.02c0.83,0,1.5,0.67,1.5,1.5
						S236.18,523.15,235.35,523.15z M225.27,523.15h-3.02c-0.83,0-1.5-0.67-1.5-1.5s0.67-1.5,1.5-1.5h3.02c0.83,0,1.5,0.67,1.5,1.5
						S226.1,523.15,225.27,523.15z M215.2,523.15h-3.02c-0.83,0-1.5-0.67-1.5-1.5s0.67-1.5,1.5-1.5h3.02c0.83,0,1.5,0.67,1.5,1.5
						S216.03,523.15,215.2,523.15z M205.13,523.15h-3.02c-0.83,0-1.5-0.67-1.5-1.5s0.67-1.5,1.5-1.5h3.02c0.83,0,1.5,0.67,1.5,1.5
						S205.96,523.15,205.13,523.15z M195.06,523.15h-3.02c-0.83,0-1.5-0.67-1.5-1.5s0.67-1.5,1.5-1.5h3.02c0.83,0,1.5,0.67,1.5,1.5
						S195.88,523.15,195.06,523.15z M184.98,523.15h-3.02c-0.83,0-1.5-0.67-1.5-1.5s0.67-1.5,1.5-1.5h3.02c0.83,0,1.5,0.67,1.5,1.5
						S185.81,523.15,184.98,523.15z M174.91,523.15h-3.02c-0.83,0-1.5-0.67-1.5-1.5s0.67-1.5,1.5-1.5h3.02c0.83,0,1.5,0.67,1.5,1.5
						S175.74,523.15,174.91,523.15z M164.84,523.15h-3.02c-0.83,0-1.5-0.67-1.5-1.5s0.67-1.5,1.5-1.5h3.02c0.83,0,1.5,0.67,1.5,1.5
						S165.67,523.15,164.84,523.15z M154.76,523.15h-3.02c-0.83,0-1.5-0.67-1.5-1.5s0.67-1.5,1.5-1.5h3.02c0.83,0,1.5,0.67,1.5,1.5
						S155.59,523.15,154.76,523.15z M144.69,523.15h-3.02c-0.83,0-1.5-0.67-1.5-1.5s0.67-1.5,1.5-1.5h3.02c0.83,0,1.5,0.67,1.5,1.5
						S145.52,523.15,144.69,523.15z M134.62,523.15h-3.02c-0.83,0-1.5-0.67-1.5-1.5s0.67-1.5,1.5-1.5h3.02c0.83,0,1.5,0.67,1.5,1.5
						S135.45,523.15,134.62,523.15z M124.55,523.15h-3.02c-0.83,0-1.5-0.67-1.5-1.5s0.67-1.5,1.5-1.5h3.02c0.83,0,1.5,0.67,1.5,1.5
						S125.37,523.15,124.55,523.15z M114.47,523.15h-3.02c-0.83,0-1.5-0.67-1.5-1.5s0.67-1.5,1.5-1.5h3.02c0.83,0,1.5,0.67,1.5,1.5
						S115.3,523.15,114.47,523.15z M104.4,523.15h-3.02c-0.83,0-1.5-0.67-1.5-1.5s0.67-1.5,1.5-1.5h3.02c0.83,0,1.5,0.67,1.5,1.5
						S105.23,523.15,104.4,523.15z M94.33,523.15H91.3c-0.83,0-1.5-0.67-1.5-1.5s0.67-1.5,1.5-1.5h3.02c0.83,0,1.5,0.67,1.5,1.5
						S95.16,523.15,94.33,523.15z M84.25,523.15h-3.02c-0.83,0-1.5-0.67-1.5-1.5s0.67-1.5,1.5-1.5h3.02c0.83,0,1.5,0.67,1.5,1.5
						S85.08,523.15,84.25,523.15z M74.18,523.15h-3.02c-0.83,0-1.5-0.67-1.5-1.5s0.67-1.5,1.5-1.5h3.02c0.83,0,1.5,0.67,1.5,1.5
						S75.01,523.15,74.18,523.15z M64.11,523.15h-3.02c-0.83,0-1.5-0.67-1.5-1.5s0.67-1.5,1.5-1.5h3.02c0.83,0,1.5,0.67,1.5,1.5
						S64.94,523.15,64.11,523.15z"/>
				</g>
				<g>
					<path class="st1" d="M54.04,523.15h-1.5c-0.83,0-1.5-0.67-1.5-1.5v-1.5c0-0.83,0.67-1.5,1.5-1.5s1.5,0.67,1.5,1.5
						c0.83,0,1.5,0.67,1.5,1.5S54.86,523.15,54.04,523.15z"/>
				</g>
				<g>
					<path class="st1" d="M52.54,514.59c-0.83,0-1.5-0.67-1.5-1.5v-3.02c0-0.83,0.67-1.5,1.5-1.5s1.5,0.67,1.5,1.5v3.02
						C54.04,513.92,53.36,514.59,52.54,514.59z M52.54,504.52c-0.83,0-1.5-0.67-1.5-1.5V500c0-0.83,0.67-1.5,1.5-1.5
						s1.5,0.67,1.5,1.5v3.02C54.04,503.85,53.36,504.52,52.54,504.52z M52.54,494.44c-0.83,0-1.5-0.67-1.5-1.5v-3.02
						c0-0.83,0.67-1.5,1.5-1.5s1.5,0.67,1.5,1.5v3.02C54.04,493.77,53.36,494.44,52.54,494.44z M52.54,484.37
						c-0.83,0-1.5-0.67-1.5-1.5v-3.02c0-0.83,0.67-1.5,1.5-1.5s1.5,0.67,1.5,1.5v3.02C54.04,483.7,53.36,484.37,52.54,484.37z
						 M52.54,474.29c-0.83,0-1.5-0.67-1.5-1.5v-3.02c0-0.83,0.67-1.5,1.5-1.5s1.5,0.67,1.5,1.5v3.02
						C54.04,473.62,53.36,474.29,52.54,474.29z M52.54,464.22c-0.83,0-1.5-0.67-1.5-1.5v-3.02c0-0.83,0.67-1.5,1.5-1.5
						s1.5,0.67,1.5,1.5v3.02C54.04,463.55,53.36,464.22,52.54,464.22z M52.54,454.14c-0.83,0-1.5-0.67-1.5-1.5v-3.02
						c0-0.83,0.67-1.5,1.5-1.5s1.5,0.67,1.5,1.5v3.02C54.04,453.47,53.36,454.14,52.54,454.14z M52.54,444.07
						c-0.83,0-1.5-0.67-1.5-1.5v-3.02c0-0.83,0.67-1.5,1.5-1.5s1.5,0.67,1.5,1.5v3.02C54.04,443.4,53.36,444.07,52.54,444.07z
						 M52.54,433.99c-0.83,0-1.5-0.67-1.5-1.5v-3.02c0-0.83,0.67-1.5,1.5-1.5s1.5,0.67,1.5,1.5v3.02
						C54.04,433.32,53.36,433.99,52.54,433.99z M52.54,423.92c-0.83,0-1.5-0.67-1.5-1.5v-3.02c0-0.83,0.67-1.5,1.5-1.5
						s1.5,0.67,1.5,1.5v3.02C54.04,423.25,53.36,423.92,52.54,423.92z M52.54,413.84c-0.83,0-1.5-0.67-1.5-1.5v-3.02
						c0-0.83,0.67-1.5,1.5-1.5s1.5,0.67,1.5,1.5v3.02C54.04,413.17,53.36,413.84,52.54,413.84z M52.54,403.77
						c-0.83,0-1.5-0.67-1.5-1.5v-3.02c0-0.83,0.67-1.5,1.5-1.5s1.5,0.67,1.5,1.5v3.02C54.04,403.09,53.36,403.77,52.54,403.77z
						 M52.54,393.69c-0.83,0-1.5-0.67-1.5-1.5v-3.02c0-0.83,0.67-1.5,1.5-1.5s1.5,0.67,1.5,1.5v3.02
						C54.04,393.02,53.36,393.69,52.54,393.69z M52.54,383.62c-0.83,0-1.5-0.67-1.5-1.5v-3.02c0-0.83,0.67-1.5,1.5-1.5
						s1.5,0.67,1.5,1.5v3.02C54.04,382.95,53.36,383.62,52.54,383.62z M52.54,373.54c-0.83,0-1.5-0.67-1.5-1.5v-3.02
						c0-0.83,0.67-1.5,1.5-1.5s1.5,0.67,1.5,1.5v3.02C54.04,372.87,53.36,373.54,52.54,373.54z M52.54,363.47
						c-0.83,0-1.5-0.67-1.5-1.5v-3.02c0-0.83,0.67-1.5,1.5-1.5s1.5,0.67,1.5,1.5v3.02C54.04,362.79,53.36,363.47,52.54,363.47z
						 M52.54,353.39c-0.83,0-1.5-0.67-1.5-1.5v-3.02c0-0.83,0.67-1.5,1.5-1.5s1.5,0.67,1.5,1.5v3.02
						C54.04,352.72,53.36,353.39,52.54,353.39z M52.54,343.32c-0.83,0-1.5-0.67-1.5-1.5v-3.02c0-0.83,0.67-1.5,1.5-1.5
						s1.5,0.67,1.5,1.5v3.02C54.04,342.65,53.36,343.32,52.54,343.32z M52.54,333.24c-0.83,0-1.5-0.67-1.5-1.5v-3.02
						c0-0.83,0.67-1.5,1.5-1.5s1.5,0.67,1.5,1.5v3.02C54.04,332.57,53.36,333.24,52.54,333.24z M52.54,323.17
						c-0.83,0-1.5-0.67-1.5-1.5v-3.02c0-0.83,0.67-1.5,1.5-1.5s1.5,0.67,1.5,1.5v3.02C54.04,322.5,53.36,323.17,52.54,323.17z
						 M52.54,313.09c-0.83,0-1.5-0.67-1.5-1.5v-3.02c0-0.83,0.67-1.5,1.5-1.5s1.5,0.67,1.5,1.5v3.02
						C54.04,312.42,53.36,313.09,52.54,313.09z M52.54,303.02c-0.83,0-1.5-0.67-1.5-1.5v-3.02c0-0.83,0.67-1.5,1.5-1.5
						s1.5,0.67,1.5,1.5v3.02C54.04,302.35,53.36,303.02,52.54,303.02z M52.54,292.94c-0.83,0-1.5-0.67-1.5-1.5v-3.02
						c0-0.83,0.67-1.5,1.5-1.5s1.5,0.67,1.5,1.5v3.02C54.04,292.27,53.36,292.94,52.54,292.94z M52.54,282.87
						c-0.83,0-1.5-0.67-1.5-1.5v-3.02c0-0.83,0.67-1.5,1.5-1.5s1.5,0.67,1.5,1.5v3.02C54.04,282.19,53.36,282.87,52.54,282.87z
						 M52.54,272.79c-0.83,0-1.5-0.67-1.5-1.5v-3.02c0-0.83,0.67-1.5,1.5-1.5s1.5,0.67,1.5,1.5v3.02
						C54.04,272.12,53.36,272.79,52.54,272.79z M52.54,262.72c-0.83,0-1.5-0.67-1.5-1.5v-3.02c0-0.83,0.67-1.5,1.5-1.5
						s1.5,0.67,1.5,1.5v3.02C54.04,262.04,53.36,262.72,52.54,262.72z M52.54,252.64c-0.83,0-1.5-0.67-1.5-1.5v-3.02
						c0-0.83,0.67-1.5,1.5-1.5s1.5,0.67,1.5,1.5v3.02C54.04,251.97,53.36,252.64,52.54,252.64z M52.54,242.57
						c-0.83,0-1.5-0.67-1.5-1.5v-3.02c0-0.83,0.67-1.5,1.5-1.5s1.5,0.67,1.5,1.5v3.02C54.04,241.89,53.36,242.57,52.54,242.57z
						 M52.54,232.49c-0.83,0-1.5-0.67-1.5-1.5v-3.02c0-0.83,0.67-1.5,1.5-1.5s1.5,0.67,1.5,1.5v3.02
						C54.04,231.82,53.36,232.49,52.54,232.49z M52.54,222.42c-0.83,0-1.5-0.67-1.5-1.5v-3.02c0-0.83,0.67-1.5,1.5-1.5
						s1.5,0.67,1.5,1.5v3.02C54.04,221.74,53.36,222.42,52.54,222.42z M52.54,212.34c-0.83,0-1.5-0.67-1.5-1.5v-3.02
						c0-0.83,0.67-1.5,1.5-1.5s1.5,0.67,1.5,1.5v3.02C54.04,211.67,53.36,212.34,52.54,212.34z M52.54,202.27
						c-0.83,0-1.5-0.67-1.5-1.5v-3.02c0-0.83,0.67-1.5,1.5-1.5s1.5,0.67,1.5,1.5v3.02C54.04,201.59,53.36,202.27,52.54,202.27z
						 M52.54,192.19c-0.83,0-1.5-0.67-1.5-1.5v-3.02c0-0.83,0.67-1.5,1.5-1.5s1.5,0.67,1.5,1.5v3.02
						C54.04,191.52,53.36,192.19,52.54,192.19z M52.54,182.12c-0.83,0-1.5-0.67-1.5-1.5v-3.02c0-0.83,0.67-1.5,1.5-1.5
						s1.5,0.67,1.5,1.5v3.02C54.04,181.44,53.36,182.12,52.54,182.12z M52.54,172.04c-0.83,0-1.5-0.67-1.5-1.5v-3.02
						c0-0.83,0.67-1.5,1.5-1.5s1.5,0.67,1.5,1.5v3.02C54.04,171.37,53.36,172.04,52.54,172.04z M52.54,161.97
						c-0.83,0-1.5-0.67-1.5-1.5v-3.02c0-0.83,0.67-1.5,1.5-1.5s1.5,0.67,1.5,1.5v3.02C54.04,161.29,53.36,161.97,52.54,161.97z
						 M52.54,151.89c-0.83,0-1.5-0.67-1.5-1.5v-3.02c0-0.83,0.67-1.5,1.5-1.5s1.5,0.67,1.5,1.5v3.02
						C54.04,151.22,53.36,151.89,52.54,151.89z M52.54,141.82c-0.83,0-1.5-0.67-1.5-1.5v-3.02c0-0.83,0.67-1.5,1.5-1.5
						s1.5,0.67,1.5,1.5v3.02C54.04,141.14,53.36,141.82,52.54,141.82z M52.54,131.74c-0.83,0-1.5-0.67-1.5-1.5v-3.02
						c0-0.83,0.67-1.5,1.5-1.5s1.5,0.67,1.5,1.5v3.02C54.04,131.07,53.36,131.74,52.54,131.74z M52.54,121.66
						c-0.83,0-1.5-0.67-1.5-1.5v-3.02c0-0.83,0.67-1.5,1.5-1.5s1.5,0.67,1.5,1.5v3.02C54.04,120.99,53.36,121.66,52.54,121.66z
						 M52.54,111.59c-0.83,0-1.5-0.67-1.5-1.5v-3.02c0-0.83,0.67-1.5,1.5-1.5s1.5,0.67,1.5,1.5v3.02
						C54.04,110.92,53.36,111.59,52.54,111.59z M52.54,101.52c-0.83,0-1.5-0.67-1.5-1.5v-3.02c0-0.83,0.67-1.5,1.5-1.5
						s1.5,0.67,1.5,1.5v3.02C54.04,100.84,53.36,101.52,52.54,101.52z M52.54,91.44c-0.83,0-1.5-0.67-1.5-1.5v-3.02
						c0-0.83,0.67-1.5,1.5-1.5s1.5,0.67,1.5,1.5v3.02C54.04,90.77,53.36,91.44,52.54,91.44z"/>
				</g>
				<g>
					<path class="st1" d="M52.54,81.37c-0.83,0-1.5-0.67-1.5-1.5v-1.5c0-0.83,0.67-1.5,1.5-1.5h1.5c0.83,0,1.5,0.67,1.5,1.5
						s-0.67,1.5-1.5,1.5C54.04,80.69,53.36,81.37,52.54,81.37z"/>
				</g>
				<g>
					<path class="st1" d="M587.9,79.87h-3.02c-0.83,0-1.5-0.67-1.5-1.5s0.67-1.5,1.5-1.5h3.02c0.83,0,1.5,0.67,1.5,1.5
						S588.73,79.87,587.9,79.87z M577.82,79.87h-3.02c-0.83,0-1.5-0.67-1.5-1.5s0.67-1.5,1.5-1.5h3.02c0.83,0,1.5,0.67,1.5,1.5
						S578.65,79.87,577.82,79.87z M567.75,79.87h-3.02c-0.83,0-1.5-0.67-1.5-1.5s0.67-1.5,1.5-1.5h3.02c0.83,0,1.5,0.67,1.5,1.5
						S568.58,79.87,567.75,79.87z M557.68,79.87h-3.02c-0.83,0-1.5-0.67-1.5-1.5s0.67-1.5,1.5-1.5h3.02c0.83,0,1.5,0.67,1.5,1.5
						S558.51,79.87,557.68,79.87z M547.6,79.87h-3.02c-0.83,0-1.5-0.67-1.5-1.5s0.67-1.5,1.5-1.5h3.02c0.83,0,1.5,0.67,1.5,1.5
						S548.43,79.87,547.6,79.87z M537.53,79.87h-3.02c-0.83,0-1.5-0.67-1.5-1.5s0.67-1.5,1.5-1.5h3.02c0.83,0,1.5,0.67,1.5,1.5
						S538.36,79.87,537.53,79.87z M527.46,79.87h-3.02c-0.83,0-1.5-0.67-1.5-1.5s0.67-1.5,1.5-1.5h3.02c0.83,0,1.5,0.67,1.5,1.5
						S528.29,79.87,527.46,79.87z M517.39,79.87h-3.02c-0.83,0-1.5-0.67-1.5-1.5s0.67-1.5,1.5-1.5h3.02c0.83,0,1.5,0.67,1.5,1.5
						S518.21,79.87,517.39,79.87z M507.31,79.87h-3.02c-0.83,0-1.5-0.67-1.5-1.5s0.67-1.5,1.5-1.5h3.02c0.83,0,1.5,0.67,1.5,1.5
						S508.14,79.87,507.31,79.87z M497.24,79.87h-3.02c-0.83,0-1.5-0.67-1.5-1.5s0.67-1.5,1.5-1.5h3.02c0.83,0,1.5,0.67,1.5,1.5
						S498.07,79.87,497.24,79.87z M487.17,79.87h-3.02c-0.83,0-1.5-0.67-1.5-1.5s0.67-1.5,1.5-1.5h3.02c0.83,0,1.5,0.67,1.5,1.5
						S488,79.87,487.17,79.87z M477.1,79.87h-3.02c-0.83,0-1.5-0.67-1.5-1.5s0.67-1.5,1.5-1.5h3.02c0.83,0,1.5,0.67,1.5,1.5
						S477.92,79.87,477.1,79.87z M467.02,79.87H464c-0.83,0-1.5-0.67-1.5-1.5s0.67-1.5,1.5-1.5h3.02c0.83,0,1.5,0.67,1.5,1.5
						S467.85,79.87,467.02,79.87z M456.95,79.87h-3.02c-0.83,0-1.5-0.67-1.5-1.5s0.67-1.5,1.5-1.5h3.02c0.83,0,1.5,0.67,1.5,1.5
						S457.78,79.87,456.95,79.87z M446.88,79.87h-3.02c-0.83,0-1.5-0.67-1.5-1.5s0.67-1.5,1.5-1.5h3.02c0.83,0,1.5,0.67,1.5,1.5
						S447.7,79.87,446.88,79.87z M436.8,79.87h-3.02c-0.83,0-1.5-0.67-1.5-1.5s0.67-1.5,1.5-1.5h3.02c0.83,0,1.5,0.67,1.5,1.5
						S437.63,79.87,436.8,79.87z M426.73,79.87h-3.02c-0.83,0-1.5-0.67-1.5-1.5s0.67-1.5,1.5-1.5h3.02c0.83,0,1.5,0.67,1.5,1.5
						S427.56,79.87,426.73,79.87z M416.66,79.87h-3.02c-0.83,0-1.5-0.67-1.5-1.5s0.67-1.5,1.5-1.5h3.02c0.83,0,1.5,0.67,1.5,1.5
						S417.49,79.87,416.66,79.87z M406.59,79.87h-3.02c-0.83,0-1.5-0.67-1.5-1.5s0.67-1.5,1.5-1.5h3.02c0.83,0,1.5,0.67,1.5,1.5
						S407.41,79.87,406.59,79.87z M396.51,79.87h-3.02c-0.83,0-1.5-0.67-1.5-1.5s0.67-1.5,1.5-1.5h3.02c0.83,0,1.5,0.67,1.5,1.5
						S397.34,79.87,396.51,79.87z M386.44,79.87h-3.02c-0.83,0-1.5-0.67-1.5-1.5s0.67-1.5,1.5-1.5h3.02c0.83,0,1.5,0.67,1.5,1.5
						S387.27,79.87,386.44,79.87z M376.37,79.87h-3.02c-0.83,0-1.5-0.67-1.5-1.5s0.67-1.5,1.5-1.5h3.02c0.83,0,1.5,0.67,1.5,1.5
						S377.19,79.87,376.37,79.87z M366.29,79.87h-3.02c-0.83,0-1.5-0.67-1.5-1.5s0.67-1.5,1.5-1.5h3.02c0.83,0,1.5,0.67,1.5,1.5
						S367.12,79.87,366.29,79.87z M356.22,79.87h-3.02c-0.83,0-1.5-0.67-1.5-1.5s0.67-1.5,1.5-1.5h3.02c0.83,0,1.5,0.67,1.5,1.5
						S357.05,79.87,356.22,79.87z M346.15,79.87h-3.02c-0.83,0-1.5-0.67-1.5-1.5s0.67-1.5,1.5-1.5h3.02c0.83,0,1.5,0.67,1.5,1.5
						S346.98,79.87,346.15,79.87z M336.07,79.87h-3.02c-0.83,0-1.5-0.67-1.5-1.5s0.67-1.5,1.5-1.5h3.02c0.83,0,1.5,0.67,1.5,1.5
						S336.9,79.87,336.07,79.87z M326,79.87h-3.02c-0.83,0-1.5-0.67-1.5-1.5s0.67-1.5,1.5-1.5H326c0.83,0,1.5,0.67,1.5,1.5
						S326.83,79.87,326,79.87z M315.93,79.87h-3.02c-0.83,0-1.5-0.67-1.5-1.5s0.67-1.5,1.5-1.5h3.02c0.83,0,1.5,0.67,1.5,1.5
						S316.76,79.87,315.93,79.87z M305.86,79.87h-3.02c-0.83,0-1.5-0.67-1.5-1.5s0.67-1.5,1.5-1.5h3.02c0.83,0,1.5,0.67,1.5,1.5
						S306.68,79.87,305.86,79.87z M295.78,79.87h-3.02c-0.83,0-1.5-0.67-1.5-1.5s0.67-1.5,1.5-1.5h3.02c0.83,0,1.5,0.67,1.5,1.5
						S296.61,79.87,295.78,79.87z M285.71,79.87h-3.02c-0.83,0-1.5-0.67-1.5-1.5s0.67-1.5,1.5-1.5h3.02c0.83,0,1.5,0.67,1.5,1.5
						S286.54,79.87,285.71,79.87z M275.64,79.87h-3.02c-0.83,0-1.5-0.67-1.5-1.5s0.67-1.5,1.5-1.5h3.02c0.83,0,1.5,0.67,1.5,1.5
						S276.47,79.87,275.64,79.87z M265.56,79.87h-3.02c-0.83,0-1.5-0.67-1.5-1.5s0.67-1.5,1.5-1.5h3.02c0.83,0,1.5,0.67,1.5,1.5
						S266.39,79.87,265.56,79.87z M255.49,79.87h-3.02c-0.83,0-1.5-0.67-1.5-1.5s0.67-1.5,1.5-1.5h3.02c0.83,0,1.5,0.67,1.5,1.5
						S256.32,79.87,255.49,79.87z M245.42,79.87h-3.02c-0.83,0-1.5-0.67-1.5-1.5s0.67-1.5,1.5-1.5h3.02c0.83,0,1.5,0.67,1.5,1.5
						S246.25,79.87,245.42,79.87z M235.35,79.87h-3.02c-0.83,0-1.5-0.67-1.5-1.5s0.67-1.5,1.5-1.5h3.02c0.83,0,1.5,0.67,1.5,1.5
						S236.17,79.87,235.35,79.87z M225.27,79.87h-3.02c-0.83,0-1.5-0.67-1.5-1.5s0.67-1.5,1.5-1.5h3.02c0.83,0,1.5,0.67,1.5,1.5
						S226.1,79.87,225.27,79.87z M215.2,79.87h-3.02c-0.83,0-1.5-0.67-1.5-1.5s0.67-1.5,1.5-1.5h3.02c0.83,0,1.5,0.67,1.5,1.5
						S216.03,79.87,215.2,79.87z M205.13,79.87h-3.02c-0.83,0-1.5-0.67-1.5-1.5s0.67-1.5,1.5-1.5h3.02c0.83,0,1.5,0.67,1.5,1.5
						S205.96,79.87,205.13,79.87z M195.06,79.87h-3.02c-0.83,0-1.5-0.67-1.5-1.5s0.67-1.5,1.5-1.5h3.02c0.83,0,1.5,0.67,1.5,1.5
						S195.88,79.87,195.06,79.87z M184.98,79.87h-3.02c-0.83,0-1.5-0.67-1.5-1.5s0.67-1.5,1.5-1.5h3.02c0.83,0,1.5,0.67,1.5,1.5
						S185.81,79.87,184.98,79.87z M174.91,79.87h-3.02c-0.83,0-1.5-0.67-1.5-1.5s0.67-1.5,1.5-1.5h3.02c0.83,0,1.5,0.67,1.5,1.5
						S175.74,79.87,174.91,79.87z M164.84,79.87h-3.02c-0.83,0-1.5-0.67-1.5-1.5s0.67-1.5,1.5-1.5h3.02c0.83,0,1.5,0.67,1.5,1.5
						S165.66,79.87,164.84,79.87z M154.76,79.87h-3.02c-0.83,0-1.5-0.67-1.5-1.5s0.67-1.5,1.5-1.5h3.02c0.83,0,1.5,0.67,1.5,1.5
						S155.59,79.87,154.76,79.87z M144.69,79.87h-3.02c-0.83,0-1.5-0.67-1.5-1.5s0.67-1.5,1.5-1.5h3.02c0.83,0,1.5,0.67,1.5,1.5
						S145.52,79.87,144.69,79.87z M134.62,79.87h-3.02c-0.83,0-1.5-0.67-1.5-1.5s0.67-1.5,1.5-1.5h3.02c0.83,0,1.5,0.67,1.5,1.5
						S135.45,79.87,134.62,79.87z M124.54,79.87h-3.02c-0.83,0-1.5-0.67-1.5-1.5s0.67-1.5,1.5-1.5h3.02c0.83,0,1.5,0.67,1.5,1.5
						S125.37,79.87,124.54,79.87z M114.47,79.87h-3.02c-0.83,0-1.5-0.67-1.5-1.5s0.67-1.5,1.5-1.5h3.02c0.83,0,1.5,0.67,1.5,1.5
						S115.3,79.87,114.47,79.87z M104.4,79.87h-3.02c-0.83,0-1.5-0.67-1.5-1.5s0.67-1.5,1.5-1.5h3.02c0.83,0,1.5,0.67,1.5,1.5
						S105.23,79.87,104.4,79.87z M94.33,79.87H91.3c-0.83,0-1.5-0.67-1.5-1.5s0.67-1.5,1.5-1.5h3.02c0.83,0,1.5,0.67,1.5,1.5
						S95.15,79.87,94.33,79.87z M84.25,79.87h-3.02c-0.83,0-1.5-0.67-1.5-1.5s0.67-1.5,1.5-1.5h3.02c0.83,0,1.5,0.67,1.5,1.5
						S85.08,79.87,84.25,79.87z M74.18,79.87h-3.02c-0.83,0-1.5-0.67-1.5-1.5s0.67-1.5,1.5-1.5h3.02c0.83,0,1.5,0.67,1.5,1.5
						S75.01,79.87,74.18,79.87z M64.11,79.87h-3.02c-0.83,0-1.5-0.67-1.5-1.5s0.67-1.5,1.5-1.5h3.02c0.83,0,1.5,0.67,1.5,1.5
						S64.94,79.87,64.11,79.87z"/>
				</g>
				<g>
					<path class="st1" d="M596.45,81.37c-0.83,0-1.5-0.67-1.5-1.5c-0.83,0-1.5-0.67-1.5-1.5s0.67-1.5,1.5-1.5h1.5
						c0.83,0,1.5,0.67,1.5,1.5v1.5C597.95,80.69,597.28,81.37,596.45,81.37z"/>
				</g>
				<g>
					<path class="st1" d="M596.45,514.59c-0.83,0-1.5-0.67-1.5-1.5v-3.02c0-0.83,0.67-1.5,1.5-1.5s1.5,0.67,1.5,1.5v3.02
						C597.95,513.92,597.28,514.59,596.45,514.59z M596.45,504.52c-0.83,0-1.5-0.67-1.5-1.5V500c0-0.83,0.67-1.5,1.5-1.5
						s1.5,0.67,1.5,1.5v3.02C597.95,503.85,597.28,504.52,596.45,504.52z M596.45,494.44c-0.83,0-1.5-0.67-1.5-1.5v-3.02
						c0-0.83,0.67-1.5,1.5-1.5s1.5,0.67,1.5,1.5v3.02C597.95,493.77,597.28,494.44,596.45,494.44z M596.45,484.37
						c-0.83,0-1.5-0.67-1.5-1.5v-3.02c0-0.83,0.67-1.5,1.5-1.5s1.5,0.67,1.5,1.5v3.02C597.95,483.7,597.28,484.37,596.45,484.37z
						 M596.45,474.29c-0.83,0-1.5-0.67-1.5-1.5v-3.02c0-0.83,0.67-1.5,1.5-1.5s1.5,0.67,1.5,1.5v3.02
						C597.95,473.62,597.28,474.29,596.45,474.29z M596.45,464.22c-0.83,0-1.5-0.67-1.5-1.5v-3.02c0-0.83,0.67-1.5,1.5-1.5
						s1.5,0.67,1.5,1.5v3.02C597.95,463.55,597.28,464.22,596.45,464.22z M596.45,454.14c-0.83,0-1.5-0.67-1.5-1.5v-3.02
						c0-0.83,0.67-1.5,1.5-1.5s1.5,0.67,1.5,1.5v3.02C597.95,453.47,597.28,454.14,596.45,454.14z M596.45,444.07
						c-0.83,0-1.5-0.67-1.5-1.5v-3.02c0-0.83,0.67-1.5,1.5-1.5s1.5,0.67,1.5,1.5v3.02C597.95,443.4,597.28,444.07,596.45,444.07z
						 M596.45,433.99c-0.83,0-1.5-0.67-1.5-1.5v-3.02c0-0.83,0.67-1.5,1.5-1.5s1.5,0.67,1.5,1.5v3.02
						C597.95,433.32,597.28,433.99,596.45,433.99z M596.45,423.92c-0.83,0-1.5-0.67-1.5-1.5v-3.02c0-0.83,0.67-1.5,1.5-1.5
						s1.5,0.67,1.5,1.5v3.02C597.95,423.25,597.28,423.92,596.45,423.92z M596.45,413.84c-0.83,0-1.5-0.67-1.5-1.5v-3.02
						c0-0.83,0.67-1.5,1.5-1.5s1.5,0.67,1.5,1.5v3.02C597.95,413.17,597.28,413.84,596.45,413.84z M596.45,403.77
						c-0.83,0-1.5-0.67-1.5-1.5v-3.02c0-0.83,0.67-1.5,1.5-1.5s1.5,0.67,1.5,1.5v3.02C597.95,403.1,597.28,403.77,596.45,403.77z
						 M596.45,393.69c-0.83,0-1.5-0.67-1.5-1.5v-3.02c0-0.83,0.67-1.5,1.5-1.5s1.5,0.67,1.5,1.5v3.02
						C597.95,393.02,597.28,393.69,596.45,393.69z M596.45,383.62c-0.83,0-1.5-0.67-1.5-1.5v-3.02c0-0.83,0.67-1.5,1.5-1.5
						s1.5,0.67,1.5,1.5v3.02C597.95,382.95,597.28,383.62,596.45,383.62z M596.45,373.54c-0.83,0-1.5-0.67-1.5-1.5v-3.02
						c0-0.83,0.67-1.5,1.5-1.5s1.5,0.67,1.5,1.5v3.02C597.95,372.87,597.28,373.54,596.45,373.54z M596.45,363.47
						c-0.83,0-1.5-0.67-1.5-1.5v-3.02c0-0.83,0.67-1.5,1.5-1.5s1.5,0.67,1.5,1.5v3.02C597.95,362.8,597.28,363.47,596.45,363.47z
						 M596.45,353.39c-0.83,0-1.5-0.67-1.5-1.5v-3.02c0-0.83,0.67-1.5,1.5-1.5s1.5,0.67,1.5,1.5v3.02
						C597.95,352.72,597.28,353.39,596.45,353.39z M596.45,343.32c-0.83,0-1.5-0.67-1.5-1.5v-3.02c0-0.83,0.67-1.5,1.5-1.5
						s1.5,0.67,1.5,1.5v3.02C597.95,342.65,597.28,343.32,596.45,343.32z M596.45,333.24c-0.83,0-1.5-0.67-1.5-1.5v-3.02
						c0-0.83,0.67-1.5,1.5-1.5s1.5,0.67,1.5,1.5v3.02C597.95,332.57,597.28,333.24,596.45,333.24z M596.45,323.17
						c-0.83,0-1.5-0.67-1.5-1.5v-3.02c0-0.83,0.67-1.5,1.5-1.5s1.5,0.67,1.5,1.5v3.02C597.95,322.5,597.28,323.17,596.45,323.17z
						 M596.45,313.09c-0.83,0-1.5-0.67-1.5-1.5v-3.02c0-0.83,0.67-1.5,1.5-1.5s1.5,0.67,1.5,1.5v3.02
						C597.95,312.42,597.28,313.09,596.45,313.09z M596.45,303.02c-0.83,0-1.5-0.67-1.5-1.5v-3.02c0-0.83,0.67-1.5,1.5-1.5
						s1.5,0.67,1.5,1.5v3.02C597.95,302.35,597.28,303.02,596.45,303.02z M596.45,292.94c-0.83,0-1.5-0.67-1.5-1.5v-3.02
						c0-0.83,0.67-1.5,1.5-1.5s1.5,0.67,1.5,1.5v3.02C597.95,292.27,597.28,292.94,596.45,292.94z M596.45,282.87
						c-0.83,0-1.5-0.67-1.5-1.5v-3.02c0-0.83,0.67-1.5,1.5-1.5s1.5,0.67,1.5,1.5v3.02C597.95,282.2,597.28,282.87,596.45,282.87z
						 M596.45,272.79c-0.83,0-1.5-0.67-1.5-1.5v-3.02c0-0.83,0.67-1.5,1.5-1.5s1.5,0.67,1.5,1.5v3.02
						C597.95,272.12,597.28,272.79,596.45,272.79z M596.45,262.72c-0.83,0-1.5-0.67-1.5-1.5v-3.02c0-0.83,0.67-1.5,1.5-1.5
						s1.5,0.67,1.5,1.5v3.02C597.95,262.05,597.28,262.72,596.45,262.72z M596.45,252.64c-0.83,0-1.5-0.67-1.5-1.5v-3.02
						c0-0.83,0.67-1.5,1.5-1.5s1.5,0.67,1.5,1.5v3.02C597.95,251.97,597.28,252.64,596.45,252.64z M596.45,242.57
						c-0.83,0-1.5-0.67-1.5-1.5v-3.02c0-0.83,0.67-1.5,1.5-1.5s1.5,0.67,1.5,1.5v3.02C597.95,241.89,597.28,242.57,596.45,242.57z
						 M596.45,232.49c-0.83,0-1.5-0.67-1.5-1.5v-3.02c0-0.83,0.67-1.5,1.5-1.5s1.5,0.67,1.5,1.5v3.02
						C597.95,231.82,597.28,232.49,596.45,232.49z M596.45,222.42c-0.83,0-1.5-0.67-1.5-1.5v-3.02c0-0.83,0.67-1.5,1.5-1.5
						s1.5,0.67,1.5,1.5v3.02C597.95,221.75,597.28,222.42,596.45,222.42z M596.45,212.34c-0.83,0-1.5-0.67-1.5-1.5v-3.02
						c0-0.83,0.67-1.5,1.5-1.5s1.5,0.67,1.5,1.5v3.02C597.95,211.67,597.28,212.34,596.45,212.34z M596.45,202.27
						c-0.83,0-1.5-0.67-1.5-1.5v-3.02c0-0.83,0.67-1.5,1.5-1.5s1.5,0.67,1.5,1.5v3.02C597.95,201.59,597.28,202.27,596.45,202.27z
						 M596.45,192.19c-0.83,0-1.5-0.67-1.5-1.5v-3.02c0-0.83,0.67-1.5,1.5-1.5s1.5,0.67,1.5,1.5v3.02
						C597.95,191.52,597.28,192.19,596.45,192.19z M596.45,182.12c-0.83,0-1.5-0.67-1.5-1.5v-3.02c0-0.83,0.67-1.5,1.5-1.5
						s1.5,0.67,1.5,1.5v3.02C597.95,181.44,597.28,182.12,596.45,182.12z M596.45,172.04c-0.83,0-1.5-0.67-1.5-1.5v-3.02
						c0-0.83,0.67-1.5,1.5-1.5s1.5,0.67,1.5,1.5v3.02C597.95,171.37,597.28,172.04,596.45,172.04z M596.45,161.97
						c-0.83,0-1.5-0.67-1.5-1.5v-3.02c0-0.83,0.67-1.5,1.5-1.5s1.5,0.67,1.5,1.5v3.02C597.95,161.29,597.28,161.97,596.45,161.97z
						 M596.45,151.89c-0.83,0-1.5-0.67-1.5-1.5v-3.02c0-0.83,0.67-1.5,1.5-1.5s1.5,0.67,1.5,1.5v3.02
						C597.95,151.22,597.28,151.89,596.45,151.89z M596.45,141.82c-0.83,0-1.5-0.67-1.5-1.5v-3.02c0-0.83,0.67-1.5,1.5-1.5
						s1.5,0.67,1.5,1.5v3.02C597.95,141.14,597.28,141.82,596.45,141.82z M596.45,131.74c-0.83,0-1.5-0.67-1.5-1.5v-3.02
						c0-0.83,0.67-1.5,1.5-1.5s1.5,0.67,1.5,1.5v3.02C597.95,131.07,597.28,131.74,596.45,131.74z M596.45,121.67
						c-0.83,0-1.5-0.67-1.5-1.5v-3.02c0-0.83,0.67-1.5,1.5-1.5s1.5,0.67,1.5,1.5v3.02C597.95,120.99,597.28,121.67,596.45,121.67z
						 M596.45,111.59c-0.83,0-1.5-0.67-1.5-1.5v-3.02c0-0.83,0.67-1.5,1.5-1.5s1.5,0.67,1.5,1.5v3.02
						C597.95,110.92,597.28,111.59,596.45,111.59z M596.45,101.52c-0.83,0-1.5-0.67-1.5-1.5v-3.02c0-0.83,0.67-1.5,1.5-1.5
						s1.5,0.67,1.5,1.5v3.02C597.95,100.84,597.28,101.52,596.45,101.52z M596.45,91.44c-0.83,0-1.5-0.67-1.5-1.5v-3.02
						c0-0.83,0.67-1.5,1.5-1.5s1.5,0.67,1.5,1.5v3.02C597.95,90.77,597.28,91.44,596.45,91.44z"/>
				</g>
			</g>
			<g>
				<path class="st1" d="M607.99,525.89c-0.83,0-1.5-0.67-1.5-1.5V76.77c0-0.83,0.67-1.5,1.5-1.5s1.5,0.67,1.5,1.5v447.63
					C609.49,525.22,608.82,525.89,607.99,525.89z"/>
			</g>
			<g>
				<path class="st1" d="M599.71,534.01H49.39c-0.83,0-1.5-0.67-1.5-1.5s0.67-1.5,1.5-1.5h550.32c0.83,0,1.5,0.67,1.5,1.5
					S600.54,534.01,599.71,534.01z"/>
			</g>
			<g>
				<path class="st1" d="M40.99,526.45c-0.83,0-1.5-0.67-1.5-1.5c0-116.7,0-393.98,0.02-448.19c0-0.83,0.67-1.5,1.5-1.5h0
					c0.83,0,1.5,0.67,1.5,1.5c-0.02,54.21-0.02,331.49-0.02,448.19C42.49,525.78,41.82,526.45,40.99,526.45z"/>
			</g>
			<g>
				<path class="st1" d="M599.99,69.01H49.11c-0.83,0-1.5-0.67-1.5-1.5s0.67-1.5,1.5-1.5h550.88c0.83,0,1.5,0.67,1.5,1.5
					S600.82,69.01,599.99,69.01z"/>
			</g>
			<g>
				<path class="st1" d="M275.1,575.92c-10.42,0-21.93-1-33.98-3.71c-6.57-1.48-13.23-3.41-19.67-5.28
					c-13.54-3.93-27.54-7.99-41.61-8.08c-10.66-0.06-21.34,1.7-31.68,3.41c-3.96,0.66-8.05,1.33-12.09,1.9
					c-9.72,1.36-19.35,1.27-28.67,1.17c-5.1-0.05-10.38-0.11-15.63,0.08c-11.3,0.4-26.11,1.37-40.45,5.32
					c-0.68,0.19-1.4,0.39-2.15,0.6c-10.8,3.03-28.87,8.1-38.55-0.16c-9.35-7.97-7.13-22.96-4.99-37.46
					c1.47-9.96,2.99-20.26,0.36-27.15c-8.65-22.69-3.46-42.79,1.56-62.22c3.2-12.39,6.5-25.21,6.42-38.9
					c-0.1-15.75-3.3-31.43-6.4-46.59c-2.07-10.14-4.21-20.63-5.43-31.1c-2.67-23.05-1.56-49.41,3.14-74.22
					c0.76-3.99,1.58-8.04,2.37-11.95c3.05-15.06,6.21-30.62,6.31-46.22c0.08-13.69-3.22-26.5-6.42-38.9
					c-2.51-9.73-5.11-19.78-5.94-29.99c-0.94-11.49,0.5-22.03,4.38-32.24c2.63-6.89,1.11-17.19-0.36-27.15
					C3.48,52.6,1.27,37.6,10.62,29.64c9.68-8.25,27.75-3.18,38.55-0.16c0.75,0.21,1.47,0.41,2.15,0.6
					c14.34,3.95,29.15,4.92,40.45,5.32c5.25,0.19,10.53,0.13,15.63,0.08c9.31-0.1,18.94-0.19,28.67,1.17
					c4.04,0.57,8.14,1.24,12.09,1.9c10.34,1.71,21.02,3.49,31.67,3.41c14.07-0.09,28.07-4.16,41.61-8.09
					c6.44-1.87,13.1-3.8,19.67-5.28c14.87-3.34,30.39-4.45,46.13-3.3c0.83,0.06,1.45,0.78,1.39,1.6c-0.06,0.83-0.79,1.44-1.61,1.39
					c-15.45-1.13-30.67-0.04-45.25,3.24c-6.48,1.46-13.1,3.37-19.49,5.23c-13.74,3.99-27.94,8.11-42.43,8.2
					c-10.88,0.07-21.72-1.72-32.18-3.45c-3.94-0.65-8.01-1.33-12.02-1.89c-9.5-1.33-19.02-1.24-28.22-1.14
					c-5.14,0.05-10.45,0.11-15.77-0.08C80.2,37.99,65.16,37,50.52,32.97c-0.69-0.19-1.41-0.39-2.16-0.6
					c-10.22-2.87-27.33-7.67-35.8-0.45c-8.08,6.89-5.99,21.05-3.97,34.74c1.6,10.82,3.1,21.03,0.2,28.66
					c-8.31,21.8-3.47,40.55,1.66,60.41c3.25,12.58,6.6,25.58,6.51,39.66c-0.1,15.88-3.29,31.6-6.37,46.79
					c-0.79,3.91-1.61,7.95-2.36,11.92c-4.64,24.52-5.75,50.55-3.11,73.31c1.2,10.34,3.33,20.77,5.39,30.85
					c3.13,15.31,6.36,31.13,6.46,47.17c0.09,14.08-3.27,27.09-6.51,39.66c-5.12,19.86-9.96,38.61-1.66,60.41
					c2.91,7.62,1.4,17.84-0.2,28.65c-2.02,13.69-4.11,27.85,3.97,34.74c8.46,7.22,25.57,2.42,35.8-0.45
					c0.75-0.21,1.48-0.41,2.16-0.6c14.64-4.03,29.68-5.02,41.14-5.42c5.32-0.19,10.63-0.13,15.77-0.08
					c9.21,0.09,18.72,0.19,28.22-1.14c4.01-0.56,8.08-1.24,12.02-1.89c10.46-1.73,21.28-3.52,32.19-3.45
					c14.48,0.09,28.69,4.22,42.43,8.2c6.4,1.86,13.01,3.78,19.5,5.23c44.77,10.05,81.81-3.91,82.18-4.05c0.35-0.13,0.73-0.13,1.08,0
					c0.37,0.14,37.4,14.1,82.18,4.05c6.48-1.46,13.1-3.38,19.49-5.23c13.74-3.99,27.94-8.11,42.43-8.2
					c10.89-0.06,21.72,1.72,32.19,3.45c3.94,0.65,8.01,1.33,12.02,1.89c9.5,1.33,19.02,1.24,28.22,1.14
					c5.14-0.05,10.45-0.11,15.77,0.08c11.46,0.41,26.5,1.39,41.14,5.42c0.69,0.19,1.41,0.39,2.16,0.6
					c10.22,2.87,27.33,7.67,35.8,0.45c8.08-6.89,5.99-21.05,3.97-34.74c-1.6-10.81-3.1-21.03-0.2-28.65
					c8.31-21.8,3.47-40.55-1.66-60.41c-3.25-12.58-6.6-25.58-6.51-39.66c0.1-15.89,3.29-31.61,6.38-46.8
					c0.89-4.38,1.81-8.91,2.64-13.36c4.48-24.06,5.46-49.79,2.76-72.44c-1.21-10.15-3.3-20.39-5.32-30.28
					c-3.12-15.3-6.35-31.12-6.45-47.15c-0.09-14.08,3.27-27.09,6.51-39.66c5.12-19.86,9.96-38.61,1.66-60.41
					c-2.91-7.62-1.4-17.84,0.2-28.66c2.02-13.69,4.11-27.85-3.97-34.74c-8.47-7.22-25.58-2.42-35.8,0.45
					c-0.75,0.21-1.48,0.41-2.16,0.6c-14.64,4.03-29.68,5.02-41.14,5.42c-5.32,0.19-10.63,0.13-15.77,0.08
					c-9.2-0.09-18.72-0.19-28.22,1.14c-4.01,0.56-8.08,1.24-12.02,1.89c-10.46,1.73-21.3,3.53-32.18,3.45
					c-14.48-0.1-28.69-4.22-42.43-8.2c-6.4-1.86-13.01-3.78-19.49-5.23c-14.79-3.32-30.24-4.39-45.92-3.19
					c-0.81,0.07-1.55-0.55-1.61-1.38s0.55-1.55,1.38-1.61c15.97-1.23,31.72-0.14,46.81,3.25c6.57,1.48,13.23,3.41,19.67,5.28
					c13.54,3.93,27.54,7.99,41.61,8.09c10.64,0.09,21.34-1.7,31.67-3.41c3.96-0.65,8.05-1.33,12.09-1.9
					c9.72-1.36,19.35-1.27,28.67-1.17c5.1,0.05,10.38,0.1,15.63-0.08c11.3-0.4,26.11-1.37,40.45-5.32c0.68-0.19,1.4-0.39,2.15-0.6
					c10.8-3.03,28.87-8.1,38.55,0.16c9.35,7.97,7.13,22.96,4.99,37.46c-1.47,9.96-2.99,20.26-0.36,27.15
					c8.65,22.69,3.46,42.79-1.55,62.22c-3.2,12.39-6.5,25.2-6.42,38.9c0.1,15.74,3.3,31.42,6.39,46.57
					c2.03,9.96,4.14,20.25,5.36,30.53c2.73,22.94,1.74,48.99-2.79,73.34c-0.83,4.48-1.75,9.02-2.65,13.41
					c-3.06,15.06-6.22,30.63-6.31,46.23c-0.08,13.69,3.22,26.5,6.42,38.9c2.51,9.73,5.11,19.78,5.94,29.99
					c0.94,11.49-0.5,22.03-4.38,32.24c-2.63,6.89-1.11,17.19,0.36,27.15c2.14,14.5,4.35,29.49-4.99,37.46
					c-9.68,8.25-27.75,3.18-38.55,0.16c-0.75-0.21-1.47-0.41-2.15-0.6c-14.34-3.95-29.15-4.92-40.45-5.32
					c-5.25-0.18-10.53-0.13-15.63-0.08c-9.32,0.1-18.94,0.19-28.67-1.17c-4.04-0.57-8.13-1.24-12.09-1.9
					c-10.34-1.71-21-3.45-31.68-3.41c-14.06,0.09-28.07,4.16-41.61,8.08c-6.44,1.87-13.1,3.8-19.67,5.28
					c-42.73,9.6-78.59-2.28-83.38-3.98C321.05,569.46,301.6,575.92,275.1,575.92z"/>
			</g>
			<g>
				<path class="st1" d="M324.61,49.55c-0.3,0-0.59-0.09-0.84-0.26c-7.2-2.6-39.87-15.01-37.74-25.63
					c1.96-9.79,17.73-8.85,22.42-8.35c0.75-2.24,2.53-6.95,5-9.42c6.44-6.44,15.5-6.42,22.02,0.03c2.48,2.46,4.29,7.16,5.04,9.4
					c4.68-0.52,20.45-1.55,22.46,8.24c2.2,10.71-31.13,23.45-37.84,25.89C324.95,49.52,324.78,49.55,324.61,49.55z M303.19,18.02
					c-5.96,0-13.23,1.21-14.23,6.23c-1.2,5.98,20.05,16.51,35.71,22.18c15.6-5.76,36.56-16.32,35.35-22.26
					c-1.71-8.36-20.15-5.74-20.33-5.71c-0.75,0.11-1.46-0.34-1.67-1.06c-0.54-1.84-2.42-7.11-4.67-9.33
					c-5.36-5.31-12.52-5.32-17.79-0.05c-2.23,2.23-4.09,7.51-4.62,9.35c-0.21,0.72-0.92,1.18-1.66,1.07
					C307.79,18.22,305.6,18.02,303.19,18.02z"/>
			</g>
			<g>
				<g>
					<path class="st1" d="M41.36,78.12c-4.39,0-9.59-2.36-13.96-6.73c-3.22-3.22-5.47-7.05-6.33-10.79c-0.92-4-0.18-7.44,2.09-9.71
						c4.56-4.56,13.57-2.7,20.51,4.24l0,0c6.94,6.94,8.8,15.95,4.24,20.51C46.22,77.31,43.93,78.12,41.36,78.12z M29.65,51.42
						c-1.77,0-3.3,0.51-4.37,1.58c-1.51,1.51-1.97,3.97-1.29,6.92c0.74,3.2,2.7,6.52,5.53,9.35c5.56,5.56,13,7.5,16.26,4.24
						c3.26-3.26,1.31-10.71-4.24-16.26C37.81,53.52,33.24,51.42,29.65,51.42z"/>
				</g>
				<g>
					<path class="st1" d="M607.57,78.1c-2.62,0-4.86-0.84-6.49-2.47c-2.27-2.27-3.01-5.72-2.09-9.71c0.86-3.74,3.11-7.58,6.33-10.79
						c6.94-6.94,15.95-8.8,20.51-4.24c4.56,4.56,2.7,13.57-4.24,20.51l0,0l0,0c-3.22,3.22-7.05,5.47-10.79,6.33
						C609.67,77.98,608.59,78.1,607.57,78.1z M619.34,51.42c-3.59,0-8.17,2.1-11.89,5.83c-2.83,2.83-4.79,6.15-5.53,9.35
						c-0.68,2.95-0.22,5.41,1.29,6.92c1.51,1.51,3.97,1.97,6.92,1.29c3.2-0.74,6.52-2.7,9.35-5.53l0,0
						c5.56-5.56,7.5-13.01,4.24-16.26C622.63,51.93,621.1,51.42,619.34,51.42z"/>
				</g>
			</g>
			<g>
				<g>
					<path class="st1" d="M29.65,553.1c-2.62,0-4.86-0.84-6.49-2.47c-2.27-2.27-3.01-5.72-2.09-9.71c0.86-3.74,3.11-7.58,6.33-10.79
						c3.22-3.22,7.05-5.47,10.79-6.33c4-0.92,7.44-0.18,9.71,2.09c2.27,2.27,3.01,5.72,2.09,9.71c-0.86,3.74-3.11,7.58-6.33,10.79
						l0,0l0,0c-3.22,3.22-7.05,5.47-10.79,6.33C31.75,552.98,30.67,553.1,29.65,553.1z M41.4,526.41c-0.79,0-1.64,0.1-2.53,0.31
						c-3.2,0.74-6.52,2.7-9.35,5.53c-2.83,2.83-4.79,6.15-5.53,9.35c-0.68,2.95-0.22,5.41,1.29,6.92c1.51,1.51,3.97,1.97,6.92,1.29
						c3.2-0.74,6.52-2.7,9.35-5.53l0,0c2.83-2.83,4.79-6.15,5.53-9.35c0.68-2.95,0.22-5.41-1.29-6.92
						C44.73,526.95,43.22,526.41,41.4,526.41z"/>
				</g>
				<g>
					<path class="st1" d="M619.33,553.1c-1.02,0-2.1-0.13-3.22-0.39c-3.74-0.86-7.58-3.11-10.79-6.33
						c-3.22-3.22-5.47-7.05-6.33-10.79c-0.92-4-0.18-7.44,2.09-9.71s5.72-3.01,9.71-2.09c3.74,0.86,7.58,3.11,10.79,6.33l0,0l0,0
						c6.94,6.94,8.8,15.95,4.24,20.51C624.2,552.26,621.95,553.1,619.33,553.1z M607.59,526.41c-1.82,0-3.33,0.54-4.39,1.59
						c-1.51,1.51-1.97,3.97-1.29,6.92c0.74,3.2,2.7,6.52,5.53,9.35s6.15,4.79,9.35,5.53c2.95,0.68,5.41,0.22,6.92-1.29
						c3.26-3.26,1.31-10.71-4.24-16.26l0,0c-2.83-2.83-6.15-4.79-9.35-5.53C609.22,526.51,608.38,526.41,607.59,526.41z"/>
				</g>
			</g>
		</g>
	</g>
	<g>
		<path class="st1" d="M128.62,296.92h0.31c0.2,1.53,16.42,5.2,18.87,4.49c8.87-3.26,21.01-14.89,31.11-27.75l-8.98,8.16l-0.2-0.2
			l2.04-46.82l-8.06,2.86l-0.41-0.61l17.14-6.63c0.71,0.61,0.82,1.63,0.92,2.55l-2.24,37.54c0,0.61,0.2,1.53,1.02,1.63
			c8.47-11.02,15.5-22.75,17.95-30.81c-1.63-3.37-6.43-8.67-10.4-8.36c1.53-2.14,4.49-4.79,6.02-5.92
			c6.73,1.53,7.34,7.75,6.53,12.04c-3.06,16.01-34.27,56.92-51.92,63.04c-5.61,2.35-16.12,4.9-17.85,5.2
			c-2.75,0-7.55-0.71-9.18-2.14L128.62,296.92z"/>
		<path class="st1" d="M203.28,268.36c0.51-16.42,19.38-36.82,32.64-36.72c3.77,0,11.42,1.84,11.42,9.79
			c-0.71,18.36-20.2,40.7-34.17,40.09C209.2,281.42,202.98,275.4,203.28,268.36z M237.15,243.37c0.2-6.12-0.51-9.49-5.71-9.49
			c-5.1,0-17.75,19.08-18.26,33.46c-0.1,6.12,2.65,11.22,4.79,11.32C228.48,279.07,236.54,255.1,237.15,243.37z"/>
		<path class="st1" d="M266.02,233.38l-9.69,4.9l-0.41-0.61l12.96-6.94c2.55,1.02,4.39,2.75,5.92,5.1
			c0,5.92-11.83,34.07-11.83,37.64c0,1.73,0.82,2.65,2.65,3.06c0.71-0.1,17.34-24.58,25.2-41.72l0.92-2.14l10.41-0.71l-13.77,44.27
			l9.89-3.88l0.1,0.61l-19.08,8.57c-0.51-0.41-1.43-1.22-1.63-1.84l14.38-44.88h-0.31c-7.85,17.75-23.36,46.11-30.19,46.72
			c-5.1-2.14-7.65-3.37-7.65-8.06C253.88,267.34,265.81,236.64,266.02,233.38z"/>
		<path class="st1" d="M324.36,234.4l-9.18,3.06l-0.2-0.82l18.26-6.32l1.12,0.2l-14.59,46.41h0.31
			c7.85-20.4,18.67-45.49,26.21-45.49c3.98,0,8.57,1.43,8.57,5.1l-16.01,4.08c-3.57,3.26-12.75,22.75-17.75,36.31l-1.12,3.06
			l-9.28,0.31L324.36,234.4z"/>
		<path class="st1" d="M415.34,230.52c3.88-0.51,10.91,2.04,14.38,3.77l-12.65,42.13l10.3-4.28v0.82L408,281.52
			c-0.51-0.41-1.43-1.22-1.63-1.84l12.34-40.09h-0.31c-3.16,7.96-20.81,34.99-25.4,41.11c-5.81-1.02-9.38-7.85-9.38-13.16
			C383.62,250.92,408,230.93,415.34,230.52z M396.37,272.55c0.82-0.31,18.05-25.5,21.01-32.95l1.12-2.14
			c-2.75-1.63-6.12-2.96-9.79-2.55c-4.9,0-15.2,22.75-15.2,31.42C393.51,269.79,394.33,272.24,396.37,272.55z"/>
		<path class="st1" d="M453.39,234.4l-9.18,3.06l-0.2-0.82l18.26-6.32l1.12,0.2l-14.59,46.41h0.31
			c7.85-20.4,18.67-45.49,26.21-45.49c3.98,0,8.57,1.43,8.57,5.1l-16.01,4.08c-3.57,3.26-12.75,22.75-17.75,36.31l-1.12,3.06
			l-9.28,0.31L453.39,234.4z"/>
		<path class="st1" d="M499.08,234.09l-5.92-0.2l-1.94,0.2l0.41-2.04l8.26-0.1l3.16-6.43l8.67-6.22l1.12,0.1l-3.57,12.55l12.44-0.1
			l-0.41,2.04l-3.98,0.31l-8.88,0.31l-10.91,33.56c-1.73,6.73,0.71,9.18,3.47,8.87c2.24-0.82,4.28-2.35,10.1-5.71l0.41,0.61
			c-6.53,4.28-8.77,6.32-14.79,9.49c-7.65-0.61-10.2-4.69-8.67-12.24L499.08,234.09z"/>
		<path class="st1" d="M267.24,298.49l-10.3,4.28v-0.82l19.58-8.47c0.51,0.41,1.43,1.22,1.63,1.84l-24.07,72.42h0.31
			c7.85-17.75,24.89-46.62,31.72-47.23c6.12,0.1,8.98,4.18,8.98,8.87c0,6.12-11.73,36.62-11.93,39.88l11.22-5.41l0.41,0.61
			l-14.48,7.45c-2.55-1.02-4.39-2.75-5.92-5.1c0-5.92,10.3-34.48,10.3-38.05c0-1.73-0.82-2.65-2.65-3.26
			c-4.18,1.73-18.87,25.09-26.73,42.23l-0.92,2.24l-10.4,0.71L267.24,298.49z"/>
		<path class="st1" d="M340.58,321.64c1.12,0,5.41,2.75,5.41,6.22c0,3.67-5.3,10-9.69,12.95c-3.06,2.14-16.93,9.89-18.77,9.89
			c-0.1,1.33-0.1,2.55-0.1,3.67c0,8.06,1.94,13.06,7.04,13.67c4.59-2.65,8.98-5.41,12.14-7.45l0.41,1.22
			c-3.06,1.84-11.93,7.85-16.53,9.69c-8.77-1.22-13.16-8.47-12.95-15.81C308.04,338.27,326.09,320.52,340.58,321.64z M337.72,325.31
			c0-1.53-0.51-2.45-1.73-2.45c-8.16,0-17.95,15.2-18.36,26.62C322.22,349.49,337.72,331.94,337.72,325.31z"/>
		<path class="st1" d="M364.65,324.4l-9.18,3.06l-0.2-0.82l18.26-6.32l1.12,0.2l-14.59,46.41h0.31
			c7.85-20.4,18.67-45.49,26.21-45.49c3.98,0,8.57,1.43,8.57,5.1l-16.01,4.08c-3.57,3.26-12.75,22.75-17.75,36.31l-1.12,3.06
			l-9.28,0.31L364.65,324.4z"/>
		<path class="st1" d="M428.19,321.64c1.12,0,5.41,2.75,5.41,6.22c0,3.67-5.3,10-9.69,12.95c-3.06,2.14-16.93,9.89-18.77,9.89
			c-0.1,1.33-0.1,2.55-0.1,3.67c0,8.06,1.94,13.06,7.04,13.67c4.59-2.65,8.98-5.41,12.14-7.45l0.41,1.22
			c-3.06,1.84-11.93,7.85-16.53,9.69c-8.77-1.22-13.16-8.47-12.95-15.81C395.65,338.27,413.71,320.52,428.19,321.64z M425.34,325.31
			c0-1.53-0.51-2.45-1.73-2.45c-8.16,0-17.95,15.2-18.36,26.62C409.83,349.49,425.34,331.94,425.34,325.31z"/>
	</g>
</g>
</svg>
